<?xml version="1.0" encoding="UTF-8" standalone="no"?>
<svg xmlns:sodipodi="http://sodipodi.sourceforge.net/DTD/sodipodi-0.dtd" xmlns="http://www.w3.org/2000/svg" xmlns:svg="http://www.w3.org/2000/svg" width="90" height="90" viewBox="0 0 23.8125 23.8125" version="1.1" id="svg100980">
  <defs id="defs100977"></defs>
  <g id="layer1">
    <g id="g36897" transform="translate(-189.99043,-107.34792)">
      <path style="fill:#ddf2f9;fill-opacity:1;stroke:none;stroke-width:0.392224;stroke-linecap:round;stroke-linejoin:round;stroke-dasharray:none;stroke-opacity:1" d="m 207.37798,124.1685 c 2.59278,0.48797 1.6904,-0.95403 1.11856,-1.14098 -0.57185,-0.18696 0.76463,-0.27838 1.66414,-0.71244 0.89951,-0.43406 0.814,-1.80047 0.0944,-1.65571 -0.71962,0.14476 -1.82909,0.36886 -1.82909,0.36886 0,0 1.85364,-0.52052 2.79555,-1.61249 0.94191,-1.09196 0.78228,-3.90346 -0.19796,-3.33563 -0.73695,0.42689 -2.15596,1.82926 -3.24276,2.63144 -1.08679,0.80218 -2.89317,1.67713 -2.62082,2.9878 0.27235,1.31066 -0.37479,1.98118 2.218,2.46915 z" id="path33063"></path>
      <path style="fill:#f4feff;fill-opacity:1;stroke:none;stroke-width:0.392224;stroke-linecap:round;stroke-linejoin:round;stroke-dasharray:none;stroke-opacity:1" d="m 206.90071,124.52206 c 2.4608,0.95137 1.83572,-0.63069 1.30741,-0.91853 -0.5283,-0.28783 0.80251,-0.13467 1.76596,-0.3979 0.96345,-0.26323 1.12787,-1.62241 0.39393,-1.61094 -0.73395,0.0115 -1.86567,0.0301 -1.86567,0.0301 0,0 1.91739,-0.17473 3.04218,-1.07718 1.12479,-0.90246 1.47915,-3.6961 0.41197,-3.31602 -0.8023,0.28576 -2.45269,1.40666 -3.66725,1.99781 -1.21456,0.59116 -3.14995,1.123 -3.1205,2.46134 0.0294,1.33833 -0.72885,1.87998 1.73195,2.83135 z" id="path35606"></path>
      <path style="opacity:1;fill:#ebd5ce;fill-opacity:1;stroke:none;stroke-width:0.313545;stroke-linecap:round;stroke-linejoin:round;stroke-dasharray:none;stroke-opacity:1" d="m 195.96889,122.15961 c 0,0 -2.99322,1.54259 -2.40149,2.48185 0.59174,0.93927 3.26691,-1.6416 3.26691,-1.6416 0,0 0.32832,-0.30796 0.007,-0.78129 -0.32119,-0.47334 -0.87256,-0.0589 -0.87256,-0.0589 z" id="path24297"></path>
      <path style="opacity:1;fill:#ebd5ce;fill-opacity:1;stroke-width:29.4005;stroke-linecap:round;stroke-linejoin:round" d="m 195.80793,119.29078 c 0,0 -0.53518,3.2572 0.18886,4.67183 0.72404,1.41463 2.54552,1.99288 4.79305,1.98393 2.24752,-0.009 4.24039,-1.29314 4.5024,-2.33495 0.26201,-1.04182 -0.36178,-5.35906 -0.36178,-5.35906 z" id="path1777"></path>
      <path style="fill:#e5b8aa;fill-opacity:1;stroke-width:28.0682;stroke-linecap:round;stroke-linejoin:round" d="m 195.82661,120.29252 c 0,0 -0.36925,0.57967 -0.12776,0.73694 0.24149,0.15727 0.48711,0.0172 2.55518,-0.48012 2.06807,-0.49733 7.01157,0.69059 6.9572,0.0634 -0.0397,-0.45864 -1.35911,-1.46515 -5.16685,-1.18563 -3.80775,0.27953 -4.13432,0.9893 -4.13432,0.9893 z" id="path16831"></path>
      <path style="fill:#4fa7c6;fill-opacity:1;stroke-width:26.1804;stroke-linecap:round;stroke-linejoin:round" d="m 192.4079,119.7319 c 1.96852,2.51008 4.20542,0.39664 7.12548,0.4518 2.92006,0.0552 7.38274,1.46588 7.92807,-0.98424 0.54534,-2.45013 -0.90207,-7.86786 -7.2764,-7.84961 -6.37432,0.0182 -9.58481,4.90985 -7.77715,8.38204 z" id="path1006"></path>
      <path id="path4212" style="fill:#e8f4f5;fill-opacity:1;stroke-width:29.1824;stroke-linecap:round;stroke-linejoin:round" d="m 203.09343,111.79482 c -0.24797,0.11647 -0.48101,0.27793 -0.6911,0.491 -2.17828,2.20914 2.34159,4.81639 4.66313,3.3141 -0.61754,-1.56043 -1.85428,-3.07843 -3.97203,-3.8051 z"></path>
      <path id="path4228" style="fill:#e8f4f5;fill-opacity:1;stroke-width:29.1824;stroke-linecap:round;stroke-linejoin:round" d="m 199.27182,117.30725 c -1.65169,-0.0999 -3.80297,0.90044 -3.86703,2.80053 -0.0102,0.3017 0.029,0.56309 0.10831,0.78687 1.19708,-0.19473 2.5182,-0.73923 4.0204,-0.71085 0.35969,0.007 0.74298,0.0341 1.13928,0.0723 0.23636,-0.34006 0.39987,-0.7211 0.45896,-1.13425 0.16632,-1.16289 -0.72981,-1.74625 -1.85992,-1.81463 z"></path>
      <path id="path4244" style="fill:#e8f4f5;fill-opacity:1;stroke-width:18.8132;stroke-linecap:round;stroke-linejoin:round" d="m 196.65568,111.93034 c -1.12648,0.39831 -2.0718,0.97898 -2.81504,1.66932 -0.002,0.0288 -0.005,0.0579 -0.006,0.0874 -0.069,2.05786 3.43718,1.20792 3.70114,-0.63273 0.0909,-0.6336 -0.31137,-1.00001 -0.88059,-1.12399 z"></path>
      <path style="opacity:1;fill:#f1ab9c;fill-opacity:1;stroke-width:16.1333;stroke-linecap:round;stroke-linejoin:round" d="m 200.09993,122.94804 c 0.0378,0.38112 0.78992,0.33142 0.73606,0.009 -0.0539,-0.32237 -0.77385,-0.39017 -0.73606,-0.009 z" id="path16959"></path>
      <path style="opacity:1;fill:none;fill-opacity:1;stroke:#601f1f;stroke-width:0.195483;stroke-linecap:round;stroke-linejoin:round;stroke-dasharray:none;stroke-opacity:1" d="m 198.0348,122.65217 c 0,0 0.20006,0.24761 0.42843,0.23545 0.22838,-0.0122 0.38803,-0.23783 0.38803,-0.23783" id="path19706"></path>
      <path style="fill:#58769e;fill-opacity:1;stroke:none;stroke-width:18.4965;stroke-linecap:round;stroke-linejoin:round;stroke-opacity:1" d="m 197.18717,122.20699 c 0.34967,0.0537 0.35812,-0.66065 0.0318,-0.75065 -0.32628,-0.09 -0.38153,0.69693 -0.0318,0.75065 z" id="path19768"></path>
      <path style="opacity:1;fill:#f1ab9c;fill-opacity:1;stroke-width:16.1333;stroke-linecap:round;stroke-linejoin:round" d="m 195.96469,122.74438 c 0.0378,0.38112 0.78992,0.33142 0.73606,0.009 -0.0539,-0.32236 -0.77385,-0.39017 -0.73606,-0.009 z" id="path23165"></path>
      <path style="opacity:1;fill:#ffffff;fill-opacity:1;stroke:none;stroke-width:0.20864;stroke-linecap:round;stroke-linejoin:round;stroke-dasharray:none;stroke-opacity:1" id="path23219" d="m 197.11832,121.63753 a 0.07149398,0.06987459 0 0 1 0.0523,-0.0842 0.07149398,0.06987459 0 0 1 0.0865,0.0506 0.07149398,0.06987459 0 0 1 -0.0512,0.0848 0.07149398,0.06987459 0 0 1 -0.0871,-0.0495"></path>
      <path style="fill:#58769e;fill-opacity:1;stroke:none;stroke-width:18.4965;stroke-linecap:round;stroke-linejoin:round;stroke-opacity:1" d="m 199.55553,122.1623 c 0.34968,0.0537 0.35812,-0.66064 0.0318,-0.75064 -0.32627,-0.09 -0.38152,0.69693 -0.0318,0.75064 z" id="path23485"></path>
      <path style="opacity:1;fill:#ffffff;fill-opacity:1;stroke:none;stroke-width:0.20864;stroke-linecap:round;stroke-linejoin:round;stroke-dasharray:none;stroke-opacity:1" id="path23487" d="m 199.4867,121.59286 a 0.07149398,0.06987459 0 0 1 0.0523,-0.0842 0.07149398,0.06987459 0 0 1 0.0865,0.0506 0.07149398,0.06987459 0 0 1 -0.0512,0.0849 0.07149398,0.06987459 0 0 1 -0.0871,-0.0495"></path>
      <path style="opacity:1;fill:#ebd5ce;fill-opacity:1;stroke:none;stroke-width:0.264583;stroke-linecap:round;stroke-linejoin:round;stroke-dasharray:none;stroke-opacity:1" id="path32914" d="m 227.90338,-67.423991 a 0.96358985,0.64558399 0 0 1 0.70477,-0.778077 0.96358985,0.64558399 0 0 1 1.16572,0.467313 0.96358985,0.64558399 0 0 1 -0.69022,0.78391 0.96358985,0.64558399 0 0 1 -1.17433,-0.457528" transform="rotate(48.280985)"></path>
      <path style="opacity:1;fill:#ebd5ce;fill-opacity:1;stroke:none;stroke-width:0.264583;stroke-linecap:round;stroke-linejoin:round;stroke-dasharray:none;stroke-opacity:1" id="path32916" d="m 237.97067,-21.39593 a 0.96358985,0.64558399 0 0 1 0.70477,-0.778077 0.96358985,0.64558399 0 0 1 1.16572,0.467313 0.96358985,0.64558399 0 0 1 -0.69021,0.78391 0.96358985,0.64558399 0 0 1 -1.17434,-0.457528" transform="rotate(36.533967)"></path>
      <path style="opacity:1;fill:#ebd5ce;fill-opacity:1;stroke:none;stroke-width:0.313545;stroke-linecap:round;stroke-linejoin:round;stroke-dasharray:none;stroke-opacity:1" d="m 204.92523,121.13316 c 0,0 3.30751,-0.63187 3.42104,0.47243 0.11352,1.1043 -3.58402,0.72274 -3.58402,0.72274 0,0 -0.44838,-0.0399 -0.48747,-0.61062 -0.0391,-0.57068 0.65048,-0.58457 0.65048,-0.58457 z" id="path36110"></path>
    </g>
  </g>
</svg>
