<?xml version="1.0" encoding="UTF-8"?>
<svg width="320" height="280" version="1.1" viewBox="0 0 84.667 74.083" xmlns="http://www.w3.org/2000/svg">
<g transform="matrix(.86638 0 0 .86638 -13.775 -304.95)" fill="#f1f1b3">
<rect x="26.871" y="361.14" width="20.694" height="18.627" ry="4.6162"/>
<g transform="matrix(.26458 0 0 .26458 -.16673 29.858)" stroke-linecap="round" stroke-linejoin="round" stroke-width="10" style="shape-inside:url(#rect66267);white-space:pre" aria-label="1">
<path d="m144.13 1300.4q-1.0453 0-1.7173-0.6347-0.672-0.672-0.672-1.6427v-18.816l0.52266 0.8214-2.7253 2.016q-0.52266 0.4106-1.3067 0.4106-0.896 0-1.568-0.672t-0.672-1.6053q0-1.1947 1.1573-1.9413l5.376-3.584q0.37333-0.2613 0.82133-0.3733 0.48533-0.112 0.896-0.112 1.0827 0 1.7173 0.672 0.63467 0.6346 0.63467 1.6053v21.579q0 0.9707-0.70934 1.6427-0.672 0.6347-1.7547 0.6347z" fill="#968b41"/>
</g>
</g>
<g transform="matrix(.86638 0 0 .86638 -13.775 -304.95)" fill="#f1f1b3">
<rect x="53.329" y="361.14" width="20.694" height="18.627" ry="4.6162"/>
<g transform="matrix(.26458 0 0 .26458 26.292 29.858)" stroke-linecap="round" stroke-linejoin="round" stroke-width="10" style="shape-inside:url(#rect66703);white-space:pre" aria-label="2">
<path d="m148.99 1296.2q0.896 0 1.4933 0.5973 0.59734 0.5974 0.59734 1.4934 0 0.8586-0.59734 1.456-0.59733 0.56-1.4933 0.56h-12.693q-0.97067 0-1.5307-0.5974-0.56-0.5973-0.56-1.5306 0-0.9334 0.672-1.6427l8.1387-8.6987q1.3813-1.4933 2.1653-3.0613 0.82133-1.568 0.82133-2.7253 0-1.8667-1.0827-2.9867-1.0827-1.1573-2.8747-1.1573-0.70933 0-1.456 0.336t-1.456 0.9333q-0.672 0.5973-1.2693 1.3813-0.448 0.5974-0.896 0.7467t-0.82133 0.1493q-0.82134 0-1.5307-0.5973-0.672-0.6347-0.672-1.456 0-0.6347 0.41067-1.232 0.448-0.5973 1.0827-1.232 0.93334-0.9333 2.0907-1.6426 1.1573-0.7094 2.3893-1.0827 1.232-0.4107 2.3893-0.4107 2.5013 0 4.3307 1.008 1.8667 0.9707 2.8747 2.8 1.008 1.792 1.008 4.256 0 2.0533-1.232 4.592-1.1947 2.5013-3.248 4.704l-5.04 5.376-0.41067-0.336z" fill="#968b41"/>
</g>
</g>
<g transform="matrix(.86638 0 0 .86638 9.1475 -304.95)" fill="#f1f1b3">
<rect x="53.329" y="361.14" width="20.694" height="18.627" ry="4.6162"/>
<g transform="matrix(.26458 0 0 .26458 26.292 29.858)" stroke-linecap="round" stroke-linejoin="round" stroke-width="10" style="shape-inside:url(#rect66723);white-space:pre" aria-label="3">
<path d="m136.67 1295.1q0.33599 0 0.70933 0.112 0.41066 0.112 0.896 0.448 0.63466 0.4853 1.4933 0.8586 0.896 0.3734 2.0533 0.3734t2.1653-0.56q1.0453-0.5974 1.7173-1.6427 0.672-1.0827 0.672-2.576 0-1.4187-0.59733-2.352-0.56-0.9333-1.5307-1.4187-0.93334-0.4853-2.016-0.4853-0.82134 0-1.3813 0.1493-0.52266 0.1494-1.0453 0.336-0.48533 0.1494-1.1573 0.1494-0.85867 0-1.344-0.5974-0.448-0.5973-0.448-1.4186 0-0.5227 0.18667-0.9334 0.224-0.4106 0.63466-0.896l6.5707-6.9813 1.008 0.8587h-9.184q-0.896 0-1.4933-0.5974-0.59733-0.5973-0.59733-1.4933 0-0.8586 0.59733-1.4186 0.59733-0.5974 1.4933-0.5974h11.424q1.1573 0 1.7173 0.6347 0.59734 0.6347 0.59734 1.6053 0 0.4853-0.26134 0.9707-0.26133 0.448-0.63466 0.8213l-6.608 7.0933-1.008-1.2693q0.41067-0.1867 1.12-0.336 0.74667-0.1493 1.232-0.1493 2.2027 0 3.808 1.1573 1.6427 1.12 2.5013 2.9493 0.896 1.792 0.896 3.8827 0 2.7627-1.232 4.7787t-3.472 3.0986q-2.24 1.0827-5.2267 1.0827-1.3813 0-2.7253-0.336t-2.3147-0.896q-0.82134-0.448-1.12-0.9707-0.26134-0.56-0.26134-1.0453 0-0.8587 0.59734-1.6053 0.63466-0.784 1.568-0.784z" fill="#968b41"/>
</g>
</g>
<g transform="matrix(.86638 0 0 .86638 -13.775 -283.86)" fill="#f1f1b3">
<rect x="26.871" y="361.14" width="20.694" height="18.627" ry="4.6162"/>
<g transform="matrix(.26458 0 0 .26458 -.16673 29.858)" stroke-linecap="round" stroke-linejoin="round" stroke-width="10" style="shape-inside:url(#rect66795);white-space:pre" aria-label="4">
<path d="m146.06 1300.4q-0.93333 0-1.568-0.6347-0.63467-0.672-0.63467-1.6427v-17.547l0.784 0.1866-7.2053 8.9227-0.18666-0.4853h13.216q0.896 0 1.4933 0.5973 0.59733 0.5973 0.59733 1.4933 0 0.8587-0.59733 1.456-0.59734 0.56-1.4933 0.56h-16.315q-0.784 0-1.5307-0.6346-0.70934-0.6347-0.70934-1.568 0-0.8214 0.56-1.4934l11.797-14.448q0.29866-0.4107 0.784-0.6347 0.48533-0.2613 1.0827-0.2613 0.97067 0 1.568 0.672 0.63467 0.6346 0.63467 1.6053v21.579q0 0.9707-0.672 1.6427-0.63467 0.6347-1.6053 0.6347z" fill="#968b41"/>
</g>
</g>
<g transform="matrix(.86638 0 0 .86638 -13.775 -297.61)">
<rect x="53.329" y="377.01" width="20.694" height="18.627" ry="4.6162" fill="#e7e7e7"/>
<g transform="matrix(.26458 0 0 .26458 26.292 45.733)" fill="#a7a7a7" stroke-linecap="round" stroke-linejoin="round" stroke-width="10" style="shape-inside:url(#rect66797);white-space:pre" aria-label="?">
<path d="m138.5 1288.6q0-0.9706 0.63467-1.6053 0.63466-0.672 1.6053-0.672 1.5307 0 2.7627-0.448 1.232-0.4853 1.9413-1.5307 0.74666-1.0453 0.74666-2.7626 0-1.2694-0.63466-2.24-0.59734-0.9707-1.68-1.5307-1.0453-0.56-2.3893-0.56-1.0453 0-1.9787 0.3733-0.896 0.3734-1.6427 1.008-0.59734 0.5227-1.456 0.784-0.82134 0.224-1.68-0.4106-0.896-0.672-0.97067-1.6054-0.0747-0.9333 0.70933-1.7173 1.344-1.3813 3.136-2.128 1.8293-0.784 3.8827-0.784 2.576 0 4.6293 1.1947 2.0907 1.1573 3.3227 3.136 1.232 1.9786 1.232 4.48 0 1.8666-0.56 3.3226-0.56 1.4187-1.6053 2.464-1.008 1.008-2.3893 1.6427-1.344 0.5973-2.9493 0.8587-0.0747 0.037-0.14933 0.075-0.0373 0.037-0.0373 0.112v1.3814q0 0.9706-0.63467 1.6426-0.63466 0.6347-1.6053 0.6347t-1.6053-0.6347q-0.63467-0.672-0.63467-1.6426zm2.0533 11.797q-1.0827 0-1.68-0.56-0.56-0.5974-0.56-1.68v-0.6347q0-1.0827 0.56-1.6427 0.59734-0.5973 1.68-0.5973h0.48534q1.0827 0 1.6427 0.5973 0.59733 0.56 0.59733 1.6427v0.6347q0 1.0826-0.59733 1.68-0.56 0.56-1.6427 0.56z"/>
</g>
</g>
<g transform="matrix(.86638 0 0 .86638 9.1475 -283.86)" fill="#f1f1b3">
<rect x="53.329" y="361.14" width="20.694" height="18.627" ry="4.6162"/>
<g transform="matrix(.26458 0 0 .26458 26.292 29.858)" stroke-linecap="round" stroke-linejoin="round" stroke-width="10" style="shape-inside:url(#rect66799);white-space:pre" aria-label="6">
<path d="m142.83 1300.7q-2.016 0-3.6587-0.8213-1.6053-0.8587-2.7627-2.3147-1.12-1.456-1.7547-3.2853-0.59733-1.8294-0.59733-3.7707 0-1.2693 0.26133-3.0613 0.29867-1.792 1.008-3.7707t1.9787-3.8453q1.2693-1.8667 3.2107-3.36 1.9787-1.4933 4.816-2.2773 0.448-0.112 0.85867-0.112 0.85866 0 1.5307 0.448 0.70934 0.448 0.70934 1.6426 0 0.8213-0.56 1.456-0.52267 0.5973-1.4187 0.8587-1.2693 0.3733-2.5387 1.12-1.232 0.7093-2.3147 1.7546-1.0453 1.0454-1.8293 2.3894-0.74667 1.3066-1.0827 2.8373l-1.008-0.037q0.52266-0.6347 1.2693-1.344 0.784-0.7467 1.8667-1.2694 1.12-0.56 2.6133-0.56 1.456 0 2.8747 0.672 1.456 0.672 2.6133 1.8667 1.1947 1.1573 1.904 2.7627 0.70933 1.568 0.70933 3.36 0 2.3893-1.1947 4.368-1.1573 1.9786-3.136 3.136-1.9413 1.1573-4.368 1.1573zm0-4.1067q1.1947 0 2.128-0.5973 0.97067-0.5973 1.5307-1.6427 0.55999-1.0453 0.55999-2.3146 0-1.3067-0.55999-2.3147-0.56-1.0453-1.5307-1.6427-0.93333-0.5973-2.128-0.5973-1.1947 0-2.1653 0.5973-0.93333 0.5974-1.4933 1.6427-0.56 1.008-0.56 2.3147 0 1.2693 0.56 2.3146 0.56 1.0454 1.4933 1.6427 0.97067 0.5973 2.1653 0.5973z" fill="#968b41"/>
</g>
</g>
<g transform="matrix(.86638 0 0 .86638 -13.775 -262.77)" fill="#f1f1b3">
<rect x="26.871" y="361.14" width="20.694" height="18.627" ry="4.6162"/>
<g transform="matrix(.26458 0 0 .26458 -.16673 29.858)" stroke-linecap="round" stroke-linejoin="round" stroke-width="10" style="shape-inside:url(#rect66827);white-space:pre" aria-label="7">
<path d="m139.73 1300.5q-0.93333 0-1.6427-0.5973-0.672-0.6347-0.672-1.568 0-0.5227 0.224-1.008l9.1467-19.824 0.41066 1.008h-10.789q-0.896 0-1.4933-0.5973-0.59734-0.5974-0.59734-1.4933 0-0.8587 0.59734-1.4187 0.59733-0.5973 1.4933-0.5973h12.992q0.97066 0 1.68 0.6346 0.74666 0.5974 0.74666 1.568 0 0.4853-0.224 1.008l-9.8187 21.467q-0.26133 0.672-0.85866 1.0453-0.56 0.3733-1.1947 0.3733z" fill="#968b41"/>
</g>
</g>
<g transform="matrix(.86638 0 0 .86638 -13.775 -262.77)" fill="#f1f1b3">
<rect x="53.329" y="361.14" width="20.694" height="18.627" ry="4.6162"/>
<g transform="matrix(.26458 0 0 .26458 26.292 29.858)" stroke-linecap="round" stroke-linejoin="round" stroke-width="10" style="shape-inside:url(#rect66829);white-space:pre" aria-label="8">
<path d="m146.69 1287.1-0.0747-0.8586q1.4187 0.6346 2.464 1.6426 1.0453 1.008 1.6053 2.2027t0.56 2.464q0 2.128-1.1947 3.92-1.1573 1.7547-3.136 2.8373-1.9787 1.0454-4.4053 1.0454-2.4267 0-4.4053-1.0454-1.9787-1.0826-3.1733-2.8373-1.1573-1.792-1.1573-3.92 0-1.7173 0.70933-2.9493 0.74667-1.2694 1.8293-2.128 1.12-0.8587 2.2027-1.4187l-0.29867 1.0453q-0.93333-0.3733-1.8293-1.0453-0.85866-0.7093-1.4187-1.792t-0.56-2.5387q0-2.0906 1.0827-3.7706 1.0827-1.7173 2.912-2.7253 1.8667-1.008 4.1067-1.008 2.2773 0 4.0693 1.008 1.8293 1.008 2.912 2.7253 1.0827 1.68 1.0827 3.7706 0 1.6054-0.63467 2.688-0.63467 1.0827-1.5307 1.7174-0.89599 0.6346-1.7173 0.9706zm-7.8027-5.3013q0 1.008 0.448 1.792 0.48534 0.784 1.3067 1.2693 0.82133 0.448 1.8667 0.448 1.0453 0 1.8293-0.448 0.82134-0.4853 1.2693-1.2693 0.48533-0.784 0.48533-1.792 0-1.4933-1.0453-2.464-1.008-1.008-2.5387-1.008-1.568 0-2.6133 1.008-1.008 0.9707-1.008 2.464zm3.6213 14.448q1.792 0 3.024-1.0827 1.232-1.12 1.232-2.688 0-1.0826-0.56-1.9413t-1.5307-1.344q-0.97066-0.5227-2.1653-0.5227-1.1947 0-2.1653 0.5227-0.97066 0.4853-1.5307 1.344t-0.56 1.9413q0 1.568 1.232 2.688 1.232 1.0827 3.024 1.0827z" fill="#968b41"/>
</g>
</g>
<g transform="matrix(.86638 0 0 .86638 9.1475 -262.77)" fill="#f1f1b3">
<rect x="53.329" y="361.14" width="20.694" height="18.627" ry="4.6162"/>
<g transform="matrix(.26458 0 0 .26458 26.292 29.858)" stroke-linecap="round" stroke-linejoin="round" stroke-width="10" style="shape-inside:url(#rect66831);white-space:pre" aria-label="9">
<path d="m142.47 1273.7q2.016 0 3.6213 0.8587 1.6427 0.8213 2.7627 2.2773 1.1573 1.456 1.7547 3.2853 0.63467 1.792 0.63467 3.7707 0 1.2693-0.29867 3.0987-0.26133 1.8293-0.97067 3.8826-0.70933 2.016-1.9787 3.9574-1.2693 1.904-3.248 3.4346-1.9413 1.5307-4.7787 2.3147-0.448 0.112-0.85867 0.112-0.85866 0-1.568-0.448-0.672-0.4853-0.672-1.6427 0-0.8586 0.52266-1.456 0.56-0.5973 1.456-0.8586 1.7173-0.5227 3.3227-1.7174 1.6427-1.232 2.8373-2.9493 1.1947-1.7547 1.6053-3.808l1.008 0.037q-0.48534 0.5974-1.2693 1.344-0.74666 0.7467-1.8667 1.3067-1.0827 0.5227-2.6133 0.5227-2.464 0-4.2933-1.0454-1.792-1.0826-2.8-3.024-1.008-1.9786-1.008-4.592 0-2.352 1.1573-4.3306 1.1947-1.9787 3.1733-3.136 1.9787-1.1947 4.368-1.1947zm0 4.1067q-1.1947 0-2.1653 0.6346-0.93333 0.5974-1.4933 1.6427-0.56 1.008-0.56 2.2773 0 1.3814 0.52266 2.4267 0.52267 1.008 1.456 1.568 0.97067 0.56 2.24 0.56 1.1947 0 2.128-0.5973 0.97066-0.5974 1.5307-1.6427t0.56-2.3147q0-1.3066-0.56-2.3146-0.56-1.0454-1.5307-1.6427-0.93333-0.5973-2.128-0.5973z" fill="#968b41"/>
</g>
</g>
</svg>
