<?xml version="1.0" encoding="UTF-8" standalone="no"?>
<svg xmlns:inkscape="http://www.inkscape.org/namespaces/inkscape" xmlns:sodipodi="http://sodipodi.sourceforge.net/DTD/sodipodi-0.dtd" xmlns="http://www.w3.org/2000/svg" xmlns:svg="http://www.w3.org/2000/svg" width="320" height="280" viewBox="0 0 84.666665 74.083333" version="1.1" id="svg100980">
  <defs id="defs100977"></defs>
  <g id="layer1">
    <g id="g66713" transform="matrix(0.86637548,0,0,0.86637548,-13.775302,-304.94856)">
      <rect style="fill:#f1f1b3;fill-opacity:1;stroke:none;stroke-width:2.64583;stroke-linecap:round;stroke-linejoin:round;stroke-dasharray:none;stroke-opacity:1" id="rect66184" width="20.694244" height="18.626558" x="26.870569" y="361.13895" ry="4.6161537"></rect>
      <g aria-label="1" transform="matrix(0.26458333,0,0,0.26458333,-0.16673134,29.858072)" id="text66265" style="font-weight:bold;font-size:37.3333px;font-family:Quicksand;-inkscape-font-specification:'Quicksand Bold';text-align:center;text-anchor:middle;white-space:pre;shape-inside:url(#rect66267);display:inline;opacity:1;fill:#f1f1b3;stroke-width:10;stroke-linecap:round;stroke-linejoin:round">
        <path d="m 144.13279,1300.3517 q -1.04533,0 -1.71733,-0.6347 -0.672,-0.672 -0.672,-1.6427 v -18.816 l 0.52266,0.8214 -2.72533,2.016 q -0.52266,0.4106 -1.30666,0.4106 -0.896,0 -1.568,-0.672 -0.672,-0.672 -0.672,-1.6053 0,-1.1947 1.15733,-1.9413 l 5.376,-3.584 q 0.37333,-0.2613 0.82133,-0.3733 0.48533,-0.112 0.896,-0.112 1.08266,0 1.71733,0.672 0.63467,0.6346 0.63467,1.6053 v 21.5786 q 0,0.9707 -0.70934,1.6427 -0.672,0.6347 -1.75466,0.6347 z" style="fill:#968b41" id="path98953"></path>
      </g>
    </g>
    <g id="g66708" transform="matrix(0.86637548,0,0,0.86637548,-13.775302,-304.94856)">
      <rect style="fill:#f1f1b3;fill-opacity:1;stroke:none;stroke-width:2.64583;stroke-linecap:round;stroke-linejoin:round;stroke-dasharray:none;stroke-opacity:1" id="rect66697" width="20.694244" height="18.626558" x="53.328907" y="361.13895" ry="4.6161537"></rect>
      <g aria-label="2" transform="matrix(0.26458333,0,0,0.26458333,26.291603,29.858072)" id="text66701" style="font-weight:bold;font-size:37.3333px;font-family:Quicksand;-inkscape-font-specification:'Quicksand Bold';text-align:center;text-anchor:middle;white-space:pre;shape-inside:url(#rect66703);display:inline;opacity:1;fill:#f1f1b3;stroke-width:10;stroke-linecap:round;stroke-linejoin:round">
        <path d="m 148.98611,1296.245 q 0.896,0 1.49333,0.5973 0.59734,0.5974 0.59734,1.4934 0,0.8586 -0.59734,1.456 -0.59733,0.56 -1.49333,0.56 h -12.69332 q -0.97067,0 -1.53067,-0.5974 -0.56,-0.5973 -0.56,-1.5306 0,-0.9334 0.672,-1.6427 l 8.13866,-8.6987 q 1.38134,-1.4933 2.16534,-3.0613 0.82133,-1.568 0.82133,-2.7253 0,-1.8667 -1.08267,-2.9867 -1.08266,-1.1573 -2.87466,-1.1573 -0.70933,0 -1.456,0.336 -0.74667,0.336 -1.456,0.9333 -0.672,0.5973 -1.26933,1.3813 -0.448,0.5974 -0.896,0.7467 -0.448,0.1493 -0.82133,0.1493 -0.82134,0 -1.53067,-0.5973 -0.672,-0.6347 -0.672,-1.456 0,-0.6347 0.41067,-1.232 0.448,-0.5973 1.08266,-1.232 0.93334,-0.9333 2.09067,-1.6426 1.15733,-0.7094 2.38933,-1.0827 1.232,-0.4107 2.38933,-0.4107 2.50133,0 4.33066,1.008 1.86667,0.9707 2.87467,2.8 1.008,1.792 1.008,4.256 0,2.0533 -1.232,4.592 -1.19467,2.5013 -3.248,4.704 l -5.03999,5.376 -0.41067,-0.336 z" style="fill:#968b41" id="path98956"></path>
      </g>
    </g>
    <g id="g66721" transform="matrix(0.86637548,0,0,0.86637548,9.1475492,-304.94856)">
      <rect style="fill:#f1f1b3;fill-opacity:1;stroke:none;stroke-width:2.64583;stroke-linecap:round;stroke-linejoin:round;stroke-dasharray:none;stroke-opacity:1" id="rect66715" width="20.694244" height="18.626558" x="53.328907" y="361.13895" ry="4.6161537"></rect>
      <g aria-label="3" transform="matrix(0.26458333,0,0,0.26458333,26.291603,29.858072)" id="text66719" style="font-weight:bold;font-size:37.3333px;font-family:Quicksand;-inkscape-font-specification:'Quicksand Bold';text-align:center;text-anchor:middle;white-space:pre;shape-inside:url(#rect66723);display:inline;opacity:1;fill:#f1f1b3;stroke-width:10;stroke-linecap:round;stroke-linejoin:round">
        <path d="m 136.66612,1295.0877 q 0.33599,0 0.70933,0.112 0.41066,0.112 0.896,0.448 0.63466,0.4853 1.49333,0.8586 0.896,0.3734 2.05333,0.3734 1.15733,0 2.16533,-0.56 1.04533,-0.5974 1.71733,-1.6427 0.672,-1.0827 0.672,-2.576 0,-1.4187 -0.59733,-2.352 -0.56,-0.9333 -1.53066,-1.4187 -0.93334,-0.4853 -2.016,-0.4853 -0.82134,0 -1.38134,0.1493 -0.52266,0.1494 -1.04533,0.336 -0.48533,0.1494 -1.15733,0.1494 -0.85867,0 -1.344,-0.5974 -0.448,-0.5973 -0.448,-1.4186 0,-0.5227 0.18667,-0.9334 0.224,-0.4106 0.63466,-0.896 l 6.57067,-6.9813 1.00799,0.8587 h -9.18399 q -0.896,0 -1.49333,-0.5974 -0.59733,-0.5973 -0.59733,-1.4933 0,-0.8586 0.59733,-1.4186 0.59733,-0.5974 1.49333,-0.5974 h 11.42399 q 1.15733,0 1.71733,0.6347 0.59734,0.6347 0.59734,1.6053 0,0.4853 -0.26134,0.9707 -0.26133,0.448 -0.63466,0.8213 l -6.608,7.0933 -1.008,-1.2693 q 0.41067,-0.1867 1.12,-0.336 0.74667,-0.1493 1.232,-0.1493 2.20267,0 3.808,1.1573 1.64266,1.12 2.50133,2.9493 0.896,1.792 0.896,3.8827 0,2.7627 -1.232,4.7787 -1.232,2.016 -3.472,3.0986 -2.23999,1.0827 -5.22666,1.0827 -1.38133,0 -2.72533,-0.336 -1.344,-0.336 -2.31466,-0.896 -0.82134,-0.448 -1.12,-0.9707 -0.26134,-0.56 -0.26134,-1.0453 0,-0.8587 0.59734,-1.6053 0.63466,-0.784 1.568,-0.784 z" style="fill:#968b41" id="path98959"></path>
      </g>
    </g>
    <g id="g66775" transform="matrix(0.86637548,0,0,0.86637548,-13.775302,-283.85953)">
      <rect style="fill:#f1f1b3;fill-opacity:1;stroke:none;stroke-width:2.64583;stroke-linecap:round;stroke-linejoin:round;stroke-dasharray:none;stroke-opacity:1" id="rect66769" width="20.694244" height="18.626558" x="26.870569" y="361.13895" ry="4.6161537"></rect>
      <g aria-label="4" transform="matrix(0.26458333,0,0,0.26458333,-0.16673134,29.858072)" id="text66773" style="font-weight:bold;font-size:37.3333px;font-family:Quicksand;-inkscape-font-specification:'Quicksand Bold';text-align:center;text-anchor:middle;white-space:pre;shape-inside:url(#rect66795);display:inline;opacity:1;fill:#f1f1b3;stroke-width:10;stroke-linecap:round;stroke-linejoin:round">
        <path d="m 146.05546,1300.3517 q -0.93333,0 -1.56799,-0.6347 -0.63467,-0.672 -0.63467,-1.6427 v -17.5466 l 0.784,0.1866 -7.20533,8.9227 -0.18666,-0.4853 h 13.21598 q 0.896,0 1.49334,0.5973 0.59733,0.5973 0.59733,1.4933 0,0.8587 -0.59733,1.456 -0.59734,0.56 -1.49334,0.56 h -16.31465 q -0.784,0 -1.53066,-0.6346 -0.70934,-0.6347 -0.70934,-1.568 0,-0.8214 0.56,-1.4934 l 11.79733,-14.4479 q 0.29866,-0.4107 0.784,-0.6347 0.48533,-0.2613 1.08266,-0.2613 0.97067,0 1.568,0.672 0.63467,0.6346 0.63467,1.6053 v 21.5786 q 0,0.9707 -0.672,1.6427 -0.63467,0.6347 -1.60534,0.6347 z" style="fill:#968b41" id="path98962"></path>
      </g>
    </g>
    <g id="g66783" transform="matrix(0.86637548,0,0,0.86637548,-13.775302,-297.61324)">
      <rect style="fill:#e7e7e7;fill-opacity:1;stroke:none;stroke-width:2.64583;stroke-linecap:round;stroke-linejoin:round;stroke-dasharray:none;stroke-opacity:1" id="rect66777" width="20.694244" height="18.626558" x="53.328907" y="377.01392" ry="4.6161537"></rect>
      <g aria-label="?" transform="matrix(0.26458333,0,0,0.26458333,26.291603,45.733073)" id="text66781" style="font-weight:bold;font-size:37.3333px;font-family:Quicksand;-inkscape-font-specification:'Quicksand Bold';text-align:center;text-anchor:middle;white-space:pre;shape-inside:url(#rect66797);display:inline;opacity:1;fill:#a7a7a7;stroke-width:10;stroke-linecap:round;stroke-linejoin:round">
        <path d="m 138.49545,1288.5543 q 0,-0.9706 0.63467,-1.6053 0.63466,-0.672 1.60533,-0.672 1.53066,0 2.76266,-0.448 1.232,-0.4853 1.94134,-1.5307 0.74666,-1.0453 0.74666,-2.7626 0,-1.2694 -0.63466,-2.24 -0.59734,-0.9707 -1.68,-1.5307 -1.04534,-0.56 -2.38933,-0.56 -1.04534,0 -1.97867,0.3733 -0.896,0.3734 -1.64266,1.008 -0.59734,0.5227 -1.456,0.784 -0.82134,0.224 -1.68,-0.4106 -0.896,-0.672 -0.97067,-1.6054 -0.0747,-0.9333 0.70933,-1.7173 1.344,-1.3813 3.136,-2.128 1.82933,-0.784 3.88267,-0.784 2.57599,0 4.62932,1.1947 2.09067,1.1573 3.32267,3.136 1.232,1.9786 1.232,4.48 0,1.8666 -0.56,3.3226 -0.56,1.4187 -1.60533,2.464 -1.008,1.008 -2.38934,1.6427 -1.34399,0.5973 -2.94933,0.8587 -0.0747,0.037 -0.14933,0.075 -0.0373,0.037 -0.0373,0.112 v 1.3814 q 0,0.9706 -0.63467,1.6426 -0.63466,0.6347 -1.60533,0.6347 -0.97067,0 -1.60533,-0.6347 -0.63467,-0.672 -0.63467,-1.6426 z m 2.05333,11.7974 q -1.08266,0 -1.68,-0.56 -0.56,-0.5974 -0.56,-1.68 v -0.6347 q 0,-1.0827 0.56,-1.6427 0.59734,-0.5973 1.68,-0.5973 h 0.48534 q 1.08266,0 1.64266,0.5973 0.59733,0.56 0.59733,1.6427 v 0.6347 q 0,1.0826 -0.59733,1.68 -0.56,0.56 -1.64266,0.56 z" id="path98965"></path>
      </g>
    </g>
    <g id="g66791" transform="matrix(0.86637548,0,0,0.86637548,9.1475492,-283.85953)">
      <rect style="fill:#f1f1b3;fill-opacity:1;stroke:none;stroke-width:2.64583;stroke-linecap:round;stroke-linejoin:round;stroke-dasharray:none;stroke-opacity:1" id="rect66785" width="20.694244" height="18.626558" x="53.328907" y="361.13895" ry="4.6161537"></rect>
      <g aria-label="6" transform="matrix(0.26458333,0,0,0.26458333,26.291603,29.858072)" id="text66789" style="font-weight:bold;font-size:37.3333px;font-family:Quicksand;-inkscape-font-specification:'Quicksand Bold';text-align:center;text-anchor:middle;white-space:pre;shape-inside:url(#rect66799);display:inline;opacity:1;fill:#f1f1b3;stroke-width:10;stroke-linecap:round;stroke-linejoin:round">
        <path d="m 142.82613,1300.725 q -2.016,0 -3.65866,-0.8213 -1.60533,-0.8587 -2.76267,-2.3147 -1.12,-1.456 -1.75466,-3.2853 -0.59733,-1.8294 -0.59733,-3.7707 0,-1.2693 0.26133,-3.0613 0.29867,-1.792 1.008,-3.7707 0.70933,-1.9787 1.97866,-3.8453 1.26934,-1.8667 3.21067,-3.36 1.97866,-1.4933 4.81599,-2.2773 0.448,-0.112 0.85867,-0.112 0.85866,0 1.53066,0.448 0.70934,0.448 0.70934,1.6426 0,0.8213 -0.56,1.456 -0.52267,0.5973 -1.41867,0.8587 -1.26933,0.3733 -2.53866,1.12 -1.232,0.7093 -2.31467,1.7546 -1.04533,1.0454 -1.82933,2.3894 -0.74667,1.3066 -1.08266,2.8373 l -1.008,-0.037 q 0.52266,-0.6347 1.26933,-1.344 0.784,-0.7467 1.86666,-1.2694 1.12,-0.56 2.61333,-0.56 1.456,0 2.87467,0.672 1.456,0.672 2.61333,1.8667 1.19467,1.1573 1.904,2.7627 0.70933,1.568 0.70933,3.36 0,2.3893 -1.19466,4.368 -1.15734,1.9786 -3.136,3.136 -1.94133,1.1573 -4.368,1.1573 z m 0,-4.1067 q 1.19467,0 2.128,-0.5973 0.97067,-0.5973 1.53067,-1.6427 0.55999,-1.0453 0.55999,-2.3146 0,-1.3067 -0.55999,-2.3147 -0.56,-1.0453 -1.53067,-1.6427 -0.93333,-0.5973 -2.128,-0.5973 -1.19466,0 -2.16533,0.5973 -0.93333,0.5974 -1.49333,1.6427 -0.56,1.008 -0.56,2.3147 0,1.2693 0.56,2.3146 0.56,1.0454 1.49333,1.6427 0.97067,0.5973 2.16533,0.5973 z" style="fill:#968b41" id="path98968"></path>
      </g>
    </g>
    <g id="g66807" transform="matrix(0.86637548,0,0,0.86637548,-13.775302,-262.77051)">
      <rect style="fill:#f1f1b3;fill-opacity:1;stroke:none;stroke-width:2.64583;stroke-linecap:round;stroke-linejoin:round;stroke-dasharray:none;stroke-opacity:1" id="rect66801" width="20.694244" height="18.626558" x="26.870569" y="361.13895" ry="4.6161537"></rect>
      <g aria-label="7" transform="matrix(0.26458333,0,0,0.26458333,-0.16673134,29.858072)" id="text66805" style="font-weight:bold;font-size:37.3333px;font-family:Quicksand;-inkscape-font-specification:'Quicksand Bold';text-align:center;text-anchor:middle;white-space:pre;shape-inside:url(#rect66827);display:inline;opacity:1;fill:#f1f1b3;stroke-width:10;stroke-linecap:round;stroke-linejoin:round">
        <path d="m 139.72746,1300.5383 q -0.93333,0 -1.64266,-0.5973 -0.672,-0.6347 -0.672,-1.568 0,-0.5227 0.224,-1.008 l 9.14666,-19.824 0.41066,1.008 H 136.4048 q -0.896,0 -1.49333,-0.5973 -0.59734,-0.5974 -0.59734,-1.4933 0,-0.8587 0.59734,-1.4187 0.59733,-0.5973 1.49333,-0.5973 h 12.99199 q 0.97066,0 1.68,0.6346 0.74666,0.5974 0.74666,1.568 0,0.4853 -0.224,1.008 l -9.81866,21.4667 q -0.26133,0.672 -0.85866,1.0453 -0.56,0.3733 -1.19467,0.3733 z" style="fill:#968b41" id="path98971"></path>
      </g>
    </g>
    <g id="g66815" transform="matrix(0.86637548,0,0,0.86637548,-13.775302,-262.77051)">
      <rect style="fill:#f1f1b3;fill-opacity:1;stroke:none;stroke-width:2.64583;stroke-linecap:round;stroke-linejoin:round;stroke-dasharray:none;stroke-opacity:1" id="rect66809" width="20.694244" height="18.626558" x="53.328907" y="361.13895" ry="4.6161537"></rect>
      <g aria-label="8" transform="matrix(0.26458333,0,0,0.26458333,26.291603,29.858072)" id="text66813" style="font-weight:bold;font-size:37.3333px;font-family:Quicksand;-inkscape-font-specification:'Quicksand Bold';text-align:center;text-anchor:middle;white-space:pre;shape-inside:url(#rect66829);display:inline;opacity:1;fill:#f1f1b3;stroke-width:10;stroke-linecap:round;stroke-linejoin:round">
        <path d="m 146.69011,1287.0983 -0.0747,-0.8586 q 1.41866,0.6346 2.46399,1.6426 1.04534,1.008 1.60534,2.2027 0.56,1.1947 0.56,2.464 0,2.128 -1.19467,3.92 -1.15733,1.7547 -3.136,2.8373 -1.97866,1.0454 -4.40533,1.0454 -2.42666,0 -4.40533,-1.0454 -1.97866,-1.0826 -3.17333,-2.8373 -1.15733,-1.792 -1.15733,-3.92 0,-1.7173 0.70933,-2.9493 0.74667,-1.2694 1.82933,-2.128 1.12,-0.8587 2.20267,-1.4187 l -0.29867,1.0453 q -0.93333,-0.3733 -1.82933,-1.0453 -0.85866,-0.7093 -1.41866,-1.792 -0.56,-1.0827 -0.56,-2.5387 0,-2.0906 1.08266,-3.7706 1.08267,-1.7173 2.912,-2.7253 1.86666,-1.008 4.10666,-1.008 2.27733,0 4.06933,1.008 1.82933,1.008 2.912,2.7253 1.08267,1.68 1.08267,3.7706 0,1.6054 -0.63467,2.688 -0.63467,1.0827 -1.53067,1.7174 -0.89599,0.6346 -1.71733,0.9706 z m -7.80266,-5.3013 q 0,1.008 0.448,1.792 0.48534,0.784 1.30667,1.2693 0.82133,0.448 1.86666,0.448 1.04534,0 1.82933,-0.448 0.82134,-0.4853 1.26934,-1.2693 0.48533,-0.784 0.48533,-1.792 0,-1.4933 -1.04533,-2.464 -1.008,-1.008 -2.53867,-1.008 -1.568,0 -2.61333,1.008 -1.008,0.9707 -1.008,2.464 z m 3.62133,14.448 q 1.792,0 3.024,-1.0827 1.232,-1.12 1.232,-2.688 0,-1.0826 -0.56,-1.9413 -0.56,-0.8587 -1.53067,-1.344 -0.97066,-0.5227 -2.16533,-0.5227 -1.19466,0 -2.16533,0.5227 -0.97066,0.4853 -1.53066,1.344 -0.56,0.8587 -0.56,1.9413 0,1.568 1.232,2.688 1.23199,1.0827 3.02399,1.0827 z" style="fill:#968b41" id="path98974"></path>
      </g>
    </g>
    <g id="g66823" transform="matrix(0.86637548,0,0,0.86637548,9.1475492,-262.77051)">
      <rect style="fill:#f1f1b3;fill-opacity:1;stroke:none;stroke-width:2.64583;stroke-linecap:round;stroke-linejoin:round;stroke-dasharray:none;stroke-opacity:1" id="rect66817" width="20.694244" height="18.626558" x="53.328907" y="361.13895" ry="4.6161537"></rect>
      <g aria-label="9" transform="matrix(0.26458333,0,0,0.26458333,26.291603,29.858072)" id="text66821" style="font-weight:bold;font-size:37.3333px;font-family:Quicksand;-inkscape-font-specification:'Quicksand Bold';text-align:center;text-anchor:middle;white-space:pre;shape-inside:url(#rect66831);display:inline;opacity:1;fill:#f1f1b3;stroke-width:10;stroke-linecap:round;stroke-linejoin:round">
        <path d="m 142.47144,1273.733 q 2.016,0 3.62133,0.8587 1.64267,0.8213 2.76267,2.2773 1.15733,1.456 1.75466,3.2853 0.63467,1.792 0.63467,3.7707 0,1.2693 -0.29867,3.0987 -0.26133,1.8293 -0.97067,3.8826 -0.70933,2.016 -1.97866,3.9574 -1.26933,1.904 -3.248,3.4346 -1.94133,1.5307 -4.77866,2.3147 -0.448,0.112 -0.85867,0.112 -0.85866,0 -1.56799,-0.448 -0.672,-0.4853 -0.672,-1.6427 0,-0.8586 0.52266,-1.456 0.56,-0.5973 1.456,-0.8586 1.71733,-0.5227 3.32266,-1.7174 1.64267,-1.232 2.83734,-2.9493 1.19466,-1.7547 1.60533,-3.808 l 1.008,0.037 q -0.48534,0.5974 -1.26934,1.344 -0.74666,0.7467 -1.86666,1.3067 -1.08267,0.5227 -2.61333,0.5227 -2.464,0 -4.29333,-1.0454 -1.792,-1.0826 -2.8,-3.024 -1.008,-1.9786 -1.008,-4.592 0,-2.352 1.15733,-4.3306 1.19467,-1.9787 3.17333,-3.136 1.97867,-1.1947 4.368,-1.1947 z m 0,4.1067 q -1.19466,0 -2.16533,0.6346 -0.93333,0.5974 -1.49333,1.6427 -0.56,1.008 -0.56,2.2773 0,1.3814 0.52266,2.4267 0.52267,1.008 1.456,1.568 0.97067,0.56 2.24,0.56 1.19467,0 2.128,-0.5973 0.97066,-0.5974 1.53066,-1.6427 0.56,-1.0453 0.56,-2.3147 0,-1.3066 -0.56,-2.3146 -0.56,-1.0454 -1.53066,-1.6427 -0.93333,-0.5973 -2.128,-0.5973 z" style="fill:#968b41" id="path98977"></path>
      </g>
    </g>
  </g>
</svg>
