<svg width="246" height="141" viewBox="0 0 246 141" fill="none" xmlns="http://www.w3.org/2000/svg">
<path fill-rule="evenodd" clip-rule="evenodd" d="M198.136 51.7977C199.215 47.0245 202.877 37.8187 210.1 34.6985C214.854 32.6451 218.299 32.7483 221.232 32.8362C224.122 32.9227 226.515 32.9944 229.173 30.9733C233.458 27.7155 234.557 24.3441 234.571 23.0657L236.11 30.3418L244.089 29.563C241.802 31.8657 239.069 35.8475 239.716 38.1704C240.233 40.0258 242.424 50.9672 240.483 57.5849C238.93 62.879 232.087 69.8856 226.459 71.8402L203.461 56.1417C204.848 57.5616 206.246 59.2864 207.621 61.459C213.719 71.0983 210.162 85.3115 207.621 91.2131H159.84C154.922 84.5737 152.562 71.1967 154.922 63.918C157.873 54.8197 168.939 44 170.981 42.2787C173.539 40.1236 173.522 33.4262 172.703 29L181.234 36.1311L188.686 29C187.703 30.4754 186.326 35.1967 188.686 42.2787C190.151 46.6723 192.948 48.4613 196.326 50.6219C196.913 50.9974 197.518 51.3841 198.136 51.7977ZM107.891 52.0901C108.24 54.2363 108.42 56.4197 108.464 58.5682C109.819 56.4323 111.29 54.974 112.615 53.6614L112.615 53.6613C114.668 51.6259 116.368 49.9406 116.734 46.6215C117.324 41.2714 115.637 38.1523 114.72 37.2615L121.055 41.1577L125.987 34.837C126.08 38.0813 127.085 42.8047 129.214 43.9359C130.915 44.8394 140.356 50.7876 143.817 56.7533C146.585 61.5259 146.95 71.3133 144.49 76.7393L110.81 83.9869C109.401 82.0063 107.447 78.4552 106.318 74.4118C106.106 75.0446 105.886 75.6256 105.661 76.1476H80.3165C76.2615 70.6892 76.667 62.949 77.6808 56.7398C79.1 48.0468 83.5367 39.9602 85.3854 36.7256C86.7506 34.3368 87.9482 28.639 87.2724 25.0001L94.2826 28.8412L100.451 25.0001C99.6403 26.2131 98.5049 30.0946 100.451 35.9169C101.527 39.1351 102.868 41.2069 104.135 43.1637C105.733 45.6322 107.212 47.9175 107.891 52.0901ZM36.6607 80.1476C38.7558 75.2956 40.3964 65.3468 38.891 56.0901C38.2124 51.9175 36.733 49.6322 35.135 47.1637C33.8683 45.2069 32.5271 43.1351 31.4513 39.9169C29.5049 34.0946 30.6403 30.2131 31.4513 29.0001L25.2826 32.8412L18.2724 29.0001C18.9482 32.639 17.7506 38.3368 16.3854 40.7256C14.5367 43.9602 10.1 52.0468 8.68076 60.7398C7.66702 66.949 7.26149 74.6892 11.3165 80.1476H36.6607Z" fill="#554743"/>
<path d="M210.1 34.6985L209.704 33.7805L209.704 33.7805L210.1 34.6985ZM198.136 51.7977L199.111 52.0182C199.039 52.3396 198.812 52.6045 198.506 52.7266C198.2 52.8486 197.854 52.8121 197.58 52.6289L198.136 51.7977ZM221.232 32.8362L221.262 31.8366L221.262 31.8366L221.232 32.8362ZM229.173 30.9733L228.568 30.1772L228.568 30.1772L229.173 30.9733ZM234.571 23.0657L233.571 23.0547C233.576 22.5448 233.965 22.1208 234.472 22.0705C234.98 22.0203 235.444 22.3598 235.549 22.8587L234.571 23.0657ZM236.11 30.3418L236.207 31.3371C235.7 31.3865 235.237 31.0471 235.132 30.5487L236.11 30.3418ZM244.089 29.563L243.992 28.5678C244.412 28.5268 244.812 28.7535 244.993 29.1344C245.173 29.5153 245.096 29.9687 244.799 30.2678L244.089 29.563ZM239.716 38.1704L238.753 38.4386L238.753 38.4386L239.716 38.1704ZM240.483 57.5849L241.443 57.8663L241.443 57.8663L240.483 57.5849ZM226.459 71.8402L226.787 72.7848C226.488 72.8888 226.157 72.8448 225.895 72.6661L226.459 71.8402ZM203.461 56.1417L202.746 56.8403C202.387 56.4726 202.365 55.8926 202.695 55.4989C203.026 55.1052 203.601 55.026 204.025 55.3157L203.461 56.1417ZM207.621 61.459L208.466 60.9244L208.466 60.9244L207.621 61.459ZM207.621 91.2131L208.539 91.6085C208.381 91.9754 208.02 92.2131 207.621 92.2131V91.2131ZM159.84 91.2131V92.2131C159.523 92.2131 159.225 92.0629 159.037 91.8083L159.84 91.2131ZM154.922 63.918L153.971 63.6095L153.971 63.6095L154.922 63.918ZM170.981 42.2787L171.626 43.0434L171.626 43.0434L170.981 42.2787ZM172.703 29L171.719 29.1821C171.643 28.7675 171.834 28.3493 172.198 28.1366C172.562 27.9239 173.02 27.9623 173.344 28.2327L172.703 29ZM181.234 36.1311L181.925 36.8537C181.557 37.2058 180.983 37.2251 180.592 36.8984L181.234 36.1311ZM188.686 29L187.995 28.2775C188.363 27.925 188.938 27.9061 189.329 28.2337C189.719 28.5613 189.801 29.1304 189.518 29.5547L188.686 29ZM188.686 42.2787L187.737 42.5949L187.737 42.5949L188.686 42.2787ZM196.326 50.6219L196.865 49.7794L196.865 49.7794L196.326 50.6219ZM108.464 58.5682L109.309 59.1038C109.072 59.4763 108.62 59.65 108.195 59.5313C107.771 59.4127 107.474 59.0298 107.465 58.5888L108.464 58.5682ZM107.891 52.0901L108.878 51.9295L108.878 51.9295L107.891 52.0901ZM112.615 53.6614L113.343 54.3468C113.335 54.3552 113.327 54.3635 113.319 54.3716L112.615 53.6614ZM112.615 53.6613L111.887 52.976C111.894 52.9675 111.903 52.9592 111.911 52.9511L112.615 53.6613ZM116.734 46.6215L117.728 46.731L117.728 46.731L116.734 46.6215ZM114.72 37.2615L114.023 37.9788C113.658 37.6235 113.618 37.0499 113.931 36.6475C114.244 36.245 114.81 36.1425 115.244 36.4097L114.72 37.2615ZM121.055 41.1577L121.843 41.7729C121.53 42.1744 120.965 42.2763 120.531 42.0095L121.055 41.1577ZM125.987 34.837L125.198 34.2218C125.458 33.8894 125.898 33.7554 126.298 33.8868C126.699 34.0181 126.974 34.3867 126.986 34.8081L125.987 34.837ZM129.214 43.9359L128.745 44.819L128.745 44.819L129.214 43.9359ZM143.817 56.7533L144.682 56.2516L144.682 56.2516L143.817 56.7533ZM144.49 76.7393L145.401 77.1522C145.27 77.4408 145.01 77.6503 144.701 77.7169L144.49 76.7393ZM110.81 83.9869L111.021 84.9645C110.63 85.0485 110.227 84.8921 109.996 84.5667L110.81 83.9869ZM106.318 74.4118L105.369 74.0948C105.509 73.678 105.904 73.4011 106.343 73.4121C106.782 73.4232 107.163 73.7196 107.281 74.1428L106.318 74.4118ZM105.661 76.1476L106.579 76.544C106.421 76.9104 106.06 77.1476 105.661 77.1476V76.1476ZM80.3165 76.1476V77.1476C80.0002 77.1476 79.7025 76.9979 79.5138 76.7439L80.3165 76.1476ZM77.6808 56.7398L76.6938 56.5787L76.6938 56.5787L77.6808 56.7398ZM85.3854 36.7256L84.5171 36.2294L84.5172 36.2294L85.3854 36.7256ZM87.2724 25.0001L86.2892 25.1827C86.2186 24.8029 86.3731 24.4165 86.686 24.19C86.9988 23.9636 87.4142 23.9375 87.7529 24.1231L87.2724 25.0001ZM94.2826 28.8412L94.8112 29.6901C94.5046 29.881 94.1189 29.8917 93.8021 29.7182L94.2826 28.8412ZM100.451 25.0001L99.9227 24.1512C100.323 23.9022 100.842 23.966 101.17 24.3045C101.497 24.643 101.544 25.1643 101.283 25.5559L100.451 25.0001ZM100.451 35.9169L101.4 35.5999L101.4 35.5999L100.451 35.9169ZM104.135 43.1637L104.974 42.6203L104.974 42.6203L104.135 43.1637ZM38.891 56.0901L37.904 56.2506L37.904 56.2506L38.891 56.0901ZM36.6607 80.1476L37.5788 80.544C37.4206 80.9104 37.0597 81.1476 36.6607 81.1476V80.1476ZM35.135 47.1637L35.9745 46.6203L35.9745 46.6203L35.135 47.1637ZM31.4513 39.9169L32.3997 39.5999L32.3997 39.5999L31.4513 39.9169ZM31.4513 29.0001L30.9227 28.1512C31.3226 27.9022 31.8421 27.966 32.1698 28.3045C32.4974 28.643 32.5444 29.1643 32.2826 29.5559L31.4513 29.0001ZM25.2826 32.8412L25.8112 33.6901C25.5046 33.881 25.1189 33.8917 24.8021 33.7182L25.2826 32.8412ZM18.2724 29.0001L17.2892 29.1827C17.2186 28.8029 17.3731 28.4165 17.686 28.19C17.9988 27.9636 18.4142 27.9375 18.7529 28.1231L18.2724 29.0001ZM16.3854 40.7256L15.5171 40.2294L15.5172 40.2294L16.3854 40.7256ZM8.68076 60.7398L7.69382 60.5787L7.69382 60.5787L8.68076 60.7398ZM11.3165 80.1476V81.1476C11.0002 81.1476 10.7025 80.9979 10.5138 80.7439L11.3165 80.1476ZM210.497 35.6165C207.153 37.0609 204.57 39.9469 202.674 43.1389C200.782 46.323 199.632 49.7167 199.111 52.0182L197.161 51.5772C197.719 49.1055 198.939 45.5096 200.954 42.1175C202.965 38.7333 205.824 35.4563 209.704 33.7805L210.497 35.6165ZM221.202 33.8357C218.307 33.749 215.043 33.6527 210.497 35.6165L209.704 33.7805C214.665 31.6376 218.291 31.7476 221.262 31.8366L221.202 33.8357ZM229.778 31.7693C226.813 34.0239 224.087 33.9221 221.202 33.8357L221.262 31.8366C224.156 31.9233 226.217 31.9648 228.568 30.1772L229.778 31.7693ZM235.571 23.0766C235.552 24.743 234.237 28.3787 229.778 31.7693L228.568 30.1772C232.678 27.0523 233.561 23.9453 233.571 23.0547L235.571 23.0766ZM235.132 30.5487L233.592 23.2726L235.549 22.8587L237.088 30.1348L235.132 30.5487ZM244.186 30.5583L236.207 31.3371L236.013 29.3465L243.992 28.5678L244.186 30.5583ZM238.753 38.4386C238.525 37.6193 238.613 36.737 238.84 35.9059C239.07 35.0657 239.462 34.2 239.932 33.3676C240.87 31.7039 242.183 30.0624 243.38 28.8583L244.799 30.2678C243.707 31.3663 242.511 32.8671 241.673 34.3506C241.255 35.0919 240.942 35.801 240.77 36.4327C240.595 37.0735 240.584 37.56 240.68 37.9021L238.753 38.4386ZM239.524 57.3034C240.438 54.1869 240.393 49.957 240.026 46.1887C239.661 42.4411 238.993 39.3005 238.753 38.4386L240.68 37.9021C240.956 38.8957 241.642 42.1535 242.017 45.9947C242.389 49.8155 242.47 54.3651 241.443 57.8663L239.524 57.3034ZM226.131 70.8955C228.748 69.9866 231.739 67.8587 234.285 65.2644C236.836 62.6652 238.812 59.7291 239.524 57.3034L241.443 57.8663C240.601 60.7347 238.379 63.949 235.713 66.6653C233.042 69.3865 229.798 71.7392 226.787 72.7848L226.131 70.8955ZM204.025 55.3157L227.023 71.0143L225.895 72.6661L202.897 56.9676L204.025 55.3157ZM206.775 61.9936C205.438 59.8794 204.083 58.2096 202.746 56.8403L204.177 55.443C205.613 56.9135 207.054 58.6935 208.466 60.9244L206.775 61.9936ZM206.702 90.8176C207.934 87.9562 209.429 83.0335 209.864 77.657C210.299 72.2704 209.662 66.5565 206.775 61.9936L208.466 60.9244C211.677 66.0009 212.311 72.2132 211.857 77.8183C211.403 83.4337 209.848 88.5684 208.539 91.6085L206.702 90.8176ZM159.84 90.2131H207.621V92.2131H159.84V90.2131ZM155.873 64.2265C154.764 67.6465 154.741 72.6259 155.636 77.6291C156.53 82.6257 158.309 87.4656 160.644 90.6179L159.037 91.8083C156.454 88.3212 154.593 83.153 153.667 77.9815C152.743 72.8167 152.72 67.4683 153.971 63.6095L155.873 64.2265ZM171.626 43.0434C170.657 43.86 167.42 46.9519 164.06 50.9732C160.686 55.0103 157.287 59.8681 155.873 64.2265L153.971 63.6095C155.508 58.8696 159.117 53.7684 162.525 49.6907C165.946 45.5973 169.263 42.4187 170.337 41.514L171.626 43.0434ZM173.686 28.8179C174.109 31.1042 174.327 33.976 174.105 36.5761C173.994 37.8767 173.77 39.1413 173.39 40.2435C173.012 41.3368 172.454 42.345 171.626 43.0434L170.337 41.514C170.787 41.1349 171.186 40.4977 171.499 39.5908C171.809 38.6929 172.01 37.6024 172.112 36.406C172.316 34.0121 172.116 31.322 171.719 29.1821L173.686 28.8179ZM180.592 36.8984L172.061 29.7673L173.344 28.2327L181.875 35.3639L180.592 36.8984ZM189.378 29.7225L181.925 36.8537L180.542 35.4086L187.995 28.2775L189.378 29.7225ZM187.737 42.5949C185.307 35.3047 186.655 30.2435 187.854 28.4453L189.518 29.5547C188.75 30.7073 187.344 35.0887 189.635 41.9625L187.737 42.5949ZM195.787 51.4643C192.413 49.3061 189.324 47.3545 187.737 42.5949L189.635 41.9625C190.977 45.99 193.483 47.6164 196.865 49.7794L195.787 51.4643ZM197.58 52.6289C196.972 52.2219 196.375 51.8405 195.787 51.4643L196.865 49.7794C197.451 50.1542 198.064 50.5463 198.692 50.9665L197.58 52.6289ZM107.465 58.5888C107.421 56.4814 107.245 54.3452 106.904 52.2506L108.878 51.9295C109.235 54.1274 109.419 56.3579 109.464 58.5475L107.465 58.5888ZM113.319 54.3716C111.995 55.6837 110.597 57.0726 109.309 59.1038L107.62 58.0325C109.041 55.7919 110.586 54.2644 111.911 52.9512L113.319 54.3716ZM113.343 54.3467L113.343 54.3468L111.886 52.9761L111.887 52.976L113.343 54.3467ZM117.728 46.731C117.32 50.4337 115.369 52.3394 113.319 54.3716L111.911 52.9511C113.967 50.9125 115.417 49.4475 115.74 46.5119L117.728 46.731ZM115.417 36.5441C116.612 37.7052 118.342 41.1628 117.728 46.731L115.74 46.5119C116.306 41.38 114.662 38.5993 114.023 37.9788L115.417 36.5441ZM120.531 42.0095L114.196 38.1132L115.244 36.4097L121.579 40.3059L120.531 42.0095ZM126.775 35.4521L121.843 41.7729L120.267 40.5425L125.198 34.2218L126.775 35.4521ZM128.745 44.819C127.994 44.42 127.416 43.748 126.969 43.0111C126.518 42.2661 126.161 41.3856 125.881 40.4716C125.322 38.6449 125.036 36.5624 124.987 34.8658L126.986 34.8081C127.031 36.3559 127.295 38.2573 127.793 39.8861C128.043 40.7 128.341 41.4152 128.68 41.9753C129.024 42.5435 129.37 42.8862 129.683 43.0527L128.745 44.819ZM142.952 57.255C141.322 54.4456 138.225 51.564 135.241 49.2346C132.272 46.9178 129.535 45.2387 128.745 44.819L129.683 43.0527C130.594 43.5366 133.429 45.2833 136.471 47.6579C139.497 50.0199 142.851 53.0953 144.682 56.2516L142.952 57.255ZM143.579 76.3265C144.723 73.8032 145.241 70.169 145.114 66.5362C144.987 62.8965 144.22 59.4418 142.952 57.255L144.682 56.2516C146.181 58.8374 146.98 62.6627 147.113 66.4664C147.246 70.277 146.717 74.2494 145.401 77.1522L143.579 76.3265ZM110.6 83.0093L144.28 75.7617L144.701 77.7169L111.021 84.9645L110.6 83.0093ZM107.281 74.1428C108.375 78.0608 110.274 81.5081 111.625 83.4071L109.996 84.5667C108.528 82.5045 106.519 78.8496 105.355 74.6808L107.281 74.1428ZM104.743 75.7512C104.955 75.2589 105.165 74.7048 105.369 74.0948L107.266 74.7288C107.047 75.3844 106.817 75.9923 106.579 76.544L104.743 75.7512ZM80.3165 75.1476H105.661V77.1476H80.3165V75.1476ZM78.6677 56.901C77.6544 63.1073 77.3352 70.4576 81.1193 75.5512L79.5138 76.7439C75.1877 70.9207 75.6796 62.7908 76.6938 56.5787L78.6677 56.901ZM86.2536 37.2218C84.4106 40.4466 80.0558 48.399 78.6677 56.901L76.6938 56.5787C78.1443 47.6946 82.6629 39.4738 84.5171 36.2294L86.2536 37.2218ZM88.2555 24.8175C88.6241 26.8021 88.475 29.2689 88.0789 31.506C87.684 33.737 87.0172 35.8857 86.2536 37.2218L84.5172 36.2294C85.1188 35.1767 85.7334 33.2821 86.1096 31.1573C86.4847 29.0386 86.5964 26.837 86.2892 25.1827L88.2555 24.8175ZM93.8021 29.7182L86.7918 25.8771L87.7529 24.1231L94.7632 27.9642L93.8021 29.7182ZM100.98 25.849L94.8112 29.6901L93.7541 27.9923L99.9227 24.1512L100.98 25.849ZM99.5029 36.234C97.4866 30.2028 98.5929 25.9804 99.62 24.4443L101.283 25.5559C100.688 26.4457 99.5231 29.9864 101.4 35.5999L99.5029 36.234ZM103.296 43.7071C102.023 41.7411 100.621 39.5798 99.5029 36.234L101.4 35.5999C102.433 38.6904 103.714 40.6728 104.974 42.6203L103.296 43.7071ZM106.904 52.2506C106.26 48.292 104.878 46.1514 103.296 43.7071L104.974 42.6203C106.588 45.113 108.165 47.5431 108.878 51.9295L106.904 52.2506ZM39.878 55.9295C41.4119 65.3609 39.7549 75.5045 37.5788 80.544L35.7426 79.7512C37.7567 75.0868 39.381 65.3326 37.904 56.2506L39.878 55.9295ZM35.9745 46.6203C37.5881 49.113 39.1646 51.5431 39.878 55.9295L37.904 56.2506C37.2602 52.292 35.8778 50.1514 34.2956 47.7071L35.9745 46.6203ZM32.3997 39.5999C33.4328 42.6904 34.7138 44.6728 35.9745 46.6203L34.2956 47.7071C33.0228 45.7411 31.6214 43.5798 30.5029 40.234L32.3997 39.5999ZM32.2826 29.5559C31.6877 30.4457 30.5231 33.9864 32.3997 39.5999L30.5029 40.234C28.4866 34.2028 29.5929 29.9804 30.62 28.4443L32.2826 29.5559ZM24.7541 31.9923L30.9227 28.1512L31.9799 29.849L25.8112 33.6901L24.7541 31.9923ZM18.7529 28.1231L25.7632 31.9642L24.8021 33.7182L17.7918 29.8771L18.7529 28.1231ZM15.5172 40.2294C16.1188 39.1767 16.7334 37.2821 17.1096 35.1573C17.4847 33.0386 17.5964 30.837 17.2892 29.1827L19.2555 28.8175C19.6241 30.8021 19.475 33.2689 19.0789 35.506C18.684 37.737 18.0172 39.8857 17.2536 41.2218L15.5172 40.2294ZM7.69382 60.5787C9.14428 51.6946 13.6629 43.4738 15.5171 40.2294L17.2536 41.2218C15.4106 44.4466 11.0558 52.399 9.66769 60.901L7.69382 60.5787ZM10.5138 80.7439C6.18773 74.9207 6.67962 66.7908 7.69382 60.5787L9.66769 60.901C8.65443 67.1073 8.33525 74.4576 12.1193 79.5512L10.5138 80.7439ZM36.6607 81.1476H11.3165V79.1476H36.6607V81.1476Z" fill="#291711"/>
<path d="M156.044 46.9215C154.058 46.4258 151.813 45.6161 150.552 43.763C146.38 41.8904 147.434 37.4135 146.55 34.7399C145.843 32.601 149.123 32.43 150.851 32.6118C149.163 32.0519 145.84 30.4214 146.054 28.3796C146.269 26.3377 149.839 25.6237 151.597 25.5219C150.571 25.1272 148.648 23.6632 149.164 20.9649C149.681 18.2666 152.479 18.064 153.813 18.3C153.81 16.4837 154.577 12.7029 157.668 12.1106C160.759 11.5183 165.266 14.6305 167.134 16.2607C168.378 17.3474 170.647 19.9565 169.765 21.6988C168.883 23.4411 166.682 24.2418 165.692 24.4243C166.573 25.2816 168.177 27.3811 167.549 28.9207C166.921 30.4604 164.996 31.0416 164.112 31.1397C164.492 32.1356 165.218 34.4675 165.075 35.8288C164.896 37.5304 162.114 41.8255 161.359 43.4664C160.604 45.1074 158.031 47.4173 156.044 46.9215Z" fill="#186EAC" stroke="#291711" stroke-width="2" stroke-linejoin="round"/>
<path d="M38.5 42.5C40.0001 40.5 44.4999 31.6667 48.4999 29C52.9997 34 52 47 44 55C36 63 28.099 61 23 61C21.5 61 17.5 58 18 53.5C18.5 49 25.9999 49 28.9999 49.5C31.9999 50 36.6025 45.0297 38.5 42.5Z" fill="#9626A8" stroke="#291711" stroke-width="2" stroke-linejoin="round"/>
<path d="M86.0608 38.731C84.7508 36.9931 80.8214 29.3172 77.3284 27C73.3989 31.3448 74.272 42.6414 81.258 49.5931C88.244 56.5448 95.1435 54.8069 99.5962 54.8069C100.906 54.8069 104.399 52.2 103.962 48.2897C103.526 44.3793 96.9766 44.3793 94.3568 44.8138C91.7371 45.2483 87.7178 40.9293 86.0608 38.731Z" fill="#26A833" stroke="#291711" stroke-width="2" stroke-linejoin="round"/>
<path fill-rule="evenodd" clip-rule="evenodd" d="M185.97 109.122C186.217 109.783 186.468 110.41 186.723 111H238.256C246.502 99.9012 245.677 84.1629 243.616 71.5376C240.73 53.8617 231.709 37.419 227.95 30.8419C225.174 25.9847 222.739 14.3992 224.113 7L209.859 14.8103L197.316 7C198.965 9.4664 201.273 17.3589 197.316 29.1976C195.128 35.7412 192.401 39.954 189.825 43.9327C186.576 48.952 183.568 53.5989 182.188 62.083C181.122 68.6401 180.832 75.368 181.087 81.769C178.206 77.0137 175.029 73.864 172.184 71.0446C168.009 66.906 164.552 63.4792 163.808 56.7303C162.609 45.8518 166.038 39.5095 167.903 37.6982L155.022 45.6206L144.994 32.7685C144.804 39.3653 142.762 48.9696 138.432 51.2696C135.255 52.9572 118.796 63.301 110.685 74.3767C101.885 58.5593 85.7944 42.9054 82.3467 40C77.1468 35.6181 77.18 22 78.8467 13L61.5 27.5L46.3467 13C48.3467 16 51.1467 25.6 46.3467 40C43.3688 48.9336 37.6813 52.5712 30.8125 56.9645C23.8415 61.423 15.6538 66.6597 7.84668 79C-4.55332 98.6 2.68001 127.5 7.84668 139.5H105C108.836 134.321 111.907 127.126 113.964 119.389L175.853 132.707C179.189 128.019 184.025 119.005 185.97 109.122Z" fill="#A38A82"/>
<path d="M186.723 111L185.805 111.396C185.963 111.763 186.324 112 186.723 112V111ZM185.97 109.122L186.907 108.772C186.75 108.353 186.335 108.089 185.889 108.125C185.443 108.161 185.075 108.49 184.989 108.929L185.97 109.122ZM238.256 111V112C238.573 112 238.87 111.85 239.059 111.596L238.256 111ZM243.616 71.5376L242.629 71.6987L242.629 71.6987L243.616 71.5376ZM227.95 30.8419L228.818 30.3457L228.818 30.3457L227.95 30.8419ZM224.113 7L225.096 7.1826C225.166 6.80286 225.012 6.41645 224.699 6.18997C224.386 5.96348 223.971 5.93742 223.632 6.12302L224.113 7ZM209.859 14.8103L209.33 15.6592C209.637 15.8501 210.022 15.8608 210.339 15.6873L209.859 14.8103ZM197.316 7L197.844 6.15112C197.444 5.9021 196.925 5.96597 196.597 6.30445C196.269 6.64292 196.222 7.16419 196.484 7.55582L197.316 7ZM197.316 29.1976L196.367 28.8806L196.367 28.8806L197.316 29.1976ZM189.825 43.9327L188.986 43.3893L188.986 43.3893L189.825 43.9327ZM182.188 62.083L183.175 62.2435L183.175 62.2435L182.188 62.083ZM181.087 81.769L180.231 82.287C180.468 82.6772 180.938 82.858 181.375 82.7266C181.812 82.5952 182.104 82.1849 182.086 81.7292L181.087 81.769ZM172.184 71.0446L171.48 71.7549L171.48 71.7549L172.184 71.0446ZM163.808 56.7303L164.802 56.6207L164.802 56.6207L163.808 56.7303ZM167.903 37.6982L168.6 38.4156C168.966 38.0603 169.006 37.4867 168.693 37.0842C168.379 36.6818 167.814 36.5793 167.379 36.8464L167.903 37.6982ZM155.022 45.6206L154.234 46.2358C154.547 46.6373 155.112 46.7392 155.546 46.4724L155.022 45.6206ZM144.994 32.7685L145.783 32.1533C145.523 31.8209 145.083 31.6869 144.683 31.8182C144.282 31.9496 144.007 32.3182 143.995 32.7396L144.994 32.7685ZM138.432 51.2696L138.901 52.1527L138.901 52.1527L138.432 51.2696ZM110.685 74.3767L109.811 74.8629C109.976 75.1607 110.282 75.3536 110.622 75.3748C110.963 75.396 111.29 75.2425 111.491 74.9676L110.685 74.3767ZM82.3467 40L82.9911 39.2353L82.9911 39.2353L82.3467 40ZM78.8467 13L79.83 13.1821C79.9067 12.7675 79.7152 12.3493 79.3512 12.1366C78.9872 11.9239 78.5288 11.9623 78.2053 12.2327L78.8467 13ZM61.5 27.5L60.8086 28.2225C61.1767 28.5747 61.7505 28.5939 62.1413 28.2673L61.5 27.5ZM46.3467 13L47.038 12.2775C46.6696 11.925 46.095 11.9061 45.7042 12.2337C45.3135 12.5613 45.2318 13.1304 45.5146 13.5547L46.3467 13ZM46.3467 40L47.2954 40.3162L47.2954 40.3162L46.3467 40ZM30.8125 56.9645L31.3513 57.8069L31.3513 57.8069L30.8125 56.9645ZM7.84668 79L8.69176 79.5346L8.69176 79.5346L7.84668 79ZM7.84668 139.5L6.9282 139.895C7.08615 140.262 7.44726 140.5 7.84668 140.5V139.5ZM105 139.5V140.5C105.317 140.5 105.615 140.35 105.804 140.095L105 139.5ZM113.964 119.389L114.175 118.411C113.653 118.299 113.135 118.616 112.998 119.132L113.964 119.389ZM175.853 132.707L175.643 133.684C176.033 133.768 176.436 133.612 176.668 133.286L175.853 132.707ZM187.641 110.604C187.394 110.03 187.149 109.419 186.907 108.772L185.033 109.471C185.285 110.147 185.543 110.79 185.805 111.396L187.641 110.604ZM238.256 110H186.723V112H238.256V110ZM242.629 71.6987C244.69 84.3211 245.428 99.6697 237.454 110.404L239.059 111.596C247.575 100.133 246.664 84.0046 244.603 71.3764L242.629 71.6987ZM227.081 31.3381C230.835 37.9053 239.774 54.2139 242.629 71.6987L244.603 71.3764C241.686 53.5095 232.582 36.9326 228.818 30.3457L227.081 31.3381ZM223.13 6.8174C222.412 10.6821 222.696 15.5609 223.49 20.0485C224.284 24.5301 225.612 28.7678 227.081 31.3381L228.818 30.3457C227.511 28.0588 226.234 24.0751 225.46 19.6999C224.686 15.3306 224.44 10.7171 225.096 7.1826L223.13 6.8174ZM210.339 15.6873L224.593 7.87698L223.632 6.12302L209.378 13.9333L210.339 15.6873ZM196.787 7.84888L209.33 15.6592L210.387 13.9614L197.844 6.15112L196.787 7.84888ZM198.264 29.5147C202.292 17.4671 200.012 9.23377 198.147 6.44418L196.484 7.55582C197.917 9.69903 200.255 17.2507 196.367 28.8806L198.264 29.5147ZM190.665 44.4762C193.246 40.4881 196.034 36.186 198.264 29.5147L196.367 28.8806C194.222 35.2965 191.555 39.4199 188.986 43.3893L190.665 44.4762ZM183.175 62.2435C184.52 53.9733 187.431 49.4712 190.665 44.4762L188.986 43.3893C185.721 48.4328 182.616 53.2245 181.201 61.9225L183.175 62.2435ZM182.086 81.7292C181.833 75.3839 182.121 68.7242 183.175 62.2435L181.201 61.9225C180.122 68.556 179.83 75.352 180.087 81.8088L182.086 81.7292ZM171.48 71.7549C174.323 74.5724 177.421 77.647 180.231 82.287L181.942 81.2509C178.992 76.3804 175.735 73.1556 172.888 70.3344L171.48 71.7549ZM162.814 56.8398C163.6 63.9722 167.308 67.6194 171.48 71.7549L172.888 70.3344C168.71 66.1926 165.503 62.9861 164.802 56.6207L162.814 56.8398ZM167.207 36.9809C165.063 39.0625 161.591 45.7432 162.814 56.8398L164.802 56.6207C163.627 45.9603 167.013 39.9566 168.6 38.4156L167.207 36.9809ZM155.546 46.4724L168.427 38.55L167.379 36.8464L154.499 44.7688L155.546 46.4724ZM144.206 33.3836L154.234 46.2358L155.811 45.0054L145.783 32.1533L144.206 33.3836ZM138.901 52.1527C140.202 51.4615 141.258 50.2653 142.113 48.854C142.972 47.4347 143.668 45.7297 144.222 43.9231C145.328 40.3109 145.897 36.1701 145.994 32.7973L143.995 32.7396C143.902 35.9636 143.355 39.9233 142.309 43.3376C141.787 45.0441 141.149 46.5838 140.402 47.8182C139.649 49.0608 138.826 49.9276 137.963 50.3864L138.901 52.1527ZM111.491 74.9676C115.461 69.547 121.512 64.2616 127.012 60.1C132.506 55.9424 137.37 52.9658 138.901 52.1527L137.963 50.3864C136.316 51.261 131.362 54.3001 125.805 58.5052C120.253 62.7063 114.019 68.1307 109.878 73.7859L111.491 74.9676ZM81.7023 40.7647C85.0996 43.6276 101.092 59.1909 109.811 74.8629L111.558 73.8906C102.678 57.9278 86.4893 42.1833 82.9911 39.2353L81.7023 40.7647ZM77.8634 12.8179C77.0165 17.3911 76.5832 23.1364 77.0254 28.3168C77.2465 30.9076 77.6891 33.3889 78.4265 35.5246C79.1607 37.6513 80.2129 39.5096 81.7023 40.7647L82.9911 39.2353C81.8805 38.2995 80.9869 36.8122 80.317 34.8719C79.6502 32.9405 79.2303 30.6332 79.0181 28.1467C78.5936 23.1726 79.0102 17.6089 79.83 13.1821L77.8634 12.8179ZM62.1413 28.2673L79.488 13.7673L78.2053 12.2327L60.8587 26.7327L62.1413 28.2673ZM45.6553 13.7225L60.8086 28.2225L62.1914 26.7775L47.038 12.2775L45.6553 13.7225ZM47.2954 40.3162C52.1648 25.708 49.3939 15.7681 47.1787 12.4453L45.5146 13.5547C47.2994 16.2319 50.1286 25.492 45.398 39.6838L47.2954 40.3162ZM31.3513 57.8069C38.2163 53.4161 44.1955 49.6159 47.2954 40.3162L45.398 39.6838C42.5421 48.2514 37.1464 51.7264 30.2736 56.122L31.3513 57.8069ZM8.69176 79.5346C16.3782 67.3852 24.4124 62.2449 31.3513 57.8069L30.2736 56.122C23.2707 60.601 14.9295 65.9342 7.0016 78.4654L8.69176 79.5346ZM8.76516 139.105C6.2203 133.194 3.15043 123.075 2.25592 112.019C1.36059 100.954 2.65426 89.0778 8.69176 79.5346L7.0016 78.4654C0.639107 88.5222 -0.650565 100.896 0.262438 112.181C1.17627 123.475 4.30639 133.806 6.9282 139.895L8.76516 139.105ZM105 138.5H7.84668V140.5H105V138.5ZM112.998 119.132C110.96 126.795 107.933 133.861 104.196 138.905L105.804 140.095C109.74 134.782 112.854 127.457 114.931 119.646L112.998 119.132ZM176.064 131.729L114.175 118.411L113.754 120.366L175.643 133.684L176.064 131.729ZM184.989 108.929C183.077 118.643 178.312 127.527 175.039 132.127L176.668 133.286C180.067 128.511 184.973 119.367 186.951 109.315L184.989 108.929Z" fill="#291711"/>
<path d="M196.5 52C195.3 50.8 198 44.1667 199.5 41C200.61 38.5 207 46.5 208 47C209 47.5 217.5 44.5 218.5 45C219.5 45.5 218.5 53 217.5 55.5C216.5 58 207 51 206 50.5C205 50 198 53.5 196.5 52Z" fill="#A20D16" stroke="#291711" stroke-width="2" stroke-linejoin="round"/>
<circle cx="55" cy="36" r="2" fill="#291711"/>
<circle cx="69" cy="36" r="2" fill="#291711"/>
<circle cx="147" cy="49" r="2" fill="#291711"/>
<circle cx="158" cy="51" r="2" fill="#291711"/>
<circle cx="204" cy="25" r="2" fill="#291711"/>
<circle cx="218" cy="25" r="2" fill="#291711"/>
<path d="M68.5761 6.42759C72.5761 4.42759 75.9093 10.5942 77.076 14.4275C75.876 20.8274 68.4094 23.8333 66.0761 25C62.5761 28 68.7379 35.4264 63.5 32.5C50.0759 25 52.8334 21.8333 49.5 17C48.5 14.5 47.8759 8.42751 51.0759 6.42759C53.3555 5.00291 54.7555 7.38422 55.4928 9.95648C55.8332 8.73988 56.9553 7.43558 59.576 6.42759C63.1094 5.06854 64.8421 7.17253 65.5898 9.60202C65.9009 8.49079 66.7547 7.33825 68.5761 6.42759Z" fill="#BBAB1A"/>
<path d="M77.076 14.4275C75.9093 10.5942 72.5761 4.42759 68.5761 6.42759C64.5761 8.42759 65.2427 11.5943 66.0761 12.9277C66.076 9.92761 64.776 4.42754 59.576 6.42759C54.376 8.42764 55.076 11.5943 56.076 12.9277C55.7426 9.92767 54.2759 4.42768 51.0759 6.42759C47.8759 8.42751 48.5 14.5 49.5 17C52.8334 21.8333 50.0759 25 63.5 32.5C68.7379 35.4264 62.5761 28 66.0761 25C68.4094 23.8333 75.876 20.8274 77.076 14.4275Z" stroke="#291711" stroke-width="2" stroke-linejoin="round"/>
<path d="M196 16.208C196 18.2648 199.294 18.1051 202.444 17.8341C206.31 18.6472 224.783 16.208 226.072 16.208C227.361 16.208 226.931 13.3622 226.931 11.7362C226.931 10.1101 220.665 10.6851 220.058 10.1101C218.769 8.89059 219.628 5.2318 219.199 3.19917C218.769 1.16654 214.473 0.353437 206.31 1.57302C198.148 2.79259 202.444 8.89054 202.014 10.1101C201.585 11.3297 201.155 11.7362 198.577 11.7362C196 11.7362 196 13.7685 196 16.2074V16.208Z" fill="#0E0202" stroke="#291711" stroke-width="2" stroke-linejoin="round"/>
</svg>
