<svg width="100" height="100" viewBox="0 0 100 100" fill="none"
  xmlns="http://www.w3.org/2000/svg">
  <mask id="mask0_144_382" style="mask-type:alpha" maskUnits="userSpaceOnUse" x="0" y="0" width="100" height="100">
    <path d="M100 50C100 77.6142 77.6142 100 50 100C22.3858 100 0 77.6142 0 50C0 22.3858 22.3858 0 50 0C77.6142 0 100 22.3858 100 50Z" fill="#D9D9D9"/>
  </mask>
  <g mask="url(#mask0_144_382)">
    <path d="M158 86C158 141.781 112.781 187 57 187C1.21924 187 -44 141.781 -44 86C-44 30.2192 1.21924 -15 57 -15C112.781 -15 158 30.2192 158 86Z" fill="#DCBFAF"/>
    <path fill-rule="evenodd" clip-rule="evenodd" d="M83 95.0179H10V93.0179H83V95.0179Z" fill="#794848"/>
    <path fill-rule="evenodd" clip-rule="evenodd" d="M83 88.951H10V87.951H83V88.951Z" fill="#794848"/>
    <path fill-rule="evenodd" clip-rule="evenodd" d="M83 83.3841H10V82.3841H83V83.3841Z" fill="#794848"/>
    <path fill-rule="evenodd" clip-rule="evenodd" d="M83 77.3889H10V76.3889H83V77.3889Z" fill="#794848"/>
    <path fill-rule="evenodd" clip-rule="evenodd" d="M83 71.3939H10V70.3939H83V71.3939Z" fill="#794848"/>
    <path fill-rule="evenodd" clip-rule="evenodd" d="M83 66.2551H10V65.2551H83V66.2551Z" fill="#794848"/>
    <path fill-rule="evenodd" clip-rule="evenodd" d="M83 59.4753H10V57.4753H83V59.4753Z" fill="#794848"/>
    <path fill-rule="evenodd" clip-rule="evenodd" d="M83 53.4084H10V52.4084H83V53.4084Z" fill="#794848"/>
    <path fill-rule="evenodd" clip-rule="evenodd" d="M83 47.8415H10V46.8415H83V47.8415Z" fill="#794848"/>
    <path fill-rule="evenodd" clip-rule="evenodd" d="M83 41.8463H10V40.8463H83V41.8463Z" fill="#794848"/>
    <path fill-rule="evenodd" clip-rule="evenodd" d="M83 35.8511H10V34.8511H83V35.8511Z" fill="#794848"/>
    <path fill-rule="evenodd" clip-rule="evenodd" d="M83 30.7125H10V29.7125H83V30.7125Z" fill="#794848"/>
    <path fill-rule="evenodd" clip-rule="evenodd" d="M83 24.8055H10V22.8055H83V24.8055Z" fill="#794848"/>
    <path fill-rule="evenodd" clip-rule="evenodd" d="M83 18.7386H10V17.7386H83V18.7386Z" fill="#794848"/>
    <path fill-rule="evenodd" clip-rule="evenodd" d="M83 13.1716H10V12.1716H83V13.1716Z" fill="#794848"/>
    <path fill-rule="evenodd" clip-rule="evenodd" d="M83 7.17645H10V6.17645H83V7.17645Z" fill="#794848"/>
    <path fill-rule="evenodd" clip-rule="evenodd" d="M83 1.1814H10V0.181396H83V1.1814Z" fill="#794848"/>
    <path d="M86.582 24.56C86.646 24.56 86.6993 24.5814 86.742 24.624C86.7846 24.6667 86.806 24.72 86.806 24.784C86.806 24.8454 86.7846 24.8974 86.742 24.94C86.6993 24.98 86.646 25 86.582 25H85.222C85.1526 25 85.098 24.9787 85.058 24.936C85.018 24.8934 84.998 24.8387 84.998 24.772C84.998 24.7054 85.022 24.6467 85.07 24.596L85.942 23.664C86.0406 23.5574 86.118 23.448 86.174 23.336C86.2326 23.224 86.262 23.1267 86.262 23.044C86.262 22.9107 86.2233 22.804 86.146 22.724C86.0686 22.6414 85.966 22.6 85.838 22.6C85.7873 22.6 85.7353 22.612 85.682 22.636C85.6286 22.66 85.5766 22.6934 85.526 22.736C85.478 22.7787 85.4326 22.828 85.39 22.884C85.358 22.9267 85.326 22.9534 85.294 22.964C85.262 22.9747 85.2326 22.98 85.206 22.98C85.1473 22.98 85.0926 22.9587 85.042 22.916C84.994 22.8707 84.97 22.8187 84.97 22.76C84.97 22.7147 84.9846 22.6707 85.014 22.628C85.046 22.5854 85.0846 22.5414 85.13 22.496C85.1966 22.4294 85.2713 22.3707 85.354 22.32C85.4366 22.2694 85.522 22.2307 85.61 22.204C85.698 22.1747 85.7833 22.16 85.866 22.16C86.0446 22.16 86.1993 22.196 86.33 22.268C86.4633 22.3374 86.566 22.4374 86.638 22.568C86.71 22.696 86.746 22.848 86.746 23.024C86.746 23.1707 86.702 23.3347 86.614 23.516C86.5286 23.6947 86.4126 23.8627 86.266 24.02L85.726 24.596L85.682 24.56H86.582Z" fill="#7A4949"/>
    <path d="M87.8953 22.604C87.8953 22.692 87.87 22.7814 87.8193 22.872C87.7713 22.96 87.7073 23.0347 87.6273 23.096C87.55 23.1547 87.4673 23.184 87.3793 23.184C87.35 23.184 87.318 23.172 87.2833 23.148C87.2513 23.124 87.2353 23.0827 87.2353 23.024C87.2353 22.9627 87.254 22.9267 87.2913 22.916C87.3313 22.9027 87.3646 22.8894 87.3913 22.876C87.426 22.8574 87.4526 22.836 87.4713 22.812C87.4926 22.7854 87.5033 22.7534 87.5033 22.716C87.5033 22.6867 87.4886 22.6614 87.4593 22.64C87.4326 22.616 87.3966 22.604 87.3513 22.604C87.3353 22.604 87.3166 22.6067 87.2953 22.612C87.274 22.6147 87.2553 22.6214 87.2393 22.632C87.2126 22.6187 87.1886 22.6027 87.1673 22.584C87.1486 22.5627 87.1393 22.5294 87.1393 22.484C87.1393 22.4014 87.1766 22.3307 87.2513 22.272C87.3286 22.2107 87.418 22.18 87.5193 22.18C87.634 22.18 87.7246 22.2187 87.7913 22.296C87.8606 22.3734 87.8953 22.476 87.8953 22.604Z" fill="#7A4949"/>
    <path d="M89.1087 25.04C88.9647 25.04 88.8341 25.0107 88.7167 24.952C88.6021 24.8907 88.5034 24.808 88.4207 24.704C88.3407 24.6 88.2781 24.4827 88.2327 24.352C88.1901 24.2214 88.1687 24.0867 88.1687 23.948C88.1687 23.8574 88.1781 23.748 88.1967 23.62C88.2181 23.492 88.2541 23.3574 88.3047 23.216C88.3554 23.0747 88.4261 22.9374 88.5167 22.804C88.6074 22.6707 88.7221 22.5507 88.8607 22.444C89.0021 22.3374 89.1741 22.256 89.3767 22.2C89.4087 22.192 89.4394 22.188 89.4687 22.188C89.5301 22.188 89.5847 22.204 89.6327 22.236C89.6834 22.268 89.7087 22.3267 89.7087 22.412C89.7087 22.4707 89.6887 22.5227 89.6487 22.568C89.6114 22.6107 89.5607 22.6414 89.4967 22.66C89.4061 22.6867 89.3154 22.7267 89.2247 22.78C89.1367 22.8307 89.0541 22.8934 88.9767 22.968C88.9021 23.0427 88.8367 23.128 88.7807 23.224C88.7274 23.3174 88.6887 23.4187 88.6647 23.528L88.5567 23.524C88.5941 23.4787 88.6394 23.4307 88.6927 23.38C88.7487 23.3267 88.8154 23.2814 88.8927 23.244C88.9727 23.204 89.0661 23.184 89.1727 23.184C89.2767 23.184 89.3794 23.208 89.4807 23.256C89.5847 23.304 89.6781 23.3707 89.7607 23.456C89.8461 23.5387 89.9141 23.6374 89.9647 23.752C90.0154 23.864 90.0407 23.984 90.0407 24.112C90.0407 24.2827 89.9981 24.4387 89.9127 24.58C89.8301 24.7214 89.7181 24.8334 89.5767 24.916C89.4381 24.9987 89.2821 25.04 89.1087 25.04ZM89.1087 24.6C89.1941 24.6 89.2701 24.5787 89.3367 24.536C89.4061 24.4934 89.4607 24.4347 89.5007 24.36C89.5407 24.2854 89.5607 24.2027 89.5607 24.112C89.5607 24.0187 89.5407 23.936 89.5007 23.864C89.4607 23.7894 89.4061 23.7307 89.3367 23.688C89.2701 23.6454 89.1941 23.624 89.1087 23.624C89.0234 23.624 88.9461 23.6454 88.8767 23.688C88.8101 23.7307 88.7567 23.7894 88.7167 23.864C88.6767 23.936 88.6567 24.0187 88.6567 24.112C88.6567 24.2027 88.6767 24.2854 88.7167 24.36C88.7567 24.4347 88.8101 24.4934 88.8767 24.536C88.9461 24.5787 89.0234 24.6 89.1087 24.6Z" fill="#7A4949"/>
    <path d="M91.0477 22.604C91.0477 22.692 91.0223 22.7814 90.9717 22.872C90.9237 22.96 90.8597 23.0347 90.7797 23.096C90.7023 23.1547 90.6197 23.184 90.5317 23.184C90.5023 23.184 90.4703 23.172 90.4357 23.148C90.4037 23.124 90.3877 23.0827 90.3877 23.024C90.3877 22.9627 90.4063 22.9267 90.4437 22.916C90.4837 22.9027 90.517 22.8894 90.5437 22.876C90.5783 22.8574 90.605 22.836 90.6237 22.812C90.645 22.7854 90.6557 22.7534 90.6557 22.716C90.6557 22.6867 90.641 22.6614 90.6117 22.64C90.585 22.616 90.549 22.604 90.5037 22.604C90.4877 22.604 90.469 22.6067 90.4477 22.612C90.4263 22.6147 90.4077 22.6214 90.3917 22.632C90.365 22.6187 90.341 22.6027 90.3197 22.584C90.301 22.5627 90.2917 22.5294 90.2917 22.484C90.2917 22.4014 90.329 22.3307 90.4037 22.272C90.481 22.2107 90.5703 22.18 90.6717 22.18C90.7863 22.18 90.877 22.2187 90.9437 22.296C91.013 22.3734 91.0477 22.476 91.0477 22.604ZM91.8837 22.604C91.8837 22.692 91.8583 22.7814 91.8077 22.872C91.7597 22.96 91.6957 23.0347 91.6157 23.096C91.5383 23.1547 91.4557 23.184 91.3677 23.184C91.3383 23.184 91.3063 23.172 91.2717 23.148C91.2397 23.124 91.2237 23.0827 91.2237 23.024C91.2237 22.9627 91.2423 22.9267 91.2797 22.916C91.3197 22.9027 91.353 22.8894 91.3797 22.876C91.4143 22.8574 91.441 22.836 91.4597 22.812C91.481 22.7854 91.4917 22.7534 91.4917 22.716C91.4917 22.6867 91.477 22.6614 91.4477 22.64C91.421 22.616 91.385 22.604 91.3397 22.604C91.3237 22.604 91.305 22.6067 91.2837 22.612C91.2623 22.6147 91.2437 22.6214 91.2277 22.632C91.201 22.6187 91.177 22.6027 91.1557 22.584C91.137 22.5627 91.1277 22.5294 91.1277 22.484C91.1277 22.4014 91.165 22.3307 91.2397 22.272C91.317 22.2107 91.4063 22.18 91.5077 22.18C91.6223 22.18 91.713 22.2187 91.7797 22.296C91.849 22.3734 91.8837 22.476 91.8837 22.604Z" fill="#7A4949"/>
    <path d="M86.1757 59.56C86.2397 59.56 86.2931 59.5814 86.3357 59.624C86.3784 59.6667 86.3997 59.72 86.3997 59.784C86.3997 59.8454 86.3784 59.8974 86.3357 59.94C86.2931 59.98 86.2397 60 86.1757 60H84.8157C84.7464 60 84.6917 59.9787 84.6517 59.936C84.6117 59.8934 84.5917 59.8387 84.5917 59.772C84.5917 59.7054 84.6157 59.6467 84.6637 59.596L85.5357 58.664C85.6344 58.5574 85.7117 58.448 85.7677 58.336C85.8264 58.224 85.8557 58.1267 85.8557 58.044C85.8557 57.9107 85.8171 57.804 85.7397 57.724C85.6624 57.6414 85.5597 57.6 85.4317 57.6C85.3811 57.6 85.3291 57.612 85.2757 57.636C85.2224 57.66 85.1704 57.6934 85.1197 57.736C85.0717 57.7787 85.0264 57.828 84.9837 57.884C84.9517 57.9267 84.9197 57.9534 84.8877 57.964C84.8557 57.9747 84.8264 57.98 84.7997 57.98C84.7411 57.98 84.6864 57.9587 84.6357 57.916C84.5877 57.8707 84.5637 57.8187 84.5637 57.76C84.5637 57.7147 84.5784 57.6707 84.6077 57.628C84.6397 57.5854 84.6784 57.5414 84.7237 57.496C84.7904 57.4294 84.8651 57.3707 84.9477 57.32C85.0304 57.2694 85.1157 57.2307 85.2037 57.204C85.2917 57.1747 85.3771 57.16 85.4597 57.16C85.6384 57.16 85.7931 57.196 85.9237 57.268C86.0571 57.3374 86.1597 57.4374 86.2317 57.568C86.3037 57.696 86.3397 57.848 86.3397 58.024C86.3397 58.1707 86.2957 58.3347 86.2077 58.516C86.1224 58.6947 86.0064 58.8627 85.8597 59.02L85.3197 59.596L85.2757 59.56H86.1757Z" fill="#7A4949"/>
    <path d="M87.4891 57.604C87.4891 57.692 87.4637 57.7814 87.4131 57.872C87.3651 57.96 87.3011 58.0347 87.2211 58.096C87.1437 58.1547 87.0611 58.184 86.9731 58.184C86.9437 58.184 86.9117 58.172 86.8771 58.148C86.8451 58.124 86.8291 58.0827 86.8291 58.024C86.8291 57.9627 86.8477 57.9267 86.8851 57.916C86.9251 57.9027 86.9584 57.8894 86.9851 57.876C87.0197 57.8574 87.0464 57.836 87.0651 57.812C87.0864 57.7854 87.0971 57.7534 87.0971 57.716C87.0971 57.6867 87.0824 57.6614 87.0531 57.64C87.0264 57.616 86.9904 57.604 86.9451 57.604C86.9291 57.604 86.9104 57.6067 86.8891 57.612C86.8677 57.6147 86.8491 57.6214 86.8331 57.632C86.8064 57.6187 86.7824 57.6027 86.7611 57.584C86.7424 57.5627 86.7331 57.5294 86.7331 57.484C86.7331 57.4014 86.7704 57.3307 86.8451 57.272C86.9224 57.2107 87.0117 57.18 87.1131 57.18C87.2277 57.18 87.3184 57.2187 87.3851 57.296C87.4544 57.3734 87.4891 57.476 87.4891 57.604Z" fill="#7A4949"/>
    <path d="M88.9506 60.04C88.7213 60.04 88.5266 59.98 88.3666 59.86C88.2093 59.7374 88.0893 59.568 88.0066 59.352C87.924 59.1334 87.8826 58.8827 87.8826 58.6C87.8826 58.3147 87.924 58.064 88.0066 57.848C88.0893 57.632 88.2093 57.464 88.3666 57.344C88.5266 57.2214 88.7213 57.16 88.9506 57.16C89.18 57.16 89.3733 57.2214 89.5306 57.344C89.6906 57.464 89.812 57.632 89.8946 57.848C89.9773 58.064 90.0186 58.3147 90.0186 58.6C90.0186 58.8827 89.9773 59.1334 89.8946 59.352C89.812 59.568 89.6906 59.7374 89.5306 59.86C89.3733 59.98 89.18 60.04 88.9506 60.04ZM88.9506 59.56C89.0626 59.56 89.1586 59.5254 89.2386 59.456C89.3213 59.384 89.3853 59.2774 89.4306 59.136C89.476 58.992 89.4986 58.8134 89.4986 58.6C89.4986 58.384 89.476 58.2054 89.4306 58.064C89.3853 57.9227 89.3213 57.8174 89.2386 57.748C89.1586 57.676 89.0626 57.64 88.9506 57.64C88.8413 57.64 88.7453 57.676 88.6626 57.748C88.58 57.8174 88.516 57.9227 88.4706 58.064C88.4253 58.2054 88.4026 58.384 88.4026 58.6C88.4026 58.8134 88.4253 58.992 88.4706 59.136C88.516 59.2774 88.58 59.384 88.6626 59.456C88.7453 59.5254 88.8413 59.56 88.9506 59.56Z" fill="#7A4949"/>
    <path d="M91.0477 57.604C91.0477 57.692 91.0223 57.7814 90.9717 57.872C90.9237 57.96 90.8597 58.0347 90.7797 58.096C90.7023 58.1547 90.6197 58.184 90.5317 58.184C90.5023 58.184 90.4703 58.172 90.4357 58.148C90.4037 58.124 90.3877 58.0827 90.3877 58.024C90.3877 57.9627 90.4063 57.9267 90.4437 57.916C90.4837 57.9027 90.517 57.8894 90.5437 57.876C90.5783 57.8574 90.605 57.836 90.6237 57.812C90.645 57.7854 90.6557 57.7534 90.6557 57.716C90.6557 57.6867 90.641 57.6614 90.6117 57.64C90.585 57.616 90.549 57.604 90.5037 57.604C90.4877 57.604 90.469 57.6067 90.4477 57.612C90.4263 57.6147 90.4077 57.6214 90.3917 57.632C90.365 57.6187 90.341 57.6027 90.3197 57.584C90.301 57.5627 90.2917 57.5294 90.2917 57.484C90.2917 57.4014 90.329 57.3307 90.4037 57.272C90.481 57.2107 90.5703 57.18 90.6717 57.18C90.7863 57.18 90.877 57.2187 90.9437 57.296C91.013 57.3734 91.0477 57.476 91.0477 57.604ZM91.8837 57.604C91.8837 57.692 91.8583 57.7814 91.8077 57.872C91.7597 57.96 91.6957 58.0347 91.6157 58.096C91.5383 58.1547 91.4557 58.184 91.3677 58.184C91.3383 58.184 91.3063 58.172 91.2717 58.148C91.2397 58.124 91.2237 58.0827 91.2237 58.024C91.2237 57.9627 91.2423 57.9267 91.2797 57.916C91.3197 57.9027 91.353 57.8894 91.3797 57.876C91.4143 57.8574 91.441 57.836 91.4597 57.812C91.481 57.7854 91.4917 57.7534 91.4917 57.716C91.4917 57.6867 91.477 57.6614 91.4477 57.64C91.421 57.616 91.385 57.604 91.3397 57.604C91.3237 57.604 91.305 57.6067 91.2837 57.612C91.2623 57.6147 91.2437 57.6214 91.2277 57.632C91.201 57.6187 91.177 57.6027 91.1557 57.584C91.137 57.5627 91.1277 57.5294 91.1277 57.484C91.1277 57.4014 91.165 57.3307 91.2397 57.272C91.317 57.2107 91.4063 57.18 91.5077 57.18C91.6223 57.18 91.713 57.2187 91.7797 57.296C91.849 57.3734 91.8837 57.476 91.8837 57.604Z" fill="#7A4949"/>
    <path d="M16.3096 79.2122C12.1112 98.8518 14.0919 109.411 18.6049 119.765L71.1657 123.328C79.9005 111.679 83.0682 88.501 79.9005 75.4384C75.9914 59.3182 73.6959 51.6667 67.5747 42.4849C64.2965 37.5676 62.2931 25.7659 63.7489 18.0001L49.9763 25.6516L36.9687 18.0001C38.7157 20.5887 39.4288 25.0465 35.2361 37.4719C29.9952 53.0037 20.9007 57.736 16.3096 79.2122Z" fill="#A28A82"/>
    <path fill-rule="evenodd" clip-rule="evenodd" d="M36.24 17.3152C36.5599 16.9747 37.073 16.9012 37.4757 17.1381L49.9904 24.4997L63.2632 17.1259C63.602 16.9376 64.0191 16.9622 64.3335 17.1888C64.6479 17.4154 64.8031 17.8033 64.7317 18.1843C64.0314 21.9197 64.1569 26.6894 64.8738 31.1521C65.594 35.6353 66.8853 39.6482 68.4066 41.9302C74.6336 51.2707 76.9611 59.0742 80.8723 75.2027C82.4977 81.9055 82.4848 91.1099 80.9827 100.078C79.4817 109.041 76.4675 117.924 71.9657 123.928C71.7625 124.199 71.4359 124.349 71.098 124.326L18.5372 120.763C18.1647 120.738 17.8372 120.507 17.6881 120.165C13.0825 109.598 11.0946 98.8235 15.3316 79.0031C17.6572 68.1244 21.1327 61.4676 24.6727 55.5965C25.2792 54.5906 25.8846 53.6119 26.4846 52.6421C29.3837 47.9556 32.1542 43.4773 34.2884 37.1522C38.48 24.7302 37.5921 20.7116 36.1397 18.5594C35.8784 18.1722 35.92 17.6556 36.24 17.3152ZM62.4675 19.8558L50.4619 26.5257C50.1522 26.6978 49.7746 26.6931 49.4692 26.5135L39.0532 20.3864C39.7876 23.6329 39.253 28.6949 36.1835 37.7916C33.9699 44.3518 31.0662 49.0425 28.1586 53.7395C27.5658 54.6972 26.9728 55.6551 26.3854 56.6292C22.9202 62.3762 19.5529 68.8237 17.2874 79.4212C13.2038 98.5241 15.0309 108.842 19.2814 118.809L70.685 122.293C74.7465 116.65 77.573 108.329 79.0102 99.7481C80.4838 90.9499 80.4709 82.0338 78.9286 75.674C75.0214 59.5622 72.7579 52.0627 66.7425 43.0396C64.9856 40.4043 63.6362 36.0577 62.8991 31.4693C62.2792 27.6104 62.0743 23.4676 62.4675 19.8558Z" fill="#291711"/>
    <path d="M47.2265 42.9512C47.2265 44.5953 45.8937 45.9281 44.2496 45.9281C42.6055 45.9281 41.2727 44.5953 41.2727 42.9512C41.2727 41.3071 42.6055 39.9743 44.2496 39.9743C45.8937 39.9743 47.2265 41.3071 47.2265 42.9512Z" fill="#291711"/>
    <path d="M59.134 42.9512C59.134 44.5953 57.8012 45.9281 56.1571 45.9281C54.513 45.9281 53.1802 44.5953 53.1802 42.9512C53.1802 41.3071 54.513 39.9743 56.1571 39.9743C57.8012 39.9743 59.134 41.3071 59.134 42.9512Z" fill="#291711"/>
    <path d="M27.5001 99C26.5001 97.5 26.0001 76 26.5001 73C28.0002 70 67 70.5 69.5 71C72 71.5 73 97.5 71.5 99C70 100.5 28.5001 100.5 27.5001 99Z" fill="#F5D6D6"/>
    <path fill-rule="evenodd" clip-rule="evenodd" d="M67.0386 69.8203C68.3143 69.8745 69.2894 69.9381 69.6961 70.0195C70.2513 70.1305 70.5954 70.542 70.7851 70.8289C70.9955 71.1471 71.166 71.5415 71.3102 71.9581C71.6012 72.7988 71.8504 73.9259 72.0645 75.2106C72.4949 77.7927 72.81 81.1768 72.9985 84.5696C73.1871 87.9655 73.2506 91.4009 73.1714 94.0919C73.132 95.4345 73.0564 96.6127 72.9389 97.5158C72.8804 97.9652 72.8084 98.3719 72.7169 98.7071C72.6409 98.9858 72.5043 99.41 72.2071 99.7071C71.9951 99.9192 71.7299 100.025 71.5822 100.078C71.4005 100.143 71.193 100.196 70.9772 100.242C70.543 100.334 69.9821 100.415 69.3289 100.486C68.0172 100.63 66.2445 100.749 64.1783 100.843C60.0409 101.031 54.6654 101.125 49.3126 101.125C43.9599 101.125 38.6152 101.031 34.5398 100.843C32.505 100.749 30.7698 100.63 29.503 100.486C28.8733 100.414 28.3328 100.333 27.92 100.239C27.716 100.192 27.5121 100.135 27.3328 100.062C27.2077 100.011 26.8803 99.8731 26.6681 99.5547C26.4985 99.3004 26.406 98.9732 26.3469 98.73C26.2782 98.4472 26.2165 98.1042 26.1602 97.7207C26.047 96.9511 25.9453 95.9511 25.8548 94.8054C25.6734 92.51 25.5321 89.5709 25.4381 86.5941C25.3441 83.6158 25.2969 80.5885 25.3048 78.114C25.3125 75.6811 25.3724 73.6832 25.5137 72.8356L25.5384 72.6873L25.6057 72.5528C25.869 72.0263 26.4066 71.7342 26.8025 71.5613C27.255 71.3637 27.822 71.1989 28.4571 71.0565C29.7337 70.7702 31.4393 70.5409 33.4065 70.356C37.3502 69.9853 42.4734 69.7816 47.6068 69.6877C52.7448 69.5937 57.913 69.6094 61.955 69.6799C63.9757 69.7151 65.7189 69.7641 67.0386 69.8203ZM27.4471 73.4692C27.3621 74.2899 27.3117 75.9484 27.3048 78.1204C27.297 80.5679 27.3437 83.5717 27.4371 86.531C27.5306 89.4917 27.6706 92.3963 27.8486 94.6478C27.9377 95.7755 28.0352 96.7247 28.1389 97.4298C28.1909 97.7835 28.2421 98.0592 28.2903 98.2577C28.2915 98.2625 28.2926 98.2672 28.2938 98.2718C28.3157 98.2773 28.3395 98.2829 28.3652 98.2888C28.6708 98.3586 29.1259 98.4298 29.7296 98.4987C30.9296 98.6355 32.6123 98.7514 34.6322 98.8449C38.6662 99.0314 43.9778 99.125 49.3126 99.125C54.6472 99.125 59.9904 99.0314 64.0873 98.8448C66.1383 98.7514 67.8617 98.6354 69.1105 98.4982C69.7377 98.4293 70.2231 98.3574 70.5621 98.2855C70.6459 98.2677 70.7153 98.251 70.7717 98.236C70.7767 98.2193 70.7819 98.2009 70.7875 98.1807C70.8449 97.97 70.9028 97.6638 70.9556 97.2577C71.0608 96.4499 71.1337 95.3468 71.1723 94.0331C71.2494 91.4117 71.1879 88.0346 71.0015 84.6805C70.815 81.3232 70.5051 78.0199 70.0917 75.5394C69.884 74.2929 69.6566 73.295 69.4202 72.6123C69.3084 72.2891 69.2085 72.0783 69.132 71.9556C68.7852 71.9151 68.0552 71.8653 66.9536 71.8185C65.6561 71.7633 63.9306 71.7146 61.9201 71.6796C57.8996 71.6094 52.7554 71.5939 47.6434 71.6874C42.5269 71.781 37.4625 71.9835 33.5937 72.3472C31.6547 72.5295 30.0478 72.7494 28.8948 73.008C28.315 73.138 27.8879 73.2697 27.603 73.3941C27.5371 73.4229 27.486 73.4482 27.4471 73.4692ZM69.0674 71.8672C69.0674 71.8668 69.0708 71.8698 69.0773 71.8776C69.0706 71.8714 69.0673 71.8675 69.0674 71.8672ZM70.9477 98.1784C70.9483 98.1783 70.9444 98.1804 70.935 98.1843C70.9427 98.1803 70.9472 98.1784 70.9477 98.1784Z" fill="#291711"/>
    <path d="M33.0636 83.0931C33.1289 83.0931 33.1966 83.1117 33.2666 83.1491C33.3412 83.1817 33.3972 83.2261 33.4346 83.2821L35.1356 85.9001L34.7856 85.8861L36.5286 83.2821C36.6172 83.1561 36.7316 83.0931 36.8716 83.0931C36.9836 83.0931 37.0839 83.1327 37.1726 83.2121C37.2612 83.2914 37.3056 83.3941 37.3056 83.5201V87.5731C37.3056 87.6944 37.2659 87.7971 37.1866 87.8811C37.1072 87.9604 37.0022 88.0001 36.8716 88.0001C36.7409 88.0001 36.6336 87.9604 36.5496 87.8811C36.4702 87.7971 36.4306 87.6944 36.4306 87.5731V84.2761L36.7036 84.3391L35.2756 86.5161C35.2336 86.5674 35.1799 86.6117 35.1146 86.6491C35.0539 86.6864 34.9909 86.7027 34.9256 86.6981C34.8649 86.7027 34.8019 86.6864 34.7366 86.6491C34.6759 86.6117 34.6246 86.5674 34.5826 86.5161L33.2456 84.4021L33.4276 84.0311V87.5731C33.4276 87.6944 33.3902 87.7971 33.3156 87.8811C33.2409 87.9604 33.1429 88.0001 33.0216 88.0001C32.9049 88.0001 32.8092 87.9604 32.7346 87.8811C32.6599 87.7971 32.6226 87.6944 32.6226 87.5731V83.5201C32.6226 83.4034 32.6646 83.3031 32.7486 83.2191C32.8372 83.1351 32.9422 83.0931 33.0636 83.0931Z" fill="#442727"/>
    <path d="M38.7079 88.0001C38.5866 88.0001 38.4862 87.9604 38.4069 87.8811C38.3276 87.7971 38.2879 87.6944 38.2879 87.5731V84.6821C38.2879 84.5607 38.3276 84.4604 38.4069 84.3811C38.4862 84.2971 38.5866 84.2551 38.7079 84.2551C38.8292 84.2551 38.9296 84.2971 39.0089 84.3811C39.0882 84.4604 39.1279 84.5607 39.1279 84.6821V85.3401L39.0789 84.8711C39.1302 84.7591 39.1956 84.6611 39.2749 84.5771C39.3589 84.4884 39.4522 84.4161 39.5549 84.3601C39.6576 84.2994 39.7672 84.2551 39.8839 84.2271C40.0006 84.1991 40.1172 84.1851 40.2339 84.1851C40.3739 84.1851 40.4906 84.2247 40.5839 84.3041C40.6819 84.3834 40.7309 84.4767 40.7309 84.5841C40.7309 84.7381 40.6912 84.8501 40.6119 84.9201C40.5326 84.9854 40.4462 85.0181 40.3529 85.0181C40.2642 85.0181 40.1826 85.0017 40.1079 84.9691C40.0379 84.9364 39.9562 84.9201 39.8629 84.9201C39.7789 84.9201 39.6926 84.9411 39.6039 84.9831C39.5199 85.0204 39.4406 85.0811 39.3659 85.1651C39.2959 85.2491 39.2376 85.3541 39.1909 85.4801C39.1489 85.6014 39.1279 85.7461 39.1279 85.9141V87.5731C39.1279 87.6944 39.0882 87.7971 39.0089 87.8811C38.9296 87.9604 38.8292 88.0001 38.7079 88.0001Z" fill="#442727"/>
    <path d="M40.8601 87.9931C40.7247 87.9931 40.6197 87.9581 40.5451 87.8881C40.4751 87.8134 40.4401 87.7084 40.4401 87.5731V87.4541C40.4401 87.3187 40.4751 87.2161 40.5451 87.1461C40.6197 87.0714 40.7247 87.0341 40.8601 87.0341H40.9511C41.0864 87.0341 41.1891 87.0714 41.2591 87.1461C41.3337 87.2161 41.3711 87.3187 41.3711 87.4541V87.5731C41.3711 87.7084 41.3337 87.8134 41.2591 87.8881C41.1891 87.9581 41.0864 87.9931 40.9511 87.9931H40.8601Z" fill="#442727"/>
    <path d="M44.7052 83.0931C44.7705 83.0931 44.8382 83.1117 44.9082 83.1491C44.9828 83.1817 45.0388 83.2261 45.0762 83.2821L46.7772 85.9001L46.4272 85.8861L48.1702 83.2821C48.2588 83.1561 48.3732 83.0931 48.5132 83.0931C48.6252 83.0931 48.7255 83.1327 48.8142 83.2121C48.9028 83.2914 48.9472 83.3941 48.9472 83.5201V87.5731C48.9472 87.6944 48.9075 87.7971 48.8282 87.8811C48.7488 87.9604 48.6438 88.0001 48.5132 88.0001C48.3825 88.0001 48.2752 87.9604 48.1912 87.8811C48.1118 87.7971 48.0722 87.6944 48.0722 87.5731V84.2761L48.3452 84.3391L46.9172 86.5161C46.8752 86.5674 46.8215 86.6117 46.7562 86.6491C46.6955 86.6864 46.6325 86.7027 46.5672 86.6981C46.5065 86.7027 46.4435 86.6864 46.3782 86.6491C46.3175 86.6117 46.2662 86.5674 46.2242 86.5161L44.8872 84.4021L45.0692 84.0311V87.5731C45.0692 87.6944 45.0318 87.7971 44.9572 87.8811C44.8825 87.9604 44.7845 88.0001 44.6632 88.0001C44.5465 88.0001 44.4508 87.9604 44.3762 87.8811C44.3015 87.7971 44.2642 87.6944 44.2642 87.5731V83.5201C44.2642 83.4034 44.3062 83.3031 44.3902 83.2191C44.4788 83.1351 44.5838 83.0931 44.7052 83.0931Z" fill="#442727"/>
    <path d="M52.7085 84.2551C52.8298 84.2551 52.9302 84.2971 53.0095 84.3811C53.0888 84.4604 53.1285 84.5607 53.1285 84.6821V86.4601C53.1285 86.9547 52.9908 87.3467 52.7155 87.6361C52.4402 87.9254 52.0435 88.0701 51.5255 88.0701C51.0075 88.0701 50.6108 87.9254 50.3355 87.6361C50.0648 87.3467 49.9295 86.9547 49.9295 86.4601V84.6821C49.9295 84.5607 49.9692 84.4604 50.0485 84.3811C50.1278 84.2971 50.2282 84.2551 50.3495 84.2551C50.4708 84.2551 50.5712 84.2971 50.6505 84.3811C50.7298 84.4604 50.7695 84.5607 50.7695 84.6821V86.4601C50.7695 86.7447 50.8325 86.9571 50.9585 87.0971C51.0845 87.2324 51.2735 87.3001 51.5255 87.3001C51.7822 87.3001 51.9735 87.2324 52.0995 87.0971C52.2255 86.9571 52.2885 86.7447 52.2885 86.4601V84.6821C52.2885 84.5607 52.3282 84.4604 52.4075 84.3811C52.4868 84.2971 52.5872 84.2551 52.7085 84.2551Z" fill="#442727"/>
    <path d="M55.9629 82.8201C56.0656 82.8201 56.1659 82.8341 56.2639 82.8621C56.3619 82.8901 56.4436 82.9367 56.5089 83.0021C56.5742 83.0627 56.6069 83.1444 56.6069 83.2471C56.6069 83.3637 56.5719 83.4571 56.5019 83.5271C56.4366 83.5924 56.3596 83.6251 56.2709 83.6251C56.2289 83.6251 56.1659 83.6157 56.0819 83.5971C55.9979 83.5737 55.9162 83.5621 55.8369 83.5621C55.7202 83.5621 55.6292 83.5877 55.5639 83.6391C55.5032 83.6904 55.4612 83.7511 55.4379 83.8211C55.4146 83.8864 55.4029 83.9447 55.4029 83.9961V87.5731C55.4029 87.6944 55.3632 87.7971 55.2839 87.8811C55.2046 87.9604 55.1042 88.0001 54.9829 88.0001C54.8616 88.0001 54.7612 87.9604 54.6819 87.8811C54.6026 87.7971 54.5629 87.6944 54.5629 87.5731V84.0031C54.5629 83.6717 54.6796 83.3917 54.9129 83.1631C55.1462 82.9344 55.4962 82.8201 55.9629 82.8201ZM56.0399 84.3251C56.1519 84.3251 56.2452 84.3624 56.3199 84.4371C56.3946 84.5071 56.4319 84.5981 56.4319 84.7101C56.4319 84.8221 56.3946 84.9154 56.3199 84.9901C56.2452 85.0601 56.1519 85.0951 56.0399 85.0951H54.1849C54.0729 85.0951 53.9796 85.0601 53.9049 84.9901C53.8302 84.9154 53.7929 84.8221 53.7929 84.7101C53.7929 84.5981 53.8302 84.5071 53.9049 84.4371C53.9796 84.3624 54.0729 84.3251 54.1849 84.3251H56.0399ZM59.0219 82.8201C59.1246 82.8201 59.2249 82.8341 59.3229 82.8621C59.4209 82.8901 59.5026 82.9367 59.5679 83.0021C59.6332 83.0627 59.6659 83.1444 59.6659 83.2471C59.6659 83.3637 59.6309 83.4571 59.5609 83.5271C59.4956 83.5924 59.4186 83.6251 59.3299 83.6251C59.2879 83.6251 59.2249 83.6157 59.1409 83.5971C59.0569 83.5737 58.9752 83.5621 58.8959 83.5621C58.7792 83.5621 58.6882 83.5877 58.6229 83.6391C58.5622 83.6904 58.5202 83.7511 58.4969 83.8211C58.4736 83.8864 58.4619 83.9447 58.4619 83.9961V87.5731C58.4619 87.6944 58.4222 87.7971 58.3429 87.8811C58.2636 87.9604 58.1632 88.0001 58.0419 88.0001C57.9206 88.0001 57.8202 87.9604 57.7409 87.8811C57.6616 87.7971 57.6219 87.6944 57.6219 87.5731V84.0031C57.6219 83.6717 57.7386 83.3917 57.9719 83.1631C58.2052 82.9344 58.5552 82.8201 59.0219 82.8201ZM59.0989 84.3251C59.2109 84.3251 59.3042 84.3624 59.3789 84.4371C59.4536 84.5071 59.4909 84.5981 59.4909 84.7101C59.4909 84.8221 59.4536 84.9154 59.3789 84.9901C59.3042 85.0601 59.2109 85.0951 59.0989 85.0951H57.2439C57.1319 85.0951 57.0386 85.0601 56.9639 84.9901C56.8892 84.9154 56.8519 84.8221 56.8519 84.7101C56.8519 84.5981 56.8892 84.5071 56.9639 84.4371C57.0386 84.3624 57.1319 84.3251 57.2439 84.3251H59.0989ZM60.9469 87.5731C60.9469 87.6944 60.9072 87.7971 60.8279 87.8811C60.7486 87.9604 60.6482 88.0001 60.5269 88.0001C60.4056 88.0001 60.3052 87.9604 60.2259 87.8811C60.1466 87.7971 60.1069 87.6944 60.1069 87.5731V84.6821C60.1069 84.5607 60.1466 84.4604 60.2259 84.3811C60.3052 84.2971 60.4056 84.2551 60.5269 84.2551C60.6482 84.2551 60.7486 84.2971 60.8279 84.3811C60.9072 84.4604 60.9469 84.5607 60.9469 84.6821V87.5731ZM60.5199 83.8001C60.3612 83.8001 60.2492 83.7744 60.1839 83.7231C60.1186 83.6717 60.0859 83.5807 60.0859 83.4501V83.3171C60.0859 83.1817 60.1209 83.0907 60.1909 83.0441C60.2656 82.9927 60.3776 82.9671 60.5269 82.9671C60.6902 82.9671 60.8046 82.9927 60.8699 83.0441C60.9352 83.0954 60.9679 83.1864 60.9679 83.3171V83.4501C60.9679 83.5854 60.9329 83.6787 60.8629 83.7301C60.7929 83.7767 60.6786 83.8001 60.5199 83.8001Z" fill="#442727"/>
    <path d="M63.8124 84.1851C64.1577 84.1851 64.419 84.2574 64.5964 84.4021C64.7784 84.5467 64.902 84.7404 64.9674 84.9831C65.0374 85.2211 65.0724 85.4871 65.0724 85.7811V87.5731C65.0724 87.6944 65.0327 87.7971 64.9534 87.8811C64.874 87.9604 64.7737 88.0001 64.6524 88.0001C64.531 88.0001 64.4307 87.9604 64.3514 87.8811C64.272 87.7971 64.2324 87.6944 64.2324 87.5731V85.7811C64.2324 85.6271 64.2114 85.4894 64.1694 85.3681C64.132 85.2421 64.062 85.1417 63.9594 85.0671C63.8567 84.9924 63.7097 84.9551 63.5184 84.9551C63.3317 84.9551 63.173 84.9924 63.0424 85.0671C62.9164 85.1417 62.8184 85.2421 62.7484 85.3681C62.683 85.4894 62.6504 85.6271 62.6504 85.7811V87.5731C62.6504 87.6944 62.6107 87.7971 62.5314 87.8811C62.452 87.9604 62.3517 88.0001 62.2304 88.0001C62.109 88.0001 62.0087 87.9604 61.9294 87.8811C61.85 87.7971 61.8104 87.6944 61.8104 87.5731V84.6821C61.8104 84.5607 61.85 84.4604 61.9294 84.3811C62.0087 84.2971 62.109 84.2551 62.2304 84.2551C62.3517 84.2551 62.452 84.2971 62.5314 84.3811C62.6107 84.4604 62.6504 84.5607 62.6504 84.6821V84.9831L62.5454 84.9621C62.5874 84.8827 62.648 84.7987 62.7274 84.7101C62.8067 84.6167 62.9 84.5304 63.0074 84.4511C63.1147 84.3717 63.236 84.3087 63.3714 84.2621C63.5067 84.2107 63.6537 84.1851 63.8124 84.1851Z" fill="#442727"/>
    <path d="M65.7633 87.4191C65.7166 87.3537 65.6956 87.2697 65.7003 87.1671C65.705 87.0644 65.7656 86.9757 65.8823 86.9011C65.957 86.8544 66.0363 86.8357 66.1203 86.8451C66.2043 86.8497 66.286 86.8917 66.3653 86.9711C66.5006 87.1064 66.643 87.2114 66.7923 87.2861C66.9416 87.3607 67.1283 87.3981 67.3523 87.3981C67.4223 87.3934 67.4993 87.3841 67.5833 87.3701C67.6673 87.3514 67.7396 87.3141 67.8003 87.2581C67.8656 87.1974 67.8983 87.1064 67.8983 86.9851C67.8983 86.8824 67.8633 86.8007 67.7933 86.7401C67.7233 86.6794 67.63 86.6281 67.5133 86.5861C67.4013 86.5441 67.2753 86.5044 67.1353 86.4671C66.9906 86.4251 66.8413 86.3784 66.6873 86.3271C66.538 86.2757 66.4003 86.2104 66.2743 86.1311C66.1483 86.0471 66.0456 85.9374 65.9663 85.8021C65.887 85.6667 65.8473 85.4964 65.8473 85.2911C65.8473 85.0577 65.9126 84.8594 66.0433 84.6961C66.174 84.5327 66.342 84.4067 66.5473 84.3181C66.7573 84.2294 66.9766 84.1851 67.2053 84.1851C67.35 84.1851 67.5016 84.2037 67.6603 84.2411C67.819 84.2737 67.9706 84.3297 68.1153 84.4091C68.26 84.4837 68.3813 84.5841 68.4793 84.7101C68.5306 84.7801 68.561 84.8641 68.5703 84.9621C68.5796 85.0601 68.5353 85.1487 68.4373 85.2281C68.3673 85.2841 68.2856 85.3097 68.1923 85.3051C68.099 85.2957 68.022 85.2631 67.9613 85.2071C67.882 85.1044 67.7746 85.0227 67.6393 84.9621C67.5086 84.9014 67.357 84.8711 67.1843 84.8711C67.1143 84.8711 67.0373 84.8804 66.9533 84.8991C66.874 84.9131 66.804 84.9481 66.7433 85.0041C66.6826 85.0554 66.6523 85.1394 66.6523 85.2561C66.6523 85.3634 66.6873 85.4497 66.7573 85.5151C66.8273 85.5757 66.9206 85.6271 67.0373 85.6691C67.1586 85.7064 67.287 85.7437 67.4223 85.7811C67.5623 85.8184 67.7046 85.8627 67.8493 85.9141C67.994 85.9654 68.127 86.0331 68.2483 86.1171C68.3696 86.2011 68.4676 86.3107 68.5423 86.4461C68.617 86.5767 68.6543 86.7447 68.6543 86.9501C68.6543 87.1881 68.5843 87.3911 68.4443 87.5591C68.3043 87.7271 68.1293 87.8554 67.9193 87.9441C67.7093 88.0281 67.4946 88.0701 67.2753 88.0701C67 88.0701 66.7246 88.0234 66.4493 87.9301C66.174 87.8321 65.9453 87.6617 65.7633 87.4191Z" fill="#442727"/>
  </g>
</svg>
