<svg width="100" height="100" viewBox="0 0 100 100" fill="none"
  xmlns="http://www.w3.org/2000/svg">
  <mask id="mask0_144_428" style="mask-type:alpha" maskUnits="userSpaceOnUse" x="0" y="0" width="100" height="100">
    <path d="M100 50C100 77.6142 77.6142 100 50 100C22.3858 100 0 77.6142 0 50C0 22.3858 22.3858 0 50 0C77.6142 0 100 22.3858 100 50Z" fill="#D9D9D9"/>
  </mask>
  <g mask="url(#mask0_144_428)">
    <path d="M158 86C158 141.781 112.781 187 57 187C1.21924 187 -44 141.781 -44 86C-44 30.2192 1.21924 -15 57 -15C112.781 -15 158 30.2192 158 86Z" fill="#DCBFAF"/>
    <path d="M18.0376 44.6249C22.3203 42.2457 17.0176 36.2083 15.7424 33.1477C24.9244 31.6173 31.0454 42.3295 28.7496 49.2158C28.0236 51.3935 62.4162 83.6477 64.7117 84.4128C67.0071 85.178 70.8329 78.2916 75.4238 84.4128C80.0147 90.534 76.189 95.1249 70.8329 100.481C65.4768 105.837 60.8859 105.072 56.295 101.246C52.6223 98.1855 55.2748 93.3396 57.0602 91.2992C45.3278 80.332 22.1697 58.7037 20.3333 56.8674C18.0378 54.5719 15.7424 56.8674 10.3863 54.5719C6.10148 52.7355 4.77511 45.3901 5.03016 42.3295C7.83572 44.1148 11.1511 48.4507 18.0376 44.6249Z" fill="#B8B8B8"/>
    <path fill-rule="evenodd" clip-rule="evenodd" d="M29.7764 49.2866C30.9234 45.516 29.8407 40.912 27.3638 37.4443C24.8113 33.8707 20.6383 31.3179 15.5779 32.1613C15.2768 32.2115 15.0151 32.3964 14.8673 32.6635C14.7196 32.9306 14.7018 33.2505 14.8192 33.5323C15.146 34.3164 15.7004 35.2551 16.2508 36.187C16.2939 36.2599 16.3369 36.3328 16.3798 36.4056C16.9926 37.4446 17.6101 38.51 18.0568 39.5398C18.5105 40.5858 18.7316 41.4722 18.669 42.1688C18.6142 42.7793 18.3401 43.313 17.5519 43.7508C14.3502 45.5295 12.1161 45.3603 10.3798 44.6549C9.47355 44.2867 8.65905 43.7538 7.87009 43.1737C7.63133 42.9981 7.38449 42.8097 7.13502 42.6193C6.60686 42.2161 6.06693 41.804 5.56697 41.4858C5.27158 41.2978 4.8994 41.2781 4.58574 41.4336C4.27207 41.5892 4.06263 41.8975 4.03355 42.2464C3.89329 43.9296 4.1848 46.6694 5.05928 49.2327C5.92268 51.7635 7.45183 54.4023 9.99234 55.4911C12.859 56.7197 14.9358 56.7197 16.5069 56.7197H16.5075C18.0587 56.7197 18.8006 56.749 19.6261 57.5745C21.2648 59.2132 39.5978 76.3473 51.9172 87.8611C53.2596 89.1158 54.5306 90.3037 55.7009 91.3975C54.8837 92.5044 54.0356 94.0239 53.6564 95.665C53.1697 97.7715 53.4508 100.178 55.6548 102.014C58.0353 103.998 60.5528 105.307 63.277 105.307C66.0222 105.307 68.7484 103.98 71.5399 101.188C74.1973 98.5307 76.6445 95.9093 77.7845 93.1112C78.3666 91.6824 78.6192 90.1862 78.3856 88.6064C78.1529 87.032 77.4477 85.4449 76.2237 83.8128C74.9852 82.1614 73.698 81.2556 72.3493 80.9611C71.006 80.6677 69.7879 81.0226 68.7788 81.5006C68.1115 81.8167 67.4299 82.2464 66.8617 82.6047C66.6174 82.7588 66.394 82.8996 66.2018 83.0126C65.8438 83.2228 65.5679 83.3578 65.3471 83.4261C65.1711 83.4806 65.0833 83.4761 65.0456 83.4687C65.0308 83.4607 64.9963 83.4418 64.9381 83.405C64.8341 83.3394 64.6939 83.2425 64.5153 83.1108C64.1591 82.8479 63.6885 82.4745 63.1153 81.9999C61.9709 81.0523 60.4529 79.7308 58.6891 78.1517C55.1633 74.9952 50.6802 70.8316 46.2896 66.6222C41.8976 62.4114 37.6081 58.1645 34.4663 54.8397C32.8929 53.1746 31.6221 51.7564 30.7723 50.6965C30.3446 50.163 30.0446 49.7463 29.8671 49.449C29.8278 49.3831 29.7982 49.3293 29.7764 49.2866ZM29.7262 49.176C29.726 49.1757 29.7259 49.1753 29.7258 49.175C29.7165 49.1485 29.7204 49.1509 29.7262 49.176ZM17.2943 34.0029C20.8074 33.9274 23.7617 35.8422 25.7364 38.6067C27.9875 41.7584 28.8249 45.828 27.8008 48.8996C27.6681 49.2976 27.7785 49.6658 27.8387 49.8375C27.914 50.052 28.0275 50.2692 28.1499 50.4742C28.3975 50.889 28.7643 51.3893 29.212 51.9476C30.1131 53.0715 31.428 54.5363 33.0127 56.2133C36.187 59.5725 40.5031 63.8452 44.9055 68.0659C49.3092 72.2879 53.8092 76.4674 57.355 79.6418C59.127 81.2282 60.6668 82.569 61.8398 83.5403C62.4252 84.0251 62.9283 84.4253 63.3277 84.72C63.5269 84.867 63.71 84.995 63.8708 85.0964C64.0126 85.1859 64.2016 85.2969 64.3954 85.3615C64.9477 85.5456 65.4857 85.4768 65.9382 85.3368C66.384 85.1989 66.8194 84.9692 67.2146 84.7371C67.5177 84.5591 67.7991 84.3809 68.074 84.2069C68.5853 83.8831 69.0736 83.5739 69.635 83.3081C70.4431 82.9253 71.1857 82.7541 71.9226 82.915C72.6543 83.0748 73.5668 83.6037 74.6237 85.0128C75.6952 86.4414 76.2334 87.7236 76.4071 88.8989C76.5801 90.0689 76.4023 91.2029 75.9323 92.3566C74.9681 94.7231 72.8244 97.0752 70.1257 99.7739C67.5612 102.338 65.3139 103.307 63.277 103.307C61.2189 103.307 59.1455 102.32 56.9351 100.478C55.4664 99.254 55.2373 97.7069 55.6051 96.1152C55.9843 94.4737 56.9915 92.8962 57.8127 91.9577C58.1679 91.5517 58.1371 90.9371 57.743 90.5687C56.3967 89.3102 54.9009 87.9122 53.3048 86.4205C40.9731 74.8951 22.6522 57.7721 21.0403 56.1603C19.5986 54.7185 18.0764 54.7191 16.5944 54.7196C16.5654 54.7197 16.5364 54.7197 16.5075 54.7197C15.0181 54.7197 13.2692 54.7195 10.7802 53.6528C9.03584 52.9052 7.75939 50.9531 6.95216 48.5869C6.44877 47.1114 6.16606 45.5841 6.05522 44.3122C6.25275 44.4627 6.46134 44.6203 6.68528 44.785C7.52222 45.4004 8.49301 46.0471 9.62707 46.5078C11.9715 47.4603 14.8384 47.5462 18.5232 45.4991C19.8764 44.7474 20.5455 43.6341 20.661 42.3478C20.7688 41.1476 20.3876 39.8872 19.8916 38.7439C19.3885 37.5843 18.7089 36.4178 18.1026 35.3896C18.0704 35.335 18.0384 35.2809 18.0068 35.2273C17.7461 34.7855 17.5052 34.3773 17.2943 34.0029Z" fill="#291711"/>
    <path d="M20.273 82.1742C16.0746 101.814 18.0553 112.373 22.5683 122.727L75.1291 126.29C83.8639 114.641 87.0316 91.463 83.8639 78.4004C79.9547 62.2803 77.6592 54.6288 71.5381 45.4469C68.2599 40.5297 66.2565 28.728 67.7123 20.9621L53.9397 28.6136L40.9321 20.9621C42.6791 23.5507 43.3922 28.0086 39.1994 40.434C33.9585 55.9657 24.8641 60.698 20.273 82.1742Z" fill="#A28A82"/>
    <path fill-rule="evenodd" clip-rule="evenodd" d="M40.2034 20.2772C40.5233 19.9368 41.0364 19.8633 41.439 20.1001L53.9538 27.4617L67.2265 20.0879C67.5654 19.8997 67.9824 19.9242 68.2969 20.1508C68.6113 20.3774 68.7665 20.7654 68.6951 21.1463C67.9948 24.8817 68.1203 29.6514 68.8372 34.1141C69.5574 38.5973 70.8487 42.6103 72.37 44.8922C78.597 54.2327 80.9244 62.0363 84.8356 78.1647C86.4611 84.8676 86.4482 94.0719 84.9461 103.041C83.445 112.003 80.4309 120.886 75.929 126.89C75.7258 127.161 75.3993 127.311 75.0614 127.288L22.5005 123.725C22.128 123.7 21.8006 123.469 21.6515 123.127C17.0459 112.56 15.058 101.786 19.295 81.9651C21.6206 71.0864 25.096 64.4296 28.6361 58.5585C29.2425 57.5527 29.848 56.574 30.4479 55.6042C33.3471 50.9177 36.1175 46.4393 38.2518 40.1142C42.4434 27.6922 41.5555 23.6736 40.1031 21.5215C39.8418 21.1342 39.8834 20.6176 40.2034 20.2772ZM66.4309 22.8179L54.4252 29.4877C54.1155 29.6598 53.7379 29.6551 53.4326 29.4755L43.0165 23.3484C43.7509 26.5949 43.2164 31.657 40.1468 40.7536C37.9332 47.3138 35.0296 52.0045 32.122 56.7015C31.5291 57.6592 30.9361 58.6171 30.3488 59.5912C26.8836 65.3383 23.5163 71.7857 21.2508 82.3832C17.1672 101.486 18.9943 111.804 23.2448 121.771L74.6484 125.255C78.7099 119.612 81.5364 111.291 82.9736 102.71C84.4471 93.9119 84.4342 84.9959 82.892 78.6361C78.9848 62.5242 76.7213 55.0247 70.7059 46.0016C68.949 43.3663 67.5996 39.0197 66.8625 34.4313C66.2426 30.5725 66.0377 26.4296 66.4309 22.8179Z" fill="#291711"/>
    <path d="M51.1899 45.9133C51.1899 47.5574 49.8571 48.8902 48.213 48.8902C46.5689 48.8902 45.2361 47.5574 45.2361 45.9133C45.2361 44.2692 46.5689 42.9363 48.213 42.9363C49.8571 42.9363 51.1899 44.2692 51.1899 45.9133Z" fill="#291711"/>
    <path d="M63.0974 45.9133C63.0974 47.5574 61.7646 48.8902 60.1205 48.8902C58.4764 48.8902 57.1436 47.5574 57.1436 45.9133C57.1436 44.2692 58.4764 42.9363 60.1205 42.9363C61.7646 42.9363 63.0974 44.2692 63.0974 45.9133Z" fill="#291711"/>
    <path d="M42.2339 22.9578C45.0793 17.7392 40.4047 9.80701 54.4286 9.80701C66.1356 9.80701 66.6234 18.5742 65.4039 24.2103C63.778 26.2977 59.0627 30.3473 53.2092 29.8464C47.3557 29.3454 43.4534 25.0453 42.2339 22.9578Z" fill="#EDE520"/>
    <path fill-rule="evenodd" clip-rule="evenodd" d="M46.5437 10.2418C48.3261 9.30987 50.8483 8.80701 54.4287 8.80701C60.5681 8.80701 64.0204 11.1374 65.6601 14.4517C67.2413 17.6479 67.0095 21.5188 66.3814 24.4218L66.3331 24.6448L66.1929 24.8248C65.3026 25.9678 63.6191 27.5893 61.3889 28.8667C59.1523 30.1478 56.3073 31.1152 53.1239 30.8427C46.8348 30.3044 42.6878 25.7172 41.3705 23.4623L41.0857 22.9748L41.356 22.4791C41.9678 21.357 42.1946 20.053 42.3751 18.5798C42.3992 18.3826 42.4226 18.1811 42.4463 17.9764C42.5923 16.7179 42.7523 15.3375 43.1975 14.0895C43.7401 12.5683 44.7126 11.1991 46.5437 10.2418ZM43.3789 22.8988C44.7551 24.9331 48.2669 28.4197 53.2945 28.85C55.9646 29.0785 58.404 28.2716 60.3949 27.1312C62.2723 26.0559 63.699 24.7129 64.4745 23.7711C65.0243 21.0824 65.1165 17.8633 63.8674 15.3386C62.6413 12.8602 59.9963 10.807 54.4287 10.807C50.9971 10.807 48.8446 11.2957 47.4704 12.0142C46.1448 12.7072 45.4787 13.6472 45.0812 14.7614C44.7191 15.7767 44.5872 16.9001 44.4376 18.1739C44.4127 18.3861 44.3873 18.6024 44.3602 18.823C44.2003 20.1283 43.9827 21.5598 43.3789 22.8988Z" fill="#291711"/>
    <path fill-rule="evenodd" clip-rule="evenodd" d="M44.9647 22.3852C44.2399 22.7142 43.5879 23.0102 43.1408 23.1592L42.5083 21.2618C42.8485 21.1484 43.393 20.9017 44.1604 20.5538C44.2484 20.5139 44.3394 20.4727 44.4333 20.4302C45.313 20.032 46.3884 19.5525 47.5631 19.1053C49.8827 18.2224 52.7231 17.4112 55.3275 17.6716C57.8604 17.9249 60.0503 18.8191 61.7831 19.6378C62.2108 19.8398 62.6145 20.0393 62.9863 20.223L63.0021 20.2307C63.3817 20.4183 63.7236 20.587 64.0385 20.7334C64.6992 21.0404 65.1178 21.1876 65.3794 21.2166L65.1585 23.2044C64.5342 23.135 63.8453 22.8491 63.1955 22.547C62.8551 22.3888 62.4911 22.209 62.1163 22.0239L62.1062 22.0189C61.731 21.8335 61.3405 21.6406 60.9288 21.4461C59.2654 20.6602 57.3209 19.8809 55.1285 19.6617C53.0078 19.4496 50.5324 20.1151 48.2746 20.9745C47.1605 21.3986 46.1318 21.8567 45.258 22.2522C45.1592 22.2969 45.0613 22.3414 44.9647 22.3852Z" fill="#291711"/>
    <path fill-rule="evenodd" clip-rule="evenodd" d="M35.1667 63.2677C33.5202 61.7924 31.9037 60.3441 30.3545 58.9935L31.6688 57.486C33.267 58.8793 34.8971 60.3401 36.5454 61.8174C38.9036 63.9308 41.2993 66.0778 43.693 68.1088C47.7469 71.5485 51.6561 74.5317 55.0846 76.2459C58.2259 77.8166 64.4445 79.3713 70.5064 80.564C76.5443 81.752 82.2271 82.5438 84.2171 82.6385L84.122 84.6363C81.9774 84.5341 76.1747 83.7176 70.1203 82.5264C64.0901 81.3399 57.6098 79.7446 54.1901 78.0347C50.5309 76.2051 46.4664 73.0849 42.399 69.6338C40.0002 67.5985 37.5519 65.4048 35.1667 63.2677Z" fill="#291711"/>
    <path fill-rule="evenodd" clip-rule="evenodd" d="M30.9531 59.0766L30.1665 58.3725L30.8335 57.6274L31.62 58.3315L30.9531 59.0766ZM34.105 61.8885C33.5812 61.4237 33.0556 60.9556 32.5274 60.4841L33.1933 59.738C33.721 60.2091 34.2458 60.6766 34.7687 61.1405L34.105 61.8885ZM37.2802 64.6781C36.75 64.218 36.2196 63.7544 35.6883 63.2873L36.3486 62.5363C36.8785 63.0021 37.4072 63.4642 37.9356 63.9228L37.2802 64.6781ZM40.4991 67.4233C39.959 66.9716 39.4206 66.5165 38.8831 66.0578L39.5323 65.2971C40.0674 65.7538 40.6032 66.2068 41.1406 66.6561L40.4991 67.4233ZM43.7798 70.0995C43.2267 69.6604 42.6773 69.2177 42.1307 68.7715L42.763 67.9968C43.3063 68.4403 43.8522 68.8802 44.4016 69.3164L43.7798 70.0995ZM47.1379 72.6833C46.5695 72.2604 46.0066 71.8341 45.4484 71.4044L46.0583 70.612C46.6124 71.0385 47.1709 71.4615 47.7348 71.881L47.1379 72.6833ZM50.5833 75.1526C49.9983 74.7495 49.4206 74.3431 48.8491 73.9333L49.4318 73.1206C49.9984 73.5268 50.5711 73.9297 51.1507 74.3292L50.5833 75.1526ZM53.2284 76.9198C52.9305 76.727 52.6347 76.5335 52.3408 76.3392L52.8923 75.5051C53.1835 75.6976 53.4765 75.8893 53.7716 76.0802C54.0128 76.2363 54.2781 76.3919 54.566 76.5468L54.0922 77.4274C53.7842 77.2617 53.4954 77.0925 53.2284 76.9198ZM57.7253 78.9741C57.078 78.7468 56.4629 78.513 55.8881 78.2728L56.2737 77.3501C56.8277 77.5816 57.4243 77.8086 58.0565 78.0305L57.7253 78.9741ZM61.4601 80.1275C60.8185 79.9511 60.1917 79.7696 59.5847 79.5833L59.8782 78.6273C60.4748 78.8104 61.0921 78.9892 61.7252 79.1633L61.4601 80.1275ZM65.2381 81.0755C64.6012 80.9289 63.9695 80.7777 63.3469 80.622L63.5895 79.6519C64.2055 79.806 64.8311 79.9557 65.4623 80.1009L65.2381 81.0755ZM69.0417 81.8871C68.4082 81.7615 67.7723 81.6311 67.1377 81.4959L67.346 80.5178C67.9758 80.652 68.607 80.7815 69.2361 80.9062L69.0417 81.8871ZM72.8638 82.5941C72.2359 82.4858 71.597 82.372 70.9515 82.2526L71.1332 81.2693C71.7747 81.3879 72.4096 81.501 73.0336 81.6086L72.8638 82.5941ZM76.7005 83.2092C76.0819 83.1176 75.4393 83.0186 74.7782 82.9126L74.9366 81.9252C75.5937 82.0306 76.2324 82.129 76.847 82.22L76.7005 83.2092ZM80.5531 83.7256C79.9633 83.6563 79.3171 83.5747 78.6249 83.4816L78.7584 82.4905C79.4455 82.583 80.0862 82.6638 80.6699 82.7325L80.5531 83.7256ZM83.4756 83.9994C83.2056 83.9862 82.8748 83.9624 82.4917 83.9287L82.5792 82.9326C82.9545 82.9655 83.2716 82.9882 83.5244 83.0006L83.4756 83.9994Z" fill="#8D5441"/>
  </g>
</svg>
