<svg width="100" height="100" viewBox="0 0 100 100" fill="none"
  xmlns="http://www.w3.org/2000/svg">
  <mask id="mask0_144_443" style="mask-type:alpha" maskUnits="userSpaceOnUse" x="0" y="0" width="100" height="100">
    <path d="M100 50C100 77.6142 77.6142 100 50 100C22.3858 100 0 77.6142 0 50C0 22.3858 22.3858 0 50 0C77.6142 0 100 22.3858 100 50Z" fill="#D9D9D9"/>
  </mask>
  <g mask="url(#mask0_144_443)">
    <path d="M117 64C117 100.451 87.4508 130 51 130C14.5492 130 -15 100.451 -15 64C-15 27.5492 14.5492 -2 51 -2C87.4508 -2 117 27.5492 117 64Z" fill="#DCBFAF"/>
    <path d="M29.4999 59.034C26.7564 71.8678 25.5509 81.2337 28.5 88L62.8466 90.3281C68.5545 82.716 70.6245 67.5699 68.5545 59.034C66 48.5 64.5 43.5 60.5 37.5C58.3578 34.2867 57.0487 28.0747 58 23L49 29L39.3678 23C40.5094 24.6916 42.1077 26.1046 39.3679 34.2242C35.9431 44.3736 32.5 45 29.4999 59.034Z" fill="#A28A82"/>
    <path fill-rule="evenodd" clip-rule="evenodd" d="M38.6479 22.306C38.9755 21.9662 39.496 21.9017 39.8966 22.1512L48.9816 27.8104L57.4453 22.168C57.78 21.9448 58.2158 21.944 58.5514 22.1658C58.887 22.3876 59.057 22.7889 58.9829 23.1843C58.5342 25.5777 58.6148 28.2732 59.0735 30.7672C59.5338 33.2701 60.3592 35.4859 61.3321 36.9453C65.4379 43.104 66.9699 48.256 69.5264 58.7983C70.603 63.2378 70.5901 69.3025 69.6036 75.1927C68.6181 81.0769 66.6351 86.9427 63.6467 90.9281C63.4435 91.1991 63.117 91.3488 62.779 91.3259L28.4324 88.9977C28.0599 88.9725 27.7324 88.7418 27.5833 88.3996C26.0216 84.8164 25.5865 80.6075 25.8669 75.7349C26.1472 70.8628 27.1485 65.2504 28.5221 58.8249C30.0419 51.7154 31.6847 47.9649 33.3887 44.7087C33.7239 44.0681 34.0581 43.4524 34.3914 42.838C35.7388 40.3553 37.0737 37.8955 38.4204 33.9045C39.7749 29.8901 40.0024 27.6803 39.8313 26.3271C39.6908 25.2164 39.2918 24.6438 38.793 23.928C38.7108 23.8101 38.6259 23.6882 38.539 23.5594C38.275 23.1682 38.3204 22.6457 38.6479 22.306ZM41.7508 25.6625C41.7757 25.7954 41.7974 25.9332 41.8155 26.0761C42.0439 27.8823 41.7006 30.4387 40.3154 34.5439C38.9093 38.7109 37.4854 41.333 36.1286 43.8316C35.8017 44.4336 35.4786 45.0285 35.1607 45.6361C33.5369 48.7389 31.9581 52.3186 30.4779 59.243C29.1079 65.6514 28.1346 71.1389 27.8636 75.8498C27.6082 80.2891 27.9814 83.9706 29.1866 87.0443L62.3627 89.2931C64.9141 85.6688 66.7097 80.3637 67.6311 74.8623C68.589 69.1425 68.5761 63.3661 67.5827 59.2697C65.0302 48.744 63.5622 43.896 59.668 38.0547C58.4987 36.3008 57.5984 33.8041 57.1065 31.1289C56.7466 29.1724 56.5968 27.0756 56.7368 25.044L49.5547 29.8321C49.2282 30.0498 48.8044 30.0563 48.4713 29.8488L41.7508 25.6625Z" fill="#291711"/>
    <path d="M47.2031 37.8047C47.2031 38.8791 46.3322 39.75 45.2578 39.75C44.1834 39.75 43.3125 38.8791 43.3125 37.8047C43.3125 36.7303 44.1834 35.8594 45.2578 35.8594C46.3322 35.8594 47.2031 36.7303 47.2031 37.8047Z" fill="#291711"/>
    <path d="M54.9844 37.8047C54.9844 38.8791 54.1134 39.75 53.0391 39.75C51.9647 39.75 51.0938 38.8791 51.0938 37.8047C51.0938 36.7303 51.9647 35.8594 53.0391 35.8594C54.1134 35.8594 54.9844 36.7303 54.9844 37.8047Z" fill="#291711"/>
    <path d="M84.8765 51.9538C85.6962 51.9538 85.2181 52.9784 85.3888 54.0031C86.6185 54.413 86.9259 55.5402 85.9012 56.5648L47.4753 63.2253L9.56165 55.5402C9.56165 55.1986 8.99996 54.5 9.56165 53.4908C9.9603 52.7745 10.4876 52.8292 11 53C10.8292 52.6584 10.7912 51.8513 11.611 51.4414C12.6357 50.9291 46.4505 60.6636 48.4999 60.6636C50.5493 60.6636 83.8518 51.9538 84.8765 51.9538Z" fill="#D9D9D9"/>
    <path fill-rule="evenodd" clip-rule="evenodd" d="M48.5016 59.6635C48.5112 59.6629 48.5552 59.6601 48.6491 59.6475C48.7524 59.6337 48.8886 59.6119 49.059 59.5814C49.3993 59.5206 49.8498 59.4297 50.3994 59.3117C51.4972 59.0759 52.9616 58.7377 54.6725 58.33C58.0928 57.5148 62.475 56.4273 66.83 55.3386C68.3227 54.9654 69.8124 54.592 71.2587 54.2295C74.0292 53.5351 76.6404 52.8807 78.8083 52.344C80.458 51.9356 81.8557 51.5941 82.8744 51.3546C83.383 51.235 83.8027 51.1394 84.1141 51.0733C84.2692 51.0405 84.4044 51.0134 84.5136 50.994C84.5909 50.9804 84.7417 50.9538 84.8765 50.9538C85.3101 50.9538 85.8055 51.1077 86.1159 51.5835C86.358 51.9545 86.3737 52.3717 86.376 52.5831C86.3777 52.7321 86.368 52.931 86.36 53.0943C86.3564 53.1672 86.3532 53.2329 86.3515 53.2839C86.3508 53.3062 86.3502 53.3281 86.3497 53.3497C86.8961 53.6796 87.3203 54.1777 87.4667 54.8365C87.6665 55.7355 87.2759 56.6045 86.6084 57.272L86.3843 57.496L47.4609 64.2428L8.56175 56.3578V55.6186C8.55611 55.6004 8.54778 55.5744 8.53582 55.5392C8.53297 55.5308 8.52995 55.5219 8.52678 55.5126C8.4854 55.3913 8.41773 55.1929 8.37138 54.9661C8.26219 54.4319 8.271 53.7537 8.68796 53.0045C8.9849 52.4709 9.41381 52.0858 9.9789 51.9465C10.1302 51.3965 10.5084 50.8747 11.1639 50.547C11.3452 50.4563 11.5152 50.4364 11.5865 50.4295C11.6781 50.4206 11.7655 50.4209 11.8373 50.4234C11.9819 50.4287 12.1453 50.4468 12.3121 50.4705C12.6501 50.5184 13.0928 50.6021 13.6132 50.7122C14.6589 50.9334 16.0867 51.2754 17.7627 51.6964C21.1179 52.5392 25.5124 53.71 29.9303 54.8945C30.7214 55.1066 31.5134 55.3192 32.3003 55.5304C35.9118 56.4998 39.4186 57.4411 42.2676 58.1829C44.0029 58.6347 45.487 59.0106 46.5984 59.2731C47.1549 59.4046 47.61 59.5057 47.9529 59.5734C48.1247 59.6073 48.2609 59.6313 48.3634 59.6465C48.4459 59.6588 48.4871 59.6623 48.4989 59.6632C48.5001 59.6633 48.501 59.6634 48.5016 59.6635ZM11.9255 52.4367C11.9161 52.4505 11.9101 52.4649 11.906 52.4818C11.9004 52.505 11.899 52.5321 11.9018 52.5573C11.9026 52.5641 11.9035 52.5693 11.9042 52.5728C12.0733 52.9305 12.0156 53.3553 11.7555 53.6552C11.4905 53.9608 11.0675 54.0766 10.6838 53.9487C10.5932 53.9185 10.5307 53.9029 10.487 53.8958C10.4736 53.9139 10.4561 53.9401 10.4355 53.9771C10.2908 54.2371 10.2996 54.4128 10.3309 54.5656C10.3388 54.6044 10.3483 54.6419 10.3599 54.6816L47.4898 62.2079L85.3807 55.6402C85.5384 55.4168 85.5183 55.2883 85.5143 55.2704C85.5096 55.2491 85.4607 55.0812 85.0727 54.9518L84.5015 54.7614L84.4025 54.1675C84.3437 53.8149 84.3438 53.4821 84.3526 53.2173C84.3545 53.1617 84.3565 53.1119 84.3585 53.0666C84.0882 53.1258 83.744 53.2046 83.3323 53.3015C82.3256 53.5382 80.9374 53.8773 79.2889 54.2854C77.1238 54.8214 74.5177 55.4746 71.7494 56.1684C70.3024 56.5311 68.811 56.9049 67.3151 57.2788C62.9602 58.3676 58.5684 59.4575 55.1361 60.2755C53.4207 60.6843 51.9392 61.0266 50.8194 61.2671C50.2602 61.3872 49.7842 61.4835 49.411 61.5502C49.0696 61.6113 48.7317 61.6636 48.5 61.6636C48.2572 61.6636 47.9079 61.6031 47.5655 61.5355C47.1875 61.4609 46.705 61.3533 46.1387 61.2196C45.0046 60.9517 43.5027 60.5711 41.7636 60.1184C38.9067 59.3745 35.3905 58.4307 31.7789 57.4613C30.9926 57.2502 30.2018 57.038 29.4123 56.8263C24.9922 55.6412 20.6128 54.4744 17.2755 53.6361C15.6052 53.2166 14.2071 52.8821 13.1994 52.6689C12.6932 52.5619 12.3023 52.4891 12.0314 52.4507C11.9918 52.445 11.9566 52.4404 11.9255 52.4367Z" fill="#291711"/>
    <path d="M47.9877 60.1513C44.0882 60.7998 13.5057 54.4296 8.95639 55.078C4.40704 59.6175 8.95639 106.956 10.9061 108.902C12.8558 110.847 46.001 110.847 48.6007 108.902C51.2003 106.956 51.8871 59.5028 47.9877 60.1513Z" fill="#814158"/>
    <path fill-rule="evenodd" clip-rule="evenodd" d="M9.47399 56.0372C9.37428 56.201 9.26231 56.4325 9.14736 56.7498C8.95765 57.2735 8.7865 57.955 8.63867 58.7889C8.34316 60.4557 8.15761 62.6325 8.06695 65.1653C7.88585 70.2249 8.08685 76.5916 8.49203 82.8986C8.897 89.2022 9.5043 95.4214 10.1306 100.179C10.444 102.56 10.7604 104.561 11.056 106.018C11.2042 106.749 11.3434 107.324 11.469 107.734C11.5321 107.94 11.5862 108.086 11.6289 108.181C11.6297 108.183 11.6304 108.184 11.6312 108.186C11.6799 108.208 11.7683 108.243 11.9126 108.287C12.2045 108.376 12.6143 108.466 13.1428 108.554C14.196 108.729 15.6254 108.878 17.3237 108.999C20.7147 109.24 25.0967 109.361 29.5097 109.361C33.9224 109.361 38.3458 109.24 41.8191 108.999C43.558 108.878 45.0412 108.728 46.1591 108.552C46.7192 108.464 47.1689 108.372 47.5047 108.28C47.6721 108.234 47.7988 108.191 47.89 108.153C47.9154 108.143 47.936 108.134 47.9523 108.126C47.9529 108.125 47.9535 108.124 47.9541 108.123C47.9953 108.045 48.0502 107.915 48.1135 107.719C48.2399 107.328 48.3692 106.771 48.4957 106.049C48.7476 104.613 48.9695 102.638 49.153 100.295C49.5195 95.6144 49.7267 89.5472 49.7313 83.5531C49.7359 77.5555 49.5376 71.6618 49.0991 67.322C48.879 65.1428 48.6028 63.4047 48.2777 62.2514C48.1255 61.7116 47.9804 61.3662 47.8641 61.1733C47.2273 61.2293 46.3202 61.1828 45.2869 61.0888C44.0438 60.9757 42.4923 60.7799 40.7429 60.531C37.384 60.0533 33.2485 59.3734 29.0785 58.6877C28.9036 58.659 28.7285 58.6302 28.5535 58.6014C24.1996 57.8857 19.8414 57.1727 16.2882 56.6788C14.5113 56.4319 12.9477 56.2414 11.6934 56.1327C10.7063 56.0472 9.96479 56.0178 9.47399 56.0372ZM47.7747 61.0476C47.7747 61.0474 47.7768 61.0493 47.7809 61.054C47.7768 61.0501 47.7747 61.0478 47.7747 61.0476ZM47.9228 108.176C47.9228 108.176 47.9235 108.175 47.925 108.173C47.9236 108.175 47.9229 108.176 47.9228 108.176ZM45.4682 59.097C46.7041 59.2095 47.4825 59.2216 47.8236 59.1649C48.6634 59.0252 49.219 59.5982 49.4974 60.0154C49.7937 60.4592 50.0189 61.0569 50.2027 61.7088C50.5762 63.0341 50.8658 64.9121 51.089 67.1209C51.5372 71.5571 51.7359 77.5267 51.7313 83.5547C51.7267 89.5861 51.5184 95.7066 51.1469 100.451C50.9614 102.82 50.7336 104.867 50.4656 106.395C50.3321 107.156 50.1839 107.817 50.0165 108.334C49.933 108.593 49.837 108.84 49.7233 109.055C49.6179 109.255 49.4546 109.512 49.1998 109.703C48.8778 109.944 48.4401 110.097 48.036 110.208C47.5998 110.328 47.0689 110.434 46.47 110.528C45.2701 110.717 43.7221 110.871 41.9576 110.994C38.4241 111.239 33.9519 111.361 29.5097 111.361C25.0677 111.361 20.6353 111.239 17.182 110.994C15.4581 110.871 13.9579 110.717 12.8151 110.527C12.2456 110.432 11.7409 110.325 11.3317 110.201C10.9746 110.092 10.513 109.922 10.1998 109.61C10.0052 109.416 9.88155 109.173 9.80322 108.998C9.71458 108.799 9.63303 108.568 9.55679 108.32C9.40384 107.82 9.24978 107.174 9.0959 106.416C8.78725 104.894 8.46389 102.842 8.14772 100.44C7.51484 95.6326 6.90357 89.3686 6.49615 83.0268C6.08895 76.6884 5.88376 70.2477 6.06823 65.0937C6.16036 62.5198 6.35053 60.2382 6.66938 58.4397C6.82874 57.5409 7.02444 56.738 7.26694 56.0686C7.50347 55.4157 7.81403 54.8052 8.25005 54.3702L8.4857 54.135L8.81526 54.088C9.51152 53.9888 10.5933 54.0299 11.8661 54.1402C13.1703 54.2532 14.7727 54.449 16.5636 54.6979C20.146 55.1958 24.5301 55.9132 28.8779 56.6279C29.0492 56.6561 29.2205 56.6842 29.3916 56.7124C33.5715 57.3996 37.6878 58.0764 41.0245 58.551C42.7616 58.798 44.2746 58.9884 45.4682 59.097Z" fill="#291711"/>
    <path d="M49.7508 60.1711C53.5955 60.8197 83.5855 54.4255 88.0711 55.074C92.5566 59.6137 88.0711 106.956 86.1487 108.902C84.2263 110.847 51.5461 110.847 48.9829 108.902C46.4198 106.956 45.9061 59.5226 49.7508 60.1711Z" fill="#814158"/>
    <path fill-rule="evenodd" clip-rule="evenodd" d="M87.5484 56.0327C87.646 56.1963 87.7556 56.4267 87.868 56.7416C88.0554 57.266 88.2242 57.9483 88.3701 58.7827C88.6616 60.4505 88.8446 62.6281 88.934 65.1615C89.1126 70.2221 88.9144 76.5898 88.5148 82.8975C88.1155 89.2018 87.5167 95.4218 86.8992 100.18C86.5901 102.561 86.2781 104.563 85.9866 106.02C85.8404 106.751 85.7031 107.327 85.5791 107.737C85.5168 107.944 85.4633 108.09 85.4211 108.186C85.4205 108.187 85.4198 108.189 85.4192 108.19C85.3713 108.211 85.2861 108.246 85.1484 108.288C84.8621 108.376 84.4593 108.466 83.9388 108.554C82.9016 108.729 81.4933 108.878 79.8191 108.999C76.4766 109.24 72.1568 109.361 67.8061 109.361C63.4557 109.361 59.0951 109.24 55.6713 108.999C53.9572 108.878 52.4957 108.729 51.3946 108.553C50.8429 108.465 50.4006 108.373 50.0708 108.281C49.9064 108.235 49.7825 108.192 49.6936 108.155C49.671 108.146 49.6524 108.137 49.6373 108.13C49.6371 108.13 49.6369 108.13 49.6367 108.129C49.5963 108.051 49.5424 107.921 49.4804 107.725C49.3567 107.334 49.2308 106.776 49.1082 106.055C48.8641 104.619 48.6515 102.644 48.4782 100.302C48.132 95.6232 47.9481 89.5582 47.9639 83.5663C47.9798 77.5711 48.1956 71.6793 48.6431 67.3407C48.8678 65.1622 49.1464 63.424 49.4714 62.2701C49.6225 61.7337 49.7663 61.3885 49.8818 61.194C50.512 61.2487 51.4017 61.2013 52.41 61.1074C53.6321 60.9935 55.1561 60.7966 56.8736 60.5467C60.1705 60.0668 64.2281 59.3841 68.3191 58.6958C68.4915 58.6667 68.664 58.6377 68.8365 58.6087C73.1091 57.89 77.3852 57.174 80.8727 56.678C82.6168 56.43 84.1514 56.2387 85.3827 56.1295C86.3449 56.0441 87.068 56.0145 87.5484 56.0327ZM49.9739 61.063C49.9739 61.0627 49.9715 61.065 49.9667 61.0705C49.9715 61.066 49.9739 61.0633 49.9739 61.063ZM49.6674 108.182C49.6673 108.182 49.6666 108.181 49.6651 108.179C49.6666 108.181 49.6674 108.182 49.6674 108.182ZM52.2245 59.116C51.0102 59.2292 50.249 59.241 49.9171 59.1851C49.0733 59.0427 48.5195 59.626 48.2467 60.038C47.9535 60.4807 47.7296 61.077 47.5463 61.7279C47.1735 63.0516 46.8814 64.9279 46.6537 67.1355C46.1963 71.5691 45.9798 77.5358 45.9639 83.5611C45.948 89.5897 46.1328 95.7075 46.4837 100.449C46.6589 102.817 46.8769 104.863 47.1365 106.39C47.2657 107.151 47.4099 107.811 47.5735 108.328C47.6551 108.587 47.7491 108.833 47.8608 109.049C47.9639 109.248 48.1249 109.506 48.3783 109.698C48.6984 109.941 49.1331 110.095 49.5324 110.207C49.9639 110.328 50.4884 110.433 51.0793 110.528C52.2635 110.717 53.7907 110.871 55.5309 110.994C59.0156 111.239 63.4257 111.361 67.8061 111.361C72.1862 111.361 76.5571 111.239 79.9629 110.994C81.6629 110.871 83.1431 110.716 84.2711 110.526C84.8331 110.432 85.332 110.324 85.7369 110.2C86.0903 110.091 86.5489 109.92 86.86 109.605C87.0523 109.41 87.1741 109.167 87.2511 108.993C87.3383 108.795 87.4186 108.564 87.4936 108.316C87.6443 107.817 87.7961 107.171 87.9478 106.413C88.252 104.891 88.5708 102.839 88.8825 100.438C89.5065 95.6301 90.1092 89.3659 90.5108 83.0239C90.9123 76.6853 91.1146 70.2446 90.9327 65.0909C90.8419 62.5171 90.6544 60.2361 90.3402 58.4383C90.1832 57.5399 89.9904 56.7376 89.7515 56.0689C89.5187 55.417 89.2128 54.8068 88.7824 54.3711L88.5464 54.1323L88.2142 54.0843C87.5238 53.9844 86.4565 54.0264 85.206 54.1373C83.9237 54.2511 82.3494 54.4479 80.5911 54.698C77.0736 55.1982 72.771 55.9187 68.5047 56.6364C68.336 56.6648 68.1673 56.6932 67.9988 56.7215C63.8977 57.4116 59.8598 58.091 56.5855 58.5675C54.8807 58.8157 53.3959 59.0069 52.2245 59.116Z" fill="#291711"/>
    <path d="M45.9382 63.7377C45.9382 62.2007 45.9382 60.6636 46.4506 60.6636C46.9629 59.6389 51.0617 59.6389 52.5987 60.1513C54.1358 60.6636 53.1111 109.336 52.5987 109.849C52.0864 110.361 46.9629 109.849 46.4506 109.336C45.9382 108.824 45.9382 65.2748 45.9382 63.7377Z" fill="#DF9090"/>
    <path fill-rule="evenodd" clip-rule="evenodd" d="M49.0905 58.8323C50.4288 58.7654 51.9785 58.8905 52.915 59.2026C53.2171 59.3033 53.3936 59.507 53.4762 59.62C53.5663 59.7433 53.6248 59.869 53.6631 59.9641C53.7403 60.156 53.7954 60.3774 53.8383 60.5925C53.9262 61.0328 53.9974 61.6264 54.0574 62.3276C54.1781 63.7397 54.2628 65.7095 54.3189 68.0365C54.4314 72.6966 54.4313 78.8581 54.3672 85.0105C54.3031 91.1647 54.1749 97.3197 54.0305 101.971C53.9584 104.295 53.8821 106.249 53.8074 107.641C53.7702 108.335 53.7329 108.899 53.6959 109.303C53.6776 109.503 53.6579 109.679 53.6359 109.819C53.6253 109.886 53.6107 109.967 53.5898 110.046C53.5796 110.084 53.5624 110.144 53.5351 110.21C53.5175 110.252 53.4528 110.409 53.3058 110.556C53.1266 110.735 52.9222 110.825 52.7969 110.871C52.6573 110.923 52.5139 110.956 52.3846 110.979C52.1255 111.026 51.8262 111.048 51.5225 111.057C50.9093 111.074 50.1624 111.039 49.4341 110.973C48.7044 110.906 47.9632 110.806 47.3592 110.685C47.0592 110.625 46.7728 110.556 46.5306 110.477C46.4098 110.438 46.2831 110.391 46.1636 110.333C46.0575 110.282 45.8914 110.192 45.7435 110.044C45.6045 109.905 45.5402 109.759 45.5192 109.71C45.4903 109.642 45.4723 109.582 45.4616 109.542C45.4399 109.462 45.4256 109.382 45.4157 109.317C45.3952 109.184 45.3784 109.019 45.3637 108.838C45.3338 108.469 45.3069 107.958 45.2822 107.333C45.2328 106.078 45.1906 104.32 45.1545 102.229C45.0824 98.0442 45.0343 92.4998 45.0023 86.9271C44.9382 75.7807 44.9382 64.5069 44.9382 63.7378L44.9382 63.696C44.9382 62.9589 44.9382 62.1458 45.0084 61.5139C45.0431 61.2014 45.1034 60.8415 45.2352 60.5339C45.3136 60.351 45.4945 60.0237 45.8304 59.8268C45.9765 59.6719 46.1398 59.5544 46.2897 59.4657C46.5528 59.3101 46.8488 59.1992 47.1386 59.1171C47.7188 58.9528 48.4095 58.8664 49.0905 58.8323ZM47.3064 61.188C47.3069 61.1877 47.3074 61.1874 47.3079 61.1871C47.3731 61.1486 47.4933 61.0954 47.6838 61.0414C48.0643 60.9336 48.5905 60.8598 49.1903 60.8298C50.1845 60.7801 51.2083 60.8574 51.8793 60.9955C51.9442 61.325 52.0072 61.8262 52.0647 62.498C52.1801 63.8478 52.2636 65.7686 52.3195 68.0848C52.4312 72.7109 52.4313 78.8458 52.3673 84.9897C52.3033 91.1318 52.1754 97.273 52.0315 101.908C51.9595 104.227 51.8838 106.164 51.8103 107.534C51.7759 108.175 51.7425 108.684 51.7109 109.046C51.6374 109.051 51.5556 109.055 51.4654 109.057C50.9579 109.072 50.2958 109.043 49.6152 108.981C48.936 108.919 48.2682 108.828 47.7514 108.724C47.5983 108.694 47.4654 108.663 47.3538 108.634C47.3285 108.309 47.304 107.845 47.2807 107.254C47.2321 106.022 47.1902 104.282 47.1542 102.194C47.0823 98.0216 47.0343 92.4865 47.0023 86.9156C46.9382 75.7751 46.9382 64.5059 46.9382 63.7377C46.9382 62.9487 46.9396 62.2437 46.9962 61.7347C46.9989 61.7101 47.0017 61.6864 47.0046 61.6637H47.0686L47.3064 61.188ZM47.0333 108.532C47.0252 108.528 47.0263 108.528 47.0344 108.532C47.034 108.532 47.0336 108.532 47.0333 108.532ZM51.8077 60.7109C51.8076 60.7106 51.8079 60.7112 51.8077 60.7109Z" fill="#291711"/>
    <path d="M58.75 103C57.75 102.5 57.75 67 58.75 66C61.2499 64.5 84.2501 63 86.2501 63C88.2501 63 83.25 102 82.75 103C82.25 104 59.75 103.5 58.75 103Z" fill="#EAC5C5"/>
    <path d="M61.7695 75.275C62.0095 75.275 62.1912 75.3267 62.3145 75.43C62.4412 75.5333 62.5278 75.6717 62.5745 75.845C62.6212 76.015 62.6445 76.205 62.6445 76.415V77.695C62.6445 77.7817 62.6162 77.855 62.5595 77.915C62.5028 77.9717 62.4312 78 62.3445 78C62.2578 78 62.1862 77.9717 62.1295 77.915C62.0728 77.855 62.0445 77.7817 62.0445 77.695V76.415C62.0445 76.305 62.0312 76.2067 62.0045 76.12C61.9778 76.03 61.9295 75.9583 61.8595 75.905C61.7895 75.8517 61.6895 75.825 61.5595 75.825C61.4328 75.825 61.3245 75.8517 61.2345 75.905C61.1445 75.9583 61.0762 76.03 61.0295 76.12C60.9862 76.2067 60.9645 76.305 60.9645 76.415V77.695C60.9645 77.7817 60.9362 77.855 60.8795 77.915C60.8228 77.9717 60.7512 78 60.6645 78C60.5778 78 60.5062 77.9717 60.4495 77.915C60.3928 77.855 60.3645 77.7817 60.3645 77.695V74.605C60.3645 74.5183 60.3928 74.4467 60.4495 74.39C60.5062 74.33 60.5778 74.3 60.6645 74.3C60.7512 74.3 60.8228 74.33 60.8795 74.39C60.9362 74.4467 60.9645 74.5183 60.9645 74.605V75.845L60.8895 75.83C60.9195 75.7733 60.9612 75.7133 61.0145 75.65C61.0678 75.5833 61.1328 75.5217 61.2095 75.465C61.2862 75.4083 61.3712 75.3633 61.4645 75.33C61.5578 75.2933 61.6595 75.275 61.7695 75.275Z" fill="#763D3D"/>
    <path d="M65.8892 76.665C65.8892 76.9383 65.8275 77.18 65.7042 77.39C65.5842 77.5967 65.4209 77.7583 65.2142 77.875C65.0109 77.9917 64.7825 78.05 64.5292 78.05C64.2759 78.05 64.0459 77.9917 63.8392 77.875C63.6359 77.7583 63.4725 77.5967 63.3492 77.39C63.2292 77.18 63.1692 76.9383 63.1692 76.665C63.1692 76.3917 63.2292 76.1517 63.3492 75.945C63.4725 75.735 63.6359 75.5717 63.8392 75.455C64.0459 75.335 64.2759 75.275 64.5292 75.275C64.7825 75.275 65.0109 75.335 65.2142 75.455C65.4209 75.5717 65.5842 75.735 65.7042 75.945C65.8275 76.1517 65.8892 76.3917 65.8892 76.665ZM65.2892 76.665C65.2892 76.495 65.2542 76.3483 65.1842 76.225C65.1175 76.0983 65.0259 76 64.9092 75.93C64.7959 75.86 64.6692 75.825 64.5292 75.825C64.3892 75.825 64.2609 75.86 64.1442 75.93C64.0309 76 63.9392 76.0983 63.8692 76.225C63.8025 76.3483 63.7692 76.495 63.7692 76.665C63.7692 76.8317 63.8025 76.9783 63.8692 77.105C63.9392 77.2283 64.0309 77.325 64.1442 77.395C64.2609 77.465 64.3892 77.5 64.5292 77.5C64.6692 77.5 64.7959 77.465 64.9092 77.395C65.0259 77.325 65.1175 77.2283 65.1842 77.105C65.2542 76.9783 65.2892 76.8317 65.2892 76.665Z" fill="#763D3D"/>
    <path d="M69.4943 75.325C69.571 75.325 69.6376 75.355 69.6943 75.415C69.751 75.4717 69.7793 75.545 69.7793 75.635C69.7793 75.6583 69.7776 75.68 69.7743 75.7C69.771 75.7167 69.766 75.7333 69.7593 75.75L68.9943 77.81C68.971 77.8767 68.9293 77.9283 68.8693 77.965C68.8093 77.9983 68.746 78.01 68.6793 78C68.566 77.9933 68.481 77.93 68.4243 77.81L67.9293 76.385L68.0593 76.39L67.5943 77.81C67.5376 77.93 67.4526 77.9933 67.3393 78C67.276 78.01 67.2126 77.9983 67.1493 77.965C67.0893 77.9283 67.0476 77.8767 67.0243 77.81L66.2593 75.75C66.246 75.7133 66.2393 75.675 66.2393 75.635C66.2393 75.555 66.266 75.4833 66.3193 75.42C66.3726 75.3567 66.446 75.325 66.5393 75.325C66.6026 75.325 66.6593 75.34 66.7093 75.37C66.7593 75.4 66.7943 75.4483 66.8143 75.515L67.4193 77.155L67.2943 77.145L67.7493 75.91C67.8026 75.7867 67.8943 75.725 68.0243 75.725C68.0976 75.725 68.1526 75.7417 68.1893 75.775C68.2293 75.805 68.261 75.85 68.2843 75.91L68.7393 77.145L68.5893 77.165L69.2043 75.515C69.2443 75.3883 69.341 75.325 69.4943 75.325Z" fill="#763D3D"/>
    <path d="M71.6836 75.375H72.8686C72.9486 75.375 73.0152 75.4017 73.0686 75.455C73.1219 75.5083 73.1486 75.575 73.1486 75.655C73.1486 75.7317 73.1219 75.7967 73.0686 75.85C73.0152 75.9 72.9486 75.925 72.8686 75.925H71.6836C71.6036 75.925 71.5369 75.8983 71.4836 75.845C71.4302 75.7917 71.4036 75.725 71.4036 75.645C71.4036 75.5683 71.4302 75.505 71.4836 75.455C71.5369 75.4017 71.6036 75.375 71.6836 75.375ZM72.2186 74.75C72.3052 74.75 72.3752 74.78 72.4286 74.84C72.4852 74.8967 72.5136 74.9683 72.5136 75.055V77.28C72.5136 77.3267 72.5219 77.365 72.5386 77.395C72.5586 77.425 72.5836 77.4467 72.6136 77.46C72.6469 77.4733 72.6819 77.48 72.7186 77.48C72.7586 77.48 72.7952 77.4733 72.8286 77.46C72.8619 77.4433 72.9002 77.435 72.9436 77.435C72.9902 77.435 73.0319 77.4567 73.0686 77.5C73.1086 77.5433 73.1286 77.6033 73.1286 77.68C73.1286 77.7733 73.0769 77.85 72.9736 77.91C72.8736 77.97 72.7652 78 72.6486 78C72.5786 78 72.5002 77.995 72.4136 77.985C72.3302 77.9717 72.2502 77.9433 72.1736 77.9C72.1002 77.8533 72.0386 77.7833 71.9886 77.69C71.9386 77.5967 71.9136 77.4683 71.9136 77.305V75.055C71.9136 74.9683 71.9419 74.8967 71.9986 74.84C72.0586 74.78 72.1319 74.75 72.2186 74.75Z" fill="#763D3D"/>
    <path d="M76.27 76.665C76.27 76.9383 76.2084 77.18 76.085 77.39C75.965 77.5967 75.8017 77.7583 75.595 77.875C75.3917 77.9917 75.1634 78.05 74.91 78.05C74.6567 78.05 74.4267 77.9917 74.22 77.875C74.0167 77.7583 73.8534 77.5967 73.73 77.39C73.61 77.18 73.55 76.9383 73.55 76.665C73.55 76.3917 73.61 76.1517 73.73 75.945C73.8534 75.735 74.0167 75.5717 74.22 75.455C74.4267 75.335 74.6567 75.275 74.91 75.275C75.1634 75.275 75.3917 75.335 75.595 75.455C75.8017 75.5717 75.965 75.735 76.085 75.945C76.2084 76.1517 76.27 76.3917 76.27 76.665ZM75.67 76.665C75.67 76.495 75.635 76.3483 75.565 76.225C75.4984 76.0983 75.4067 76 75.29 75.93C75.1767 75.86 75.05 75.825 74.91 75.825C74.77 75.825 74.6417 75.86 74.525 75.93C74.4117 76 74.32 76.0983 74.25 76.225C74.1834 76.3483 74.15 76.495 74.15 76.665C74.15 76.8317 74.1834 76.9783 74.25 77.105C74.32 77.2283 74.4117 77.325 74.525 77.395C74.6417 77.465 74.77 77.5 74.91 77.5C75.05 77.5 75.1767 77.465 75.29 77.395C75.4067 77.325 75.4984 77.2283 75.565 77.105C75.635 76.9783 75.67 76.8317 75.67 76.665Z" fill="#763D3D"/>
    <path d="M79.5815 75.275C79.8149 75.275 80.0232 75.335 80.2065 75.455C80.3932 75.5717 80.5399 75.7333 80.6465 75.94C80.7565 76.1467 80.8115 76.3867 80.8115 76.66C80.8115 76.9333 80.7565 77.175 80.6465 77.385C80.5399 77.5917 80.3949 77.755 80.2115 77.875C80.0315 77.9917 79.8282 78.05 79.6015 78.05C79.4682 78.05 79.3432 78.0283 79.2265 77.985C79.1099 77.9417 79.0065 77.8867 78.9165 77.82C78.8299 77.7533 78.7615 77.6867 78.7115 77.62C78.6649 77.55 78.6415 77.4917 78.6415 77.445L78.7965 77.38V77.745C78.7965 77.8317 78.7682 77.905 78.7115 77.965C78.6549 78.0217 78.5832 78.05 78.4965 78.05C78.4099 78.05 78.3382 78.0217 78.2815 77.965C78.2249 77.9083 78.1965 77.835 78.1965 77.745V74.605C78.1965 74.5183 78.2249 74.4467 78.2815 74.39C78.3382 74.33 78.4099 74.3 78.4965 74.3C78.5832 74.3 78.6549 74.33 78.7115 74.39C78.7682 74.4467 78.7965 74.5183 78.7965 74.605V75.875L78.7115 75.83C78.7115 75.7867 78.7349 75.735 78.7815 75.675C78.8282 75.6117 78.8915 75.55 78.9715 75.49C79.0515 75.4267 79.1432 75.375 79.2465 75.335C79.3532 75.295 79.4649 75.275 79.5815 75.275ZM79.5065 75.825C79.3599 75.825 79.2315 75.8617 79.1215 75.935C79.0115 76.0083 78.9249 76.1083 78.8615 76.235C78.8015 76.3583 78.7715 76.5 78.7715 76.66C78.7715 76.8167 78.8015 76.96 78.8615 77.09C78.9249 77.2167 79.0115 77.3167 79.1215 77.39C79.2315 77.4633 79.3599 77.5 79.5065 77.5C79.6532 77.5 79.7799 77.4633 79.8865 77.39C79.9965 77.3167 80.0815 77.2167 80.1415 77.09C80.2049 76.96 80.2365 76.8167 80.2365 76.66C80.2365 76.5 80.2049 76.3583 80.1415 76.235C80.0815 76.1083 79.9965 76.0083 79.8865 75.935C79.7799 75.8617 79.6532 75.825 79.5065 75.825Z" fill="#763D3D"/>
    <path d="M82.5962 78.05C82.3128 78.05 82.0662 77.9917 81.8562 77.875C81.6495 77.755 81.4895 77.5933 81.3762 77.39C81.2662 77.1867 81.2112 76.9567 81.2112 76.7C81.2112 76.4 81.2712 76.145 81.3912 75.935C81.5145 75.7217 81.6745 75.5583 81.8712 75.445C82.0678 75.3317 82.2762 75.275 82.4962 75.275C82.6662 75.275 82.8262 75.31 82.9762 75.38C83.1295 75.45 83.2645 75.5467 83.3812 75.67C83.4978 75.79 83.5895 75.93 83.6562 76.09C83.7262 76.25 83.7612 76.42 83.7612 76.6C83.7578 76.68 83.7262 76.745 83.6662 76.795C83.6062 76.845 83.5362 76.87 83.4562 76.87H81.5462L81.3962 76.37H83.2312L83.1212 76.47V76.335C83.1145 76.2383 83.0795 76.1517 83.0162 76.075C82.9562 75.9983 82.8795 75.9383 82.7862 75.895C82.6962 75.8483 82.5995 75.825 82.4962 75.825C82.3962 75.825 82.3028 75.8383 82.2162 75.865C82.1295 75.8917 82.0545 75.9367 81.9912 76C81.9278 76.0633 81.8778 76.1483 81.8412 76.255C81.8045 76.3617 81.7862 76.4967 81.7862 76.66C81.7862 76.84 81.8228 76.9933 81.8962 77.12C81.9728 77.2433 82.0695 77.3383 82.1862 77.405C82.3062 77.4683 82.4328 77.5 82.5662 77.5C82.6895 77.5 82.7878 77.49 82.8612 77.47C82.9345 77.45 82.9928 77.4267 83.0362 77.4C83.0828 77.37 83.1245 77.345 83.1612 77.325C83.2212 77.295 83.2778 77.28 83.3312 77.28C83.4045 77.28 83.4645 77.305 83.5112 77.355C83.5612 77.405 83.5862 77.4633 83.5862 77.53C83.5862 77.62 83.5395 77.7017 83.4462 77.775C83.3595 77.8483 83.2378 77.9133 83.0812 77.97C82.9245 78.0233 82.7628 78.05 82.5962 78.05Z" fill="#763D3D"/>
    <path d="M64.6077 81.275C64.6944 81.275 64.7661 81.3033 64.8227 81.36C64.8794 81.4167 64.9077 81.49 64.9077 81.58V83.695C64.9077 83.7817 64.8794 83.855 64.8227 83.915C64.7661 83.9717 64.6944 84 64.6077 84C64.5211 84 64.4494 83.9717 64.3927 83.915C64.3361 83.855 64.3077 83.7817 64.3077 83.695V83.45L64.4177 83.495C64.4177 83.5383 64.3944 83.5917 64.3477 83.655C64.3011 83.715 64.2377 83.775 64.1577 83.835C64.0777 83.895 63.9827 83.9467 63.8727 83.99C63.7661 84.03 63.6494 84.05 63.5227 84.05C63.2927 84.05 63.0844 83.9917 62.8977 83.875C62.7111 83.755 62.5627 83.5917 62.4527 83.385C62.3461 83.175 62.2927 82.935 62.2927 82.665C62.2927 82.3917 62.3461 82.1517 62.4527 81.945C62.5627 81.735 62.7094 81.5717 62.8927 81.455C63.0761 81.335 63.2794 81.275 63.5027 81.275C63.6461 81.275 63.7777 81.2967 63.8977 81.34C64.0177 81.3833 64.1211 81.4383 64.2077 81.505C64.2977 81.5717 64.3661 81.64 64.4127 81.71C64.4627 81.7767 64.4877 81.8333 64.4877 81.88L64.3077 81.945V81.58C64.3077 81.4933 64.3361 81.4217 64.3927 81.365C64.4494 81.305 64.5211 81.275 64.6077 81.275ZM63.5977 83.5C63.7444 83.5 63.8727 83.4633 63.9827 83.39C64.0927 83.3167 64.1777 83.2167 64.2377 83.09C64.3011 82.9633 64.3327 82.8217 64.3327 82.665C64.3327 82.505 64.3011 82.3617 64.2377 82.235C64.1777 82.1083 64.0927 82.0083 63.9827 81.935C63.8727 81.8617 63.7444 81.825 63.5977 81.825C63.4544 81.825 63.3277 81.8617 63.2177 81.935C63.1077 82.0083 63.0211 82.1083 62.9577 82.235C62.8977 82.3617 62.8677 82.505 62.8677 82.665C62.8677 82.8217 62.8977 82.9633 62.9577 83.09C63.0211 83.2167 63.1077 83.3167 63.2177 83.39C63.3277 83.4633 63.4544 83.5 63.5977 83.5Z" fill="#763D3D"/>
    <path d="M68.3437 81.275C68.5771 81.275 68.7854 81.335 68.9687 81.455C69.1554 81.5717 69.3021 81.7333 69.4087 81.94C69.5187 82.1467 69.5737 82.3867 69.5737 82.66C69.5737 82.9333 69.5187 83.175 69.4087 83.385C69.3021 83.5917 69.1571 83.755 68.9737 83.875C68.7937 83.9917 68.5904 84.05 68.3637 84.05C68.2304 84.05 68.1054 84.0283 67.9887 83.985C67.8721 83.9417 67.7687 83.8867 67.6787 83.82C67.5921 83.7533 67.5237 83.6867 67.4737 83.62C67.4271 83.55 67.4037 83.4917 67.4037 83.445L67.5587 83.38V83.745C67.5587 83.8317 67.5304 83.905 67.4737 83.965C67.4171 84.0217 67.3454 84.05 67.2587 84.05C67.1721 84.05 67.1004 84.0217 67.0437 83.965C66.9871 83.9083 66.9587 83.835 66.9587 83.745V80.605C66.9587 80.5183 66.9871 80.4467 67.0437 80.39C67.1004 80.33 67.1721 80.3 67.2587 80.3C67.3454 80.3 67.4171 80.33 67.4737 80.39C67.5304 80.4467 67.5587 80.5183 67.5587 80.605V81.875L67.4737 81.83C67.4737 81.7867 67.4971 81.735 67.5437 81.675C67.5904 81.6117 67.6537 81.55 67.7337 81.49C67.8137 81.4267 67.9054 81.375 68.0087 81.335C68.1154 81.295 68.2271 81.275 68.3437 81.275ZM68.2687 81.825C68.1221 81.825 67.9937 81.8617 67.8837 81.935C67.7737 82.0083 67.6871 82.1083 67.6237 82.235C67.5637 82.3583 67.5337 82.5 67.5337 82.66C67.5337 82.8167 67.5637 82.96 67.6237 83.09C67.6871 83.2167 67.7737 83.3167 67.8837 83.39C67.9937 83.4633 68.1221 83.5 68.2687 83.5C68.4154 83.5 68.5421 83.4633 68.6487 83.39C68.7587 83.3167 68.8437 83.2167 68.9037 83.09C68.9671 82.96 68.9987 82.8167 68.9987 82.66C68.9987 82.5 68.9671 82.3583 68.9037 82.235C68.8437 82.1083 68.7587 82.0083 68.6487 81.935C68.5421 81.8617 68.4154 81.825 68.2687 81.825Z" fill="#763D3D"/>
    <path d="M71.3584 84.05C71.0751 84.05 70.8284 83.9917 70.6184 83.875C70.4117 83.755 70.2517 83.5933 70.1384 83.39C70.0284 83.1867 69.9734 82.9567 69.9734 82.7C69.9734 82.4 70.0334 82.145 70.1534 81.935C70.2767 81.7217 70.4367 81.5583 70.6334 81.445C70.8301 81.3317 71.0384 81.275 71.2584 81.275C71.4284 81.275 71.5884 81.31 71.7384 81.38C71.8917 81.45 72.0267 81.5467 72.1434 81.67C72.2601 81.79 72.3517 81.93 72.4184 82.09C72.4884 82.25 72.5234 82.42 72.5234 82.6C72.5201 82.68 72.4884 82.745 72.4284 82.795C72.3684 82.845 72.2984 82.87 72.2184 82.87H70.3084L70.1584 82.37H71.9934L71.8834 82.47V82.335C71.8767 82.2383 71.8417 82.1517 71.7784 82.075C71.7184 81.9983 71.6417 81.9383 71.5484 81.895C71.4584 81.8483 71.3617 81.825 71.2584 81.825C71.1584 81.825 71.0651 81.8383 70.9784 81.865C70.8917 81.8917 70.8167 81.9367 70.7534 82C70.6901 82.0633 70.6401 82.1483 70.6034 82.255C70.5667 82.3617 70.5484 82.4967 70.5484 82.66C70.5484 82.84 70.5851 82.9933 70.6584 83.12C70.7351 83.2433 70.8317 83.3383 70.9484 83.405C71.0684 83.4683 71.1951 83.5 71.3284 83.5C71.4517 83.5 71.5501 83.49 71.6234 83.47C71.6967 83.45 71.7551 83.4267 71.7984 83.4C71.8451 83.37 71.8867 83.345 71.9234 83.325C71.9834 83.295 72.0401 83.28 72.0934 83.28C72.1667 83.28 72.2267 83.305 72.2734 83.355C72.3234 83.405 72.3484 83.4633 72.3484 83.53C72.3484 83.62 72.3017 83.7017 72.2084 83.775C72.1217 83.8483 72.0001 83.9133 71.8434 83.97C71.6867 84.0233 71.5251 84.05 71.3584 84.05Z" fill="#763D3D"/>
    <path d="M73.0776 81.375H74.2626C74.3426 81.375 74.4093 81.4017 74.4626 81.455C74.5159 81.5083 74.5426 81.575 74.5426 81.655C74.5426 81.7317 74.5159 81.7967 74.4626 81.85C74.4093 81.9 74.3426 81.925 74.2626 81.925H73.0776C72.9976 81.925 72.9309 81.8983 72.8776 81.845C72.8243 81.7917 72.7976 81.725 72.7976 81.645C72.7976 81.5683 72.8243 81.505 72.8776 81.455C72.9309 81.4017 72.9976 81.375 73.0776 81.375ZM73.6126 80.75C73.6993 80.75 73.7693 80.78 73.8226 80.84C73.8793 80.8967 73.9076 80.9683 73.9076 81.055V83.28C73.9076 83.3267 73.9159 83.365 73.9326 83.395C73.9526 83.425 73.9776 83.4467 74.0076 83.46C74.0409 83.4733 74.0759 83.48 74.1126 83.48C74.1526 83.48 74.1893 83.4733 74.2226 83.46C74.2559 83.4433 74.2943 83.435 74.3376 83.435C74.3843 83.435 74.4259 83.4567 74.4626 83.5C74.5026 83.5433 74.5226 83.6033 74.5226 83.68C74.5226 83.7733 74.4709 83.85 74.3676 83.91C74.2676 83.97 74.1593 84 74.0426 84C73.9726 84 73.8943 83.995 73.8076 83.985C73.7243 83.9717 73.6443 83.9433 73.5676 83.9C73.4943 83.8533 73.4326 83.7833 73.3826 83.69C73.3326 83.5967 73.3076 83.4683 73.3076 83.305V81.055C73.3076 80.9683 73.3359 80.8967 73.3926 80.84C73.4526 80.78 73.5259 80.75 73.6126 80.75Z" fill="#763D3D"/>
    <path d="M75.1235 81.375H76.3085C76.3885 81.375 76.4552 81.4017 76.5085 81.455C76.5618 81.5083 76.5885 81.575 76.5885 81.655C76.5885 81.7317 76.5618 81.7967 76.5085 81.85C76.4552 81.9 76.3885 81.925 76.3085 81.925H75.1235C75.0435 81.925 74.9768 81.8983 74.9235 81.845C74.8702 81.7917 74.8435 81.725 74.8435 81.645C74.8435 81.5683 74.8702 81.505 74.9235 81.455C74.9768 81.4017 75.0435 81.375 75.1235 81.375ZM75.6585 80.75C75.7452 80.75 75.8152 80.78 75.8685 80.84C75.9252 80.8967 75.9535 80.9683 75.9535 81.055V83.28C75.9535 83.3267 75.9618 83.365 75.9785 83.395C75.9985 83.425 76.0235 83.4467 76.0535 83.46C76.0868 83.4733 76.1218 83.48 76.1585 83.48C76.1985 83.48 76.2352 83.4733 76.2685 83.46C76.3018 83.4433 76.3402 83.435 76.3835 83.435C76.4302 83.435 76.4718 83.4567 76.5085 83.5C76.5485 83.5433 76.5685 83.6033 76.5685 83.68C76.5685 83.7733 76.5168 83.85 76.4135 83.91C76.3135 83.97 76.2052 84 76.0885 84C76.0185 84 75.9402 83.995 75.8535 83.985C75.7702 83.9717 75.6902 83.9433 75.6135 83.9C75.5402 83.8533 75.4785 83.7833 75.4285 83.69C75.3785 83.5967 75.3535 83.4683 75.3535 83.305V81.055C75.3535 80.9683 75.3818 80.8967 75.4385 80.84C75.4985 80.78 75.5718 80.75 75.6585 80.75Z" fill="#763D3D"/>
    <path d="M78.375 84.05C78.0917 84.05 77.845 83.9917 77.635 83.875C77.4283 83.755 77.2683 83.5933 77.155 83.39C77.045 83.1867 76.99 82.9567 76.99 82.7C76.99 82.4 77.05 82.145 77.17 81.935C77.2933 81.7217 77.4533 81.5583 77.65 81.445C77.8467 81.3317 78.055 81.275 78.275 81.275C78.445 81.275 78.605 81.31 78.755 81.38C78.9083 81.45 79.0433 81.5467 79.16 81.67C79.2767 81.79 79.3683 81.93 79.435 82.09C79.505 82.25 79.54 82.42 79.54 82.6C79.5367 82.68 79.505 82.745 79.445 82.795C79.385 82.845 79.315 82.87 79.235 82.87H77.325L77.175 82.37H79.01L78.9 82.47V82.335C78.8933 82.2383 78.8583 82.1517 78.795 82.075C78.735 81.9983 78.6583 81.9383 78.565 81.895C78.475 81.8483 78.3783 81.825 78.275 81.825C78.175 81.825 78.0817 81.8383 77.995 81.865C77.9083 81.8917 77.8333 81.9367 77.77 82C77.7067 82.0633 77.6567 82.1483 77.62 82.255C77.5833 82.3617 77.565 82.4967 77.565 82.66C77.565 82.84 77.6017 82.9933 77.675 83.12C77.7517 83.2433 77.8483 83.3383 77.965 83.405C78.085 83.4683 78.2117 83.5 78.345 83.5C78.4683 83.5 78.5667 83.49 78.64 83.47C78.7133 83.45 78.7717 83.4267 78.815 83.4C78.8617 83.37 78.9033 83.345 78.94 83.325C79 83.295 79.0567 83.28 79.11 83.28C79.1833 83.28 79.2433 83.305 79.29 83.355C79.34 83.405 79.365 83.4633 79.365 83.53C79.365 83.62 79.3183 83.7017 79.225 83.775C79.1383 83.8483 79.0167 83.9133 78.86 83.97C78.7033 84.0233 78.5417 84.05 78.375 84.05Z" fill="#763D3D"/>
    <path d="M80.3642 84C80.2775 84 80.2059 83.9717 80.1492 83.915C80.0925 83.855 80.0642 83.7817 80.0642 83.695V81.63C80.0642 81.5433 80.0925 81.4717 80.1492 81.415C80.2059 81.355 80.2775 81.325 80.3642 81.325C80.4509 81.325 80.5225 81.355 80.5792 81.415C80.6359 81.4717 80.6642 81.5433 80.6642 81.63V82.1L80.6292 81.765C80.6659 81.685 80.7125 81.615 80.7692 81.555C80.8292 81.4917 80.8959 81.44 80.9692 81.4C81.0425 81.3567 81.1209 81.325 81.2042 81.305C81.2875 81.285 81.3709 81.275 81.4542 81.275C81.5542 81.275 81.6375 81.3033 81.7042 81.36C81.7742 81.4167 81.8092 81.4833 81.8092 81.56C81.8092 81.67 81.7809 81.75 81.7242 81.8C81.6675 81.8467 81.6059 81.87 81.5392 81.87C81.4759 81.87 81.4175 81.8583 81.3642 81.835C81.3142 81.8117 81.2559 81.8 81.1892 81.8C81.1292 81.8 81.0675 81.815 81.0042 81.845C80.9442 81.8717 80.8875 81.915 80.8342 81.975C80.7842 82.035 80.7425 82.11 80.7092 82.2C80.6792 82.2867 80.6642 82.39 80.6642 82.51V83.695C80.6642 83.7817 80.6359 83.855 80.5792 83.915C80.5225 83.9717 80.4509 84 80.3642 84Z" fill="#763D3D"/>
    <path d="M66.4717 87.275C66.7383 87.275 66.935 87.34 67.0617 87.47C67.1883 87.5967 67.2717 87.7617 67.3117 87.965L67.2267 87.92L67.2667 87.84C67.3067 87.7633 67.3683 87.6817 67.4517 87.595C67.535 87.505 67.635 87.43 67.7517 87.37C67.8717 87.3067 68.005 87.275 68.1517 87.275C68.3917 87.275 68.5733 87.3267 68.6967 87.43C68.8233 87.5333 68.91 87.6717 68.9567 87.845C69.0033 88.015 69.0267 88.205 69.0267 88.415V89.695C69.0267 89.7817 68.9983 89.855 68.9417 89.915C68.885 89.9717 68.8133 90 68.7267 90C68.64 90 68.5683 89.9717 68.5117 89.915C68.455 89.855 68.4267 89.7817 68.4267 89.695V88.415C68.4267 88.305 68.4133 88.2067 68.3867 88.12C68.36 88.03 68.3117 87.9583 68.2417 87.905C68.1717 87.8517 68.0717 87.825 67.9417 87.825C67.815 87.825 67.7067 87.8517 67.6167 87.905C67.5267 87.9583 67.4583 88.03 67.4117 88.12C67.3683 88.2067 67.3467 88.305 67.3467 88.415V89.695C67.3467 89.7817 67.3183 89.855 67.2617 89.915C67.205 89.9717 67.1333 90 67.0467 90C66.96 90 66.8883 89.9717 66.8317 89.915C66.775 89.855 66.7467 89.7817 66.7467 89.695V88.415C66.7467 88.305 66.7333 88.2067 66.7067 88.12C66.68 88.03 66.6317 87.9583 66.5617 87.905C66.4917 87.8517 66.3917 87.825 66.2617 87.825C66.135 87.825 66.0267 87.8517 65.9367 87.905C65.8467 87.9583 65.7783 88.03 65.7317 88.12C65.6883 88.2067 65.6667 88.305 65.6667 88.415V89.695C65.6667 89.7817 65.6383 89.855 65.5817 89.915C65.525 89.9717 65.4533 90 65.3667 90C65.28 90 65.2083 89.9717 65.1517 89.915C65.095 89.855 65.0667 89.7817 65.0667 89.695V87.63C65.0667 87.5433 65.095 87.4717 65.1517 87.415C65.2083 87.355 65.28 87.325 65.3667 87.325C65.4533 87.325 65.525 87.355 65.5817 87.415C65.6383 87.4717 65.6667 87.5433 65.6667 87.63V87.845L65.5917 87.83C65.6217 87.7733 65.6633 87.7133 65.7167 87.65C65.77 87.5833 65.835 87.5217 65.9117 87.465C65.9883 87.4083 66.0733 87.3633 66.1667 87.33C66.26 87.2933 66.3617 87.275 66.4717 87.275Z" fill="#763D3D"/>
    <path d="M70.936 90.05C70.6527 90.05 70.406 89.9917 70.196 89.875C69.9894 89.755 69.8294 89.5933 69.716 89.39C69.606 89.1867 69.551 88.9567 69.551 88.7C69.551 88.4 69.611 88.145 69.731 87.935C69.8544 87.7217 70.0144 87.5583 70.211 87.445C70.4077 87.3317 70.616 87.275 70.836 87.275C71.006 87.275 71.166 87.31 71.316 87.38C71.4694 87.45 71.6044 87.5467 71.721 87.67C71.8377 87.79 71.9294 87.93 71.996 88.09C72.066 88.25 72.101 88.42 72.101 88.6C72.0977 88.68 72.066 88.745 72.006 88.795C71.946 88.845 71.876 88.87 71.796 88.87H69.886L69.736 88.37H71.571L71.461 88.47V88.335C71.4544 88.2383 71.4194 88.1517 71.356 88.075C71.296 87.9983 71.2194 87.9383 71.126 87.895C71.036 87.8483 70.9394 87.825 70.836 87.825C70.736 87.825 70.6427 87.8383 70.556 87.865C70.4694 87.8917 70.3944 87.9367 70.331 88C70.2677 88.0633 70.2177 88.1483 70.181 88.255C70.1444 88.3617 70.126 88.4967 70.126 88.66C70.126 88.84 70.1627 88.9933 70.236 89.12C70.3127 89.2433 70.4094 89.3383 70.526 89.405C70.646 89.4683 70.7727 89.5 70.906 89.5C71.0294 89.5 71.1277 89.49 71.201 89.47C71.2744 89.45 71.3327 89.4267 71.376 89.4C71.4227 89.37 71.4644 89.345 71.501 89.325C71.561 89.295 71.6177 89.28 71.671 89.28C71.7444 89.28 71.8044 89.305 71.851 89.355C71.901 89.405 71.926 89.4633 71.926 89.53C71.926 89.62 71.8794 89.7017 71.786 89.775C71.6994 89.8483 71.5777 89.9133 71.421 89.97C71.2644 90.0233 71.1027 90.05 70.936 90.05Z" fill="#763D3D"/>
    <path d="M75.2202 88.665C75.2202 88.9383 75.1586 89.18 75.0352 89.39C74.9152 89.5967 74.7519 89.7583 74.5452 89.875C74.3419 89.9917 74.1136 90.05 73.8602 90.05C73.6069 90.05 73.3769 89.9917 73.1702 89.875C72.9669 89.7583 72.8036 89.5967 72.6802 89.39C72.5602 89.18 72.5002 88.9383 72.5002 88.665C72.5002 88.3917 72.5602 88.1517 72.6802 87.945C72.8036 87.735 72.9669 87.5717 73.1702 87.455C73.3769 87.335 73.6069 87.275 73.8602 87.275C74.1136 87.275 74.3419 87.335 74.5452 87.455C74.7519 87.5717 74.9152 87.735 75.0352 87.945C75.1586 88.1517 75.2202 88.3917 75.2202 88.665ZM74.6202 88.665C74.6202 88.495 74.5852 88.3483 74.5152 88.225C74.4486 88.0983 74.3569 88 74.2402 87.93C74.1269 87.86 74.0002 87.825 73.8602 87.825C73.7202 87.825 73.5919 87.86 73.4752 87.93C73.3619 88 73.2702 88.0983 73.2002 88.225C73.1336 88.3483 73.1002 88.495 73.1002 88.665C73.1002 88.8317 73.1336 88.9783 73.2002 89.105C73.2702 89.2283 73.3619 89.325 73.4752 89.395C73.5919 89.465 73.7202 89.5 73.8602 89.5C74.0002 89.5 74.1269 89.465 74.2402 89.395C74.3569 89.325 74.4486 89.2283 74.5152 89.105C74.5852 88.9783 74.6202 88.8317 74.6202 88.665Z" fill="#763D3D"/>
    <path d="M78.8254 87.325C78.902 87.325 78.9687 87.355 79.0254 87.415C79.082 87.4717 79.1104 87.545 79.1104 87.635C79.1104 87.6583 79.1087 87.68 79.1054 87.7C79.102 87.7167 79.097 87.7333 79.0904 87.75L78.3254 89.81C78.302 89.8767 78.2604 89.9283 78.2004 89.965C78.1404 89.9983 78.077 90.01 78.0104 90C77.897 89.9933 77.812 89.93 77.7554 89.81L77.2604 88.385L77.3904 88.39L76.9254 89.81C76.8687 89.93 76.7837 89.9933 76.6704 90C76.607 90.01 76.5437 89.9983 76.4804 89.965C76.4204 89.9283 76.3787 89.8767 76.3554 89.81L75.5904 87.75C75.577 87.7133 75.5704 87.675 75.5704 87.635C75.5704 87.555 75.597 87.4833 75.6504 87.42C75.7037 87.3567 75.777 87.325 75.8704 87.325C75.9337 87.325 75.9904 87.34 76.0404 87.37C76.0904 87.4 76.1254 87.4483 76.1454 87.515L76.7504 89.155L76.6254 89.145L77.0804 87.91C77.1337 87.7867 77.2254 87.725 77.3554 87.725C77.4287 87.725 77.4837 87.7417 77.5204 87.775C77.5604 87.805 77.592 87.85 77.6154 87.91L78.0704 89.145L77.9204 89.165L78.5354 87.515C78.5754 87.3883 78.672 87.325 78.8254 87.325Z" fill="#763D3D"/>
    <path d="M33 72C33 75.3137 30.3137 78 27 78C23.6863 78 21 75.3137 21 72C21 68.6863 23.6863 66 27 66C30.3137 66 33 68.6863 33 72Z" fill="#EAC5C5"/>
    <path d="M15 102.5C14 101 13.5002 82.9999 14.5002 81.9999C16.5003 79.9999 37.5002 81.5 39.0002 82C40.5002 82.5 39.5 102 39 103C38.5 104 15.2774 102.916 15 102.5Z" fill="#EAC5C5"/>
    <path d="M47.2031 39.3176C47.2031 38.6259 35.5312 38.4531 35.5312 39.3176C35.5312 42.7759 37.6927 44.0728 42.4479 44.0728C47.2031 44.0728 47.2031 40.1822 47.2031 39.3176Z" fill="#5E9DD8"/>
    <path fill-rule="evenodd" clip-rule="evenodd" d="M36.562 39.9555C36.6755 41.0586 37.0989 41.7186 37.7611 42.16C38.6388 42.7452 40.1146 43.0728 42.4479 43.0728C43.4991 43.0728 44.2139 42.8586 44.7047 42.581C45.1918 42.3055 45.513 41.9367 45.7325 41.5375C46.0166 41.0211 46.1293 40.4589 46.1739 40.0038C45.9381 39.9675 45.6409 39.9323 45.2884 39.9001C44.2308 39.8035 42.8015 39.7447 41.3598 39.734C39.9168 39.7233 38.4921 39.7611 37.4411 39.8519C37.0861 39.8826 36.7916 39.9179 36.562 39.9555ZM47.8515 38.5228C47.9857 38.6479 48.2031 38.915 48.2031 39.3176L48.2031 39.3362C48.2033 39.7938 48.2037 41.1944 47.4849 42.5013C47.1101 43.1829 46.5396 43.8409 45.6894 44.3218C44.8427 44.8007 43.7743 45.0728 42.4479 45.0728C40.026 45.0728 38.0435 44.752 36.6517 43.8241C35.1631 42.8317 34.5312 41.2787 34.5312 39.3176C34.5312 38.6543 35.0695 38.351 35.1881 38.2871C35.3871 38.1799 35.6112 38.1138 35.7992 38.0687C36.1922 37.9743 36.7075 37.9078 37.2689 37.8593C38.4064 37.761 39.8996 37.7231 41.3746 37.7341C42.8509 37.745 44.3395 37.8051 45.4704 37.9084C46.0298 37.9595 46.534 38.0239 46.9136 38.1063C47.0951 38.1456 47.3036 38.2005 47.4875 38.2845C47.5764 38.3251 47.7179 38.3982 47.8515 38.5228Z" fill="#291711"/>
    <path d="M62.7656 39.3176C62.7656 38.6259 51.0938 38.4531 51.0938 39.3176C51.0938 42.7759 53.2552 44.0728 58.0104 44.0728C62.7656 44.0728 62.7656 40.1822 62.7656 39.3176Z" fill="#5E9DD8"/>
    <path fill-rule="evenodd" clip-rule="evenodd" d="M52.1245 39.9555C52.238 41.0586 52.6614 41.7186 53.3236 42.16C54.2013 42.7452 55.6771 43.0728 58.0104 43.0728C59.0616 43.0728 59.7764 42.8586 60.2672 42.581C60.7543 42.3055 61.0755 41.9367 61.295 41.5375C61.5791 41.0211 61.6918 40.4589 61.7364 40.0038C61.5006 39.9675 61.2034 39.9323 60.8509 39.9001C59.7933 39.8035 58.364 39.7447 56.9223 39.734C55.4793 39.7233 54.0546 39.7611 53.0036 39.8519C52.6486 39.8826 52.3541 39.9179 52.1245 39.9555ZM63.414 38.5228C63.5482 38.6479 63.7656 38.915 63.7656 39.3176L63.7656 39.3362C63.7658 39.7938 63.7662 41.1944 63.0474 42.5013C62.6726 43.1829 62.1021 43.8409 61.2519 44.3218C60.4052 44.8007 59.3368 45.0728 58.0104 45.0728C55.5885 45.0728 53.606 44.752 52.2142 43.8241C50.7256 42.8317 50.0938 41.2787 50.0938 39.3176C50.0938 38.6543 50.632 38.351 50.7506 38.2871C50.9496 38.1799 51.1737 38.1138 51.3617 38.0687C51.7547 37.9743 52.27 37.9078 52.8314 37.8593C53.9689 37.761 55.4621 37.7231 56.9371 37.7341C58.4134 37.745 59.902 37.8051 61.0329 37.9084C61.5923 37.9595 62.0965 38.0239 62.4761 38.1063C62.6576 38.1456 62.8661 38.2005 63.05 38.2845C63.1389 38.3251 63.2804 38.3982 63.414 38.5228Z" fill="#291711"/>
    <path fill-rule="evenodd" clip-rule="evenodd" d="M48.1353 39.6328C48.158 39.5859 48.2031 39.4757 48.2031 39.3177H46.2031C46.2031 38.8887 46.4316 38.5695 46.5682 38.4102C46.7335 38.2174 46.9422 38.0519 47.1672 37.9181C47.6215 37.6476 48.2301 37.4531 48.9323 37.4531C50.1889 37.4531 51.098 38.0972 51.5189 38.3954C51.5691 38.431 51.6124 38.4616 51.6485 38.4857L50.539 40.1498C50.4744 40.1066 50.4114 40.0636 50.3494 40.0212C49.9078 39.7193 49.5186 39.4531 48.9323 39.4531C48.597 39.4531 48.341 39.5468 48.1901 39.6366C48.122 39.6772 48.0913 39.7073 48.087 39.7116C48.0864 39.7122 48.0863 39.7123 48.0867 39.7118L48.0867 39.7118C48.0888 39.7093 48.1106 39.6839 48.1353 39.6328Z" fill="#291711"/>
  </g>
</svg>
