<svg width="100" height="100" viewBox="0 0 100 100" fill="none"
  xmlns="http://www.w3.org/2000/svg">
  <mask id="mask0_144_368" style="mask-type:alpha" maskUnits="userSpaceOnUse" x="0" y="0" width="100" height="100">
    <path d="M100 50C100 77.6142 77.6142 100 50 100C22.3858 100 0 77.6142 0 50C0 22.3858 22.3858 0 50 0C77.6142 0 100 22.3858 100 50Z" fill="#D9D9D9"/>
  </mask>
  <g mask="url(#mask0_144_368)">
    <path d="M158 86C158 141.781 112.781 187 57 187C1.21924 187 -44 141.781 -44 86C-44 30.2192 1.21924 -15 57 -15C112.781 -15 158 30.2192 158 86Z" fill="#DCBFAF"/>
    <path d="M16.3096 79.2122C12.1112 98.8518 14.0919 109.411 18.6049 119.765L71.1657 123.328C79.9005 111.679 83.0682 88.501 79.9005 75.4384C75.9914 59.3182 73.6959 51.6667 67.5747 42.4849C64.2965 37.5676 62.2931 25.7659 63.7489 18.0001L49.9763 25.6516L36.9687 18.0001C38.7157 20.5887 39.4288 25.0465 35.2361 37.4719C29.9952 53.0037 20.9007 57.736 16.3096 79.2122Z" fill="#A28A82"/>
    <path fill-rule="evenodd" clip-rule="evenodd" d="M36.24 17.3152C36.5599 16.9747 37.073 16.9012 37.4757 17.1381L49.9904 24.4997L63.2632 17.1259C63.602 16.9376 64.0191 16.9622 64.3335 17.1888C64.6479 17.4154 64.8031 17.8033 64.7317 18.1843C64.0314 21.9197 64.1569 26.6894 64.8738 31.1521C65.594 35.6353 66.8853 39.6482 68.4066 41.9302C74.6336 51.2707 76.9611 59.0742 80.8723 75.2027C82.4977 81.9055 82.4848 91.1099 80.9827 100.078C79.4817 109.041 76.4675 117.924 71.9657 123.928C71.7625 124.199 71.4359 124.349 71.098 124.326L18.5372 120.763C18.1647 120.738 17.8372 120.507 17.6881 120.165C13.0825 109.598 11.0946 98.8235 15.3316 79.0031C17.6572 68.1244 21.1327 61.4676 24.6727 55.5965C25.2792 54.5906 25.8846 53.6119 26.4846 52.6421C29.3837 47.9556 32.1542 43.4773 34.2884 37.1522C38.48 24.7302 37.5921 20.7116 36.1397 18.5594C35.8784 18.1722 35.92 17.6556 36.24 17.3152ZM62.4675 19.8558L50.4619 26.5257C50.1522 26.6978 49.7746 26.6931 49.4692 26.5135L39.0532 20.3864C39.7876 23.6329 39.253 28.6949 36.1835 37.7916C33.9699 44.3518 31.0662 49.0425 28.1586 53.7395C27.5658 54.6972 26.9728 55.6551 26.3854 56.6292C22.9202 62.3762 19.5529 68.8237 17.2874 79.4212C13.2038 98.5241 15.0309 108.842 19.2814 118.809L70.685 122.293C74.7465 116.65 77.573 108.329 79.0102 99.7481C80.4838 90.9499 80.4709 82.0338 78.9286 75.674C75.0214 59.5622 72.7579 52.0627 66.7425 43.0396C64.9856 40.4043 63.6362 36.0577 62.8991 31.4693C62.2792 27.6104 62.0743 23.4676 62.4675 19.8558Z" fill="#291711"/>
    <path d="M47.2263 42.9512C47.2263 44.5953 45.8935 45.9281 44.2494 45.9281C42.6053 45.9281 41.2725 44.5953 41.2725 42.9512C41.2725 41.3071 42.6053 39.9743 44.2494 39.9743C45.8935 39.9743 47.2263 41.3071 47.2263 42.9512Z" fill="#291711"/>
    <path d="M59.134 42.9512C59.134 44.5953 57.8012 45.9281 56.1571 45.9281C54.513 45.9281 53.1802 44.5953 53.1802 42.9512C53.1802 41.3071 54.513 39.9743 56.1571 39.9743C57.8012 39.9743 59.134 41.3071 59.134 42.9512Z" fill="#291711"/>
    <path d="M58.9999 55.5C65.4999 56 66 61.1666 67 63.4999C67 65.4999 62.5001 69.5 59.5 71C56.4999 72.5 42.5 71.5 41.5 70.5C40.5 69.5 39.5 67.5 38.5 62.5C37.5 57.5 39.4999 55.5 44.5 55.5C47.9999 55.5 48.3333 56.3333 50.5 57.5C52.5 56.5 54.5132 55.1548 58.9999 55.5Z" fill="#D9D9D9"/>
    <path fill-rule="evenodd" clip-rule="evenodd" d="M53.5142 55.0426C54.9593 54.5828 56.714 54.3211 59.0766 54.5029C62.6487 54.7777 64.6765 56.3708 65.9026 58.2701C66.4961 59.1894 66.8861 60.1544 67.1854 61.0035C67.3081 61.3519 67.4101 61.6617 67.5025 61.9422C67.6509 62.3931 67.7744 62.7682 67.9192 63.106L68 63.2947V63.4999C68 64.3193 67.5658 65.1582 67.0733 65.8723C66.5536 66.6259 65.8468 67.412 65.067 68.1594C63.5127 69.649 61.5571 71.0895 59.9472 71.8944C59.4394 72.1483 58.7769 72.3165 58.0739 72.436C57.3537 72.5585 56.5176 72.6416 55.6204 72.6936C53.8251 72.7978 51.7257 72.7812 49.7031 72.6864C47.6801 72.5916 45.7108 72.4174 44.1732 72.2012C43.4069 72.0934 42.7284 71.9725 42.1968 71.8407C41.9322 71.7751 41.6834 71.7018 41.4697 71.6182C41.2874 71.5468 41.0094 71.4236 40.7929 71.2071C39.5643 69.9785 38.5224 67.7108 37.5194 62.6961C36.999 60.0939 37.1862 57.9415 38.5026 56.4606C39.7981 55.0031 41.9263 54.4999 44.5 54.4999C46.3325 54.4999 47.444 54.7182 48.4083 55.1496C48.8717 55.3569 49.2763 55.6028 49.6676 55.8454C49.7097 55.8715 49.7518 55.8977 49.7941 55.9239C50.0256 56.0678 50.261 56.2141 50.5218 56.3659C50.5562 56.3481 50.591 56.3301 50.6259 56.312C51.4381 55.8913 52.3797 55.4036 53.5142 55.0426ZM51.6094 58.056C51.3932 58.1677 51.1741 58.281 50.9472 58.3944L50.4829 58.6265L50.0259 58.3804C49.5128 58.1041 49.0945 57.844 48.7384 57.6226C48.6959 57.5962 48.6544 57.5704 48.6137 57.5452C48.2237 57.3034 47.92 57.1222 47.5916 56.9753C46.9726 56.6984 46.1674 56.4999 44.5 56.4999C42.0736 56.4999 40.7018 56.9968 39.9974 57.7893C39.3138 58.5584 39.001 59.906 39.4806 62.3038C40.4541 67.1711 41.3904 68.9377 42.152 69.7365C42.164 69.7417 42.1793 69.7482 42.1983 69.7556C42.301 69.7958 42.4584 69.845 42.6782 69.8995C43.1153 70.0079 43.7181 70.1175 44.4517 70.2207C45.9142 70.4263 47.8198 70.5959 49.7968 70.6886C51.7742 70.7813 53.7999 70.7959 55.5045 70.697C56.3573 70.6475 57.115 70.5704 57.7386 70.4643C58.3793 70.3554 58.8106 70.2267 59.0528 70.1056C60.443 69.4105 62.2374 68.101 63.6831 66.7155C64.4033 66.0253 65.009 65.3427 65.4268 64.7369C65.7766 64.2297 65.9307 63.8672 65.9806 63.6476C65.8393 63.2848 65.6997 62.863 65.5609 62.4435C65.4734 62.179 65.3862 61.9155 65.2991 61.6682C65.0201 60.8767 64.6914 60.0814 64.2224 59.3548C63.3235 57.9625 61.8511 56.7222 58.9232 56.497C56.7991 56.3336 55.3038 56.572 54.1207 56.9485C53.1637 57.253 52.4065 57.6442 51.6094 58.056Z" fill="#291711"/>
    <path d="M51.9999 67C50.7999 64.6 36.4999 54.6667 29.4999 50C24.4999 50 7.49989 91 9.99989 99.5C11.9999 106.3 40.1666 106.667 53.9999 106C53.8332 94 53.1999 69.4 51.9999 67Z" fill="#1B2D6D"/>
    <path fill-rule="evenodd" clip-rule="evenodd" d="M10.9077 95.0534C10.6759 96.9586 10.7069 98.3596 10.9593 99.2178C11.1178 99.7568 11.5683 100.337 12.4523 100.927C13.3311 101.513 14.5501 102.048 16.0715 102.524C19.1116 103.473 23.172 104.128 27.6572 104.554C36.2054 105.368 46.112 105.338 52.986 105.045C52.8955 99.0636 52.6997 90.4627 52.3883 82.9414C52.2239 78.971 52.0277 75.3115 51.7986 72.5C51.6839 71.0929 51.562 69.911 51.4337 69.0143C51.3694 68.5654 51.3053 68.2004 51.2425 67.9204C51.1755 67.6215 51.1236 67.4835 51.1055 67.4472C51.0378 67.3117 50.7951 66.9963 50.2749 66.4852C49.7837 66.0027 49.1233 65.4196 48.3243 64.7574C46.7282 63.4345 44.628 61.8357 42.3343 60.157C37.9071 56.9168 32.8014 53.4099 29.3112 51.0764C29.2401 51.1148 29.1481 51.1725 29.0339 51.2592C28.7211 51.4965 28.3392 51.8766 27.8954 52.4147C27.0103 53.4876 25.9788 55.0654 24.8617 57.0328C22.6327 60.9586 20.1357 66.306 17.8648 71.9365C15.5945 77.5657 13.563 83.4461 12.2563 88.4331C11.6027 90.9278 11.1356 93.1794 10.9077 95.0534ZM27.8251 49.6658C28.2887 49.3142 28.8636 49 29.4999 49H29.8027L30.0546 49.1679C33.5624 51.5064 38.9001 55.1651 43.5155 58.543C45.8219 60.231 47.9592 61.8571 49.6006 63.2176C50.4204 63.897 51.1286 64.5203 51.6765 65.0585C52.1954 65.5683 52.6621 66.0883 52.8944 66.5528C53.0262 66.8165 53.1199 67.1519 53.1941 67.4829C53.2725 67.8328 53.3452 68.2541 53.4135 68.731C53.5501 69.6858 53.6759 70.9134 53.7919 72.3375C54.0243 75.1885 54.2218 78.879 54.3866 82.8586C54.7162 90.8208 54.9164 99.9805 54.9998 105.986L55.0133 106.952L54.0481 106.999C47.103 107.334 36.552 107.41 27.4677 106.546C22.932 106.114 18.7112 105.443 15.4752 104.433C13.8586 103.928 12.4409 103.324 11.3424 102.591C10.2493 101.862 9.38205 100.943 9.04057 99.7822C8.668 98.5154 8.68337 96.7757 8.92229 94.8119C9.16501 92.8167 9.65498 90.4706 10.3217 87.9262C11.6556 82.8351 13.7179 76.8718 16.01 71.1885C18.3016 65.5065 20.8359 60.0727 23.1225 56.0453C24.2633 54.0362 25.3607 52.3444 26.3525 51.142C26.8472 50.5424 27.3408 50.0333 27.8251 49.6658Z" fill="#291711"/>
    <path d="M49.0001 67C50.2001 64.6 64.5001 54.6667 71.5001 50C76.5001 50 93.5001 91 91.0001 99.5C89.0001 106.3 60.8334 106.667 47.0001 106C47.1668 94 47.8001 69.4 49.0001 67Z" fill="#1B2D6D"/>
    <path fill-rule="evenodd" clip-rule="evenodd" d="M90.0923 95.0534C90.3241 96.9586 90.2931 98.3596 90.0407 99.2178C89.8822 99.7568 89.4317 100.337 88.5477 100.927C87.6689 101.513 86.4499 102.048 84.9285 102.524C81.8884 103.473 77.828 104.128 73.3428 104.554C64.7946 105.368 54.888 105.338 48.014 105.045C48.1045 99.0636 48.3003 90.4627 48.6117 82.9414C48.7761 78.971 48.9723 75.3115 49.2014 72.5C49.3161 71.0929 49.438 69.911 49.5663 69.0143C49.6306 68.5654 49.6947 68.2004 49.7575 67.9204C49.8245 67.6215 49.8764 67.4835 49.8945 67.4472C49.9622 67.3117 50.2049 66.9963 50.7251 66.4852C51.2163 66.0027 51.8767 65.4196 52.6757 64.7574C54.2718 63.4345 56.372 61.8357 58.6657 60.157C63.0929 56.9168 68.1986 53.4099 71.6888 51.0764C71.7599 51.1148 71.8519 51.1725 71.9661 51.2592C72.2789 51.4965 72.6608 51.8766 73.1046 52.4147C73.9897 53.4876 75.0212 55.0654 76.1383 57.0328C78.3673 60.9586 80.8643 66.306 83.1352 71.9365C85.4055 77.5657 87.437 83.4461 88.7437 88.4331C89.3973 90.9278 89.8644 93.1794 90.0923 95.0534ZM73.1749 49.6658C72.7113 49.3142 72.1364 49 71.5001 49H71.1973L70.9454 49.1679C67.4376 51.5064 62.0999 55.1651 57.4845 58.543C55.1781 60.231 53.0408 61.8571 51.3994 63.2176C50.5796 63.897 49.8714 64.5203 49.3235 65.0585C48.8046 65.5683 48.3379 66.0883 48.1056 66.5528C47.9738 66.8165 47.8801 67.1519 47.8059 67.4829C47.7275 67.8328 47.6548 68.2541 47.5865 68.731C47.4499 69.6858 47.3241 70.9134 47.2081 72.3375C46.9757 75.1885 46.7782 78.879 46.6134 82.8586C46.2838 90.8208 46.0836 99.9805 46.0002 105.986L45.9867 106.952L46.9519 106.999C53.897 107.334 64.448 107.41 73.5323 106.546C78.068 106.114 82.2888 105.443 85.5248 104.433C87.1414 103.928 88.5591 103.324 89.6576 102.591C90.7507 101.862 91.6179 100.943 91.9594 99.7822C92.332 98.5154 92.3166 96.7757 92.0777 94.8119C91.835 92.8167 91.345 90.4706 90.6783 87.9262C89.3444 82.8351 87.2821 76.8718 84.99 71.1885C82.6984 65.5065 80.1641 60.0727 77.8775 56.0453C76.7367 54.0362 75.6393 52.3444 74.6475 51.142C74.1528 50.5424 73.6592 50.0333 73.1749 49.6658Z" fill="#291711"/>
    <path d="M29.4998 70C27.9998 70 25.4998 70 25.4998 72C23.4998 76.5 23.9998 84.5 25.4998 86C26.9998 87.5 37.4998 84.5 39.9998 87C41.9998 89 39.8331 102.833 38.4998 109.5H59.9998C58.8331 103 58.2 89.4 59 87C60 84 72.4998 87 74.9998 86C77.4998 85 75.9998 71 74.9998 70C73.9998 69 30.9998 70 29.4998 70Z" fill="#643826"/>
    <path fill-rule="evenodd" clip-rule="evenodd" d="M32.5055 70.9463C30.8037 70.9791 29.717 71 29.4998 71C28.7147 71 27.8735 71.0082 27.2314 71.2058C26.9239 71.3004 26.7467 71.415 26.651 71.5195C26.576 71.6013 26.4998 71.7291 26.4998 72V72.2122L26.4136 72.4061C25.4977 74.4669 25.1262 77.4258 25.187 80.1023C25.2172 81.4289 25.3528 82.6438 25.5624 83.5979C25.6673 84.0753 25.7867 84.4689 25.9113 84.7705C26.0307 85.0595 26.1338 85.2119 26.1923 85.2775C26.2035 85.281 26.3062 85.3375 26.6017 85.3825C26.9509 85.4358 27.4255 85.4529 28.0214 85.4378C28.9095 85.4153 29.951 85.3263 31.0817 85.2296C31.4762 85.1959 31.8815 85.1613 32.295 85.1282C33.8584 85.0031 35.5182 84.903 36.9592 85.0024C38.337 85.0974 39.8012 85.3872 40.7069 86.2929C41.1642 86.7502 41.3999 87.4184 41.5404 88.0505C41.6886 88.7172 41.7664 89.5156 41.7961 90.3878C41.8556 92.1359 41.7256 94.3122 41.4947 96.6004C41.0842 100.669 40.3438 105.19 39.7137 108.5H58.8211C58.3226 105.233 57.9454 100.781 57.7634 96.7577C57.6607 94.4877 57.6194 92.3365 57.6549 90.5937C57.6726 89.723 57.7097 88.9436 57.7697 88.2969C57.8277 87.6714 57.9128 87.0994 58.0513 86.6838C58.2932 85.9581 58.8597 85.5064 59.4482 85.231C60.0303 84.9585 60.7315 84.8091 61.4554 84.7254C62.9075 84.5575 64.7233 84.6273 66.5074 84.7525C67.3671 84.8128 68.1963 84.8837 68.9942 84.9519C69.9211 85.0312 70.8057 85.1069 71.6466 85.1581C72.405 85.2043 73.0658 85.2256 73.6021 85.2076C74.1404 85.1896 74.4572 85.1336 74.608 85.0793C74.6223 85.0652 74.7138 84.9797 74.8328 84.6882C74.9831 84.3203 75.1113 83.7825 75.2038 83.0869C75.3877 81.7045 75.4059 79.8979 75.3135 78.0499C75.2215 76.2094 75.0221 74.3722 74.7865 72.9439C74.6685 72.2278 74.5442 71.6324 74.4251 71.1982C74.3854 71.0536 74.3485 70.9351 74.3155 70.841C74.2842 70.8365 74.2501 70.8318 74.2129 70.827C73.8796 70.7842 73.3947 70.7452 72.7656 70.7114C71.5127 70.6442 69.7621 70.6014 67.6683 70.578C63.4846 70.5313 57.9781 70.5624 52.4486 70.6249C44.6054 70.7135 36.6932 70.8658 32.5055 70.9463ZM75.3013 69.0291C75.3792 69.061 75.5509 69.1369 75.7069 69.2929C75.9161 69.5021 76.0414 69.7709 76.116 69.9509C76.2031 70.1612 76.2818 70.4068 76.3538 70.669C76.4983 71.1957 76.6358 71.8659 76.7599 72.6185C77.0088 74.1278 77.2156 76.0406 77.311 77.9501C77.4061 79.8521 77.3932 81.7955 77.1864 83.3506C77.0835 84.1238 76.9266 84.8515 76.6843 85.4446C76.4566 86.002 76.0684 86.6496 75.3712 86.9285C74.8877 87.1219 74.2711 87.1863 73.669 87.2065C73.0393 87.2276 72.3056 87.202 71.525 87.1544C70.6988 87.1041 69.7455 87.0231 68.7728 86.9405C67.9636 86.8717 67.1411 86.8018 66.3674 86.7475C64.589 86.6227 62.9361 86.5675 61.6851 86.7121C61.0575 86.7847 60.5985 86.9008 60.2959 87.0424C59.9996 87.1811 59.9568 87.2919 59.9487 87.3162C59.8872 87.5006 59.8171 87.8786 59.7611 88.4816C59.7072 89.0635 59.6716 89.7911 59.6544 90.6344C59.6201 92.3198 59.6599 94.4248 59.7614 96.6673C59.9646 101.161 60.412 106.136 60.9841 109.323L61.1953 110.5H37.28L37.5192 109.304C38.1819 105.99 39.0508 100.899 39.5048 96.3996C39.7323 94.1461 39.8523 92.0724 39.7972 90.4559C39.7697 89.6459 39.699 88.9833 39.5881 88.4846C39.4695 87.9514 39.3353 87.7498 39.2927 87.7071C38.9483 87.3628 38.1626 87.0901 36.8216 86.9976C35.5439 86.9095 34.0162 86.9969 32.4545 87.1218C32.0736 87.1523 31.689 87.1852 31.3065 87.2179C30.1564 87.3163 29.0256 87.413 28.072 87.4372C27.4335 87.4533 26.8221 87.4392 26.3002 87.3597C25.8203 87.2865 25.2174 87.1318 24.7927 86.7071C24.4726 86.387 24.2395 85.9617 24.0629 85.5342C23.8808 85.0936 23.7307 84.5809 23.609 84.0271C23.3655 82.9187 23.2199 81.5711 23.1875 80.1477C23.1249 77.3934 23.4836 74.1941 24.5075 71.7748C24.5514 71.1423 24.7822 70.5984 25.1767 70.168C25.5966 69.71 26.1381 69.4496 26.6432 69.2942C27.6012 68.9994 28.7263 68.9998 29.4446 69C29.4633 69 29.4817 69 29.4998 69C29.7149 69 30.7843 68.9794 32.4627 68.947C36.622 68.8667 44.5211 68.7144 52.426 68.625C57.959 68.5625 63.4837 68.5312 67.6906 68.5782C69.7922 68.6017 71.5767 68.6448 72.8727 68.7143C73.518 68.7489 74.0609 68.791 74.468 68.8434C74.6691 68.8692 74.8614 68.9006 75.026 68.9414C75.1078 68.9616 75.2043 68.9894 75.3013 69.0291Z" fill="#291711"/>
  </g>
</svg>
