<?xml version="1.0" encoding="UTF-8" standalone="no"?>
<!-- Created with Inkscape (http://www.inkscape.org/) -->

<svg
   width="340"
   height="150"
   viewBox="0 0 89.958333 39.6875"
   version="1.1"
   id="svg100980"
   inkscape:version="1.2.2 (b0a8486541, 2022-12-01)"
   sodipodi:docname="lomdb.svg"
   xmlns:inkscape="http://www.inkscape.org/namespaces/inkscape"
   xmlns:sodipodi="http://sodipodi.sourceforge.net/DTD/sodipodi-0.dtd"
   xmlns="http://www.w3.org/2000/svg"
   xmlns:svg="http://www.w3.org/2000/svg">
  <sodipodi:namedview
     id="namedview100982"
     pagecolor="#ffffff"
     bordercolor="#000000"
     borderopacity="0.25"
     inkscape:showpageshadow="2"
     inkscape:pageopacity="0.0"
     inkscape:pagecheckerboard="0"
     inkscape:deskcolor="#d1d1d1"
     inkscape:document-units="mm"
     showgrid="false"
     inkscape:zoom="1.8315182"
     inkscape:cx="197.10424"
     inkscape:cy="127.76286"
     inkscape:window-width="1680"
     inkscape:window-height="994"
     inkscape:window-x="0"
     inkscape:window-y="0"
     inkscape:window-maximized="1"
     inkscape:current-layer="layer1" />
  <defs
     id="defs100977" />
  <g
     inkscape:label="Camada 1"
     inkscape:groupmode="layer"
     id="layer1">
    <g
       id="g8630"
       transform="translate(-118.37247,-60.789791)"
       style="fill:#ffffff;fill-opacity:1">
      <g
         id="g72567"
         transform="translate(14.74515)">
        <path
           d="m 127.09591,91.89572 q 1.30628,-0.07111 2.20689,0.736487 0.9481,0.754627 1.01922,2.060901 0.0683,1.256033 -0.78946,2.15937 -0.81035,0.850361 -2.11663,0.921478 l -16.32847,0.888955 q -1.30628,0.07112 -2.25712,-0.733752 -0.90334,-0.857844 -0.97446,-2.164119 l -1.58097,-29.039485 q -0.0711,-1.306275 0.78673,-2.209613 0.85511,-0.953578 2.26187,-1.030165 1.20579,-0.06565 2.15937,0.789464 1.00108,0.802133 1.0722,2.108407 l 1.47429,27.080075 -1.1518,-0.793927 z"
           style="font-weight:bold;font-size:192px;font-family:Quicksand;-inkscape-font-specification:'Quicksand Bold';text-align:center;text-anchor:middle;white-space:pre;fill:#f6e794;fill-opacity:1;stroke:none;stroke-width:14.857;stroke-linecap:round;stroke-linejoin:round"
           id="path1385" />
        <path
           d="m 158.31635,80.63397 q 0,3.773679 -1.25789,7.044202 -1.2579,3.270521 -3.57242,5.786307 -2.26421,2.465471 -5.4341,3.874312 -3.11957,1.40884 -6.84294,1.40884 -3.72336,0 -6.84294,-1.40884 -3.11957,-1.408841 -5.43409,-3.874312 -2.26421,-2.515786 -3.5221,-5.786307 -1.2579,-3.270523 -1.2579,-7.044202 0,-3.77368 1.2579,-7.044202 1.25789,-3.270523 3.5221,-5.735993 2.31452,-2.515787 5.43409,-3.924627 3.11958,-1.40884 6.84294,-1.40884 3.72337,0 6.84294,1.40884 3.16989,1.40884 5.4341,3.924627 2.31452,2.46547 3.57242,5.735993 1.25789,3.270522 1.25789,7.044202 z m -6.54104,0 q 0,-3.371154 -1.35853,-6.088203 -1.35852,-2.767365 -3.72336,-4.377469 -2.36484,-1.610103 -5.48442,-1.610103 -3.11957,0 -5.48441,1.610103 -2.36484,1.610104 -3.72336,4.327153 -1.30821,2.717049 -1.30821,6.138519 0,3.371154 1.30821,6.138519 1.35852,2.717049 3.72336,4.327151 2.36484,1.610104 5.48441,1.610104 3.11958,0 5.48442,-1.610104 2.36484,-1.610102 3.72336,-4.327151 1.35853,-2.767365 1.35853,-6.138519 z"
           style="font-weight:bold;font-size:192px;font-family:Quicksand;-inkscape-font-specification:'Quicksand Bold';text-align:center;text-anchor:middle;white-space:pre;fill:#f6e794;fill-opacity:1;stroke:none;stroke-width:14.857;stroke-linecap:round;stroke-linejoin:round"
           id="path1387" />
        <path
           d="m 160.0391,62.118505 q 0.70442,-0.0029 1.46078,0.396616 0.80647,0.348948 1.21143,0.951101 l 12.3028,18.768434 -2.51617,-0.09045 12.45275,-18.768015 q 0.95049,-1.362384 2.45995,-1.368495 1.20757,-0.0049 2.16702,0.846602 0.95945,0.851491 0.96496,2.210005 l 0.11793,29.132566 q 0.005,1.308198 -0.8464,2.217336 -0.8519,0.858823 -2.26072,0.864527 -1.40884,0.0057 -2.31798,-0.845991 -0.85903,-0.902213 -0.86432,-2.210411 l -0.096,-23.698512 1.96412,0.444894 -10.20098,15.689614 q -0.45059,0.555302 -1.15337,0.960676 -0.65247,0.405171 -1.35709,0.357707 -0.6539,0.05296 -1.35994,-0.346708 -0.65573,-0.399874 -1.11081,-0.95151 l -9.67174,-15.156321 1.29741,-2.672007 0.10306,25.459548 q 0.005,1.308198 -0.79608,2.217133 -0.80159,0.858619 -2.10979,0.863915 -1.25787,0.0051 -2.06638,-0.847008 -0.80872,-0.902417 -0.81401,-2.210616 l -0.1179,-29.132564 q -0.005,-1.257882 0.89692,-2.167224 0.95232,-0.909546 2.26052,-0.914842 z"
           style="font-weight:bold;font-size:192px;font-family:Quicksand;-inkscape-font-specification:'Quicksand Bold';text-align:center;text-anchor:middle;white-space:pre;fill:#f6e794;fill-opacity:1;stroke:none;stroke-width:14.857;stroke-linecap:round;stroke-linejoin:round"
           id="path1389" />
        <path
           d="m 138.41263,75.792115 q 0.91941,0.08116 1.60406,0.489073 0.68466,0.407906 1.11467,1.07645 0.44389,0.656902 0.61436,1.49557 0.18437,0.827026 0.10321,1.746431 -0.10935,1.238643 -0.64647,2.220748 -0.53599,0.969337 -1.44453,1.493973 -0.89577,0.525761 -2.13442,0.416416 l -3.05191,-0.26943 q -0.33201,-0.02932 -0.5427,-0.266684 -0.19679,-0.249016 -0.16747,-0.58102 l 0.65158,-7.38078 q 0.0293,-0.332008 0.26556,-0.529924 0.25015,-0.209561 0.58215,-0.18025 z m -0.78718,7.458894 q 0.80449,0.07102 1.35134,-0.292513 0.54799,-0.3763 0.83758,-1.032793 0.3035,-0.668135 0.37452,-1.472614 0.053,-0.600169 -0.0401,-1.148887 -0.0792,-0.560363 -0.32408,-0.993789 -0.24373,-0.446195 -0.65648,-0.727144 -0.41274,-0.280949 -1.0129,-0.333932 l -2.23468,-0.19728 0.13785,-0.103653 -0.55239,6.257063 -0.0642,-0.147229 z"
           style="font-weight:bold;font-size:192px;font-family:Quicksand;-inkscape-font-specification:'Quicksand Bold';text-align:center;text-anchor:middle;white-space:pre;fill:#fff4c9;fill-opacity:1;stroke:none;stroke-width:3.78518;stroke-linecap:round;stroke-linejoin:round"
           id="path1391" />
        <path
           d="m 145.37231,75.753889 q 1.2227,-0.13958 1.88673,0.365224 0.66405,0.504805 0.792,1.625613 0.0683,0.598614 -0.17227,1.090567 -0.24204,0.479217 -0.7861,0.799374 -0.54551,0.307421 -1.38613,0.403382 l -0.0145,-0.578956 q 0.39483,-0.04507 0.91737,0.0114 0.52109,0.04374 1.02433,0.27014 0.51452,0.212214 0.87689,0.674041 0.37367,0.447638 0.46091,1.211825 0.096,0.840606 -0.12318,1.407524 -0.2064,0.565465 -0.61873,0.909287 -0.41234,0.343827 -0.90871,0.516621 -0.49783,0.16005 -0.96908,0.213845 l -3.17138,0.362036 q -0.33114,0.03782 -0.58512,-0.152548 -0.24268,-0.204537 -0.28049,-0.535689 l -0.84039,-7.361671 q -0.0378,-0.331148 0.154,-0.572386 0.20309,-0.255427 0.53424,-0.29323 z m -0.0577,1.529072 -2.26709,0.258804 0.14231,-0.222684 0.26317,2.305299 -0.16592,-0.09718 2.29256,-0.261712 q 0.36935,-0.04216 0.63467,-0.317598 0.26531,-0.275434 0.21297,-0.733946 -0.0625,-0.547668 -0.37035,-0.757673 -0.29654,-0.224197 -0.74232,-0.17331 z m 0.50028,3.478159 -2.31803,0.26462 0.10299,-0.114978 0.30679,2.687393 -0.1419,-0.112826 2.41991,-0.276251 q 0.58589,-0.06688 0.89487,-0.411814 0.30753,-0.357667 0.2363,-0.981754 -0.0654,-0.573141 -0.32378,-0.801698 -0.25833,-0.228559 -0.58401,-0.255893 -0.32568,-0.02733 -0.59314,0.0032 z"
           style="font-weight:bold;font-size:192px;font-family:Quicksand;-inkscape-font-specification:'Quicksand Bold';text-align:center;text-anchor:middle;white-space:pre;fill:#fff4c9;fill-opacity:1;stroke:none;stroke-width:3.78518;stroke-linecap:round;stroke-linejoin:round"
           id="path1393" />
      </g>
    </g>
  </g>
</svg>
