<?xml version="1.0" encoding="UTF-8"?>
<svg width="340" height="150" version="1.1" viewBox="0 0 89.958 39.688" xmlns="http://www.w3.org/2000/svg">
<g transform="translate(-118.37 -60.79)" fill="#fff">
<g transform="translate(14.745)">
<path d="m127.1 91.896q1.3063-0.07111 2.2069 0.73649 0.9481 0.75463 1.0192 2.0609 0.0683 1.256-0.78946 2.1594-0.81035 0.85036-2.1166 0.92148l-16.328 0.88896q-1.3063 0.07112-2.2571-0.73375-0.90334-0.85784-0.97446-2.1641l-1.581-29.039q-0.0711-1.3063 0.78673-2.2096 0.85511-0.95358 2.2619-1.0302 1.2058-0.06565 2.1594 0.78946 1.0011 0.80213 1.0722 2.1084l1.4743 27.08-1.1518-0.79393z" fill="#f6e794" style="white-space:pre"/>
<path d="m158.32 80.634q0 3.7737-1.2579 7.0442-1.2579 3.2705-3.5724 5.7863-2.2642 2.4655-5.4341 3.8743-3.1196 1.4088-6.8429 1.4088-3.7234 0-6.8429-1.4088-3.1196-1.4088-5.4341-3.8743-2.2642-2.5158-3.5221-5.7863-1.2579-3.2705-1.2579-7.0442 0-3.7737 1.2579-7.0442 1.2579-3.2705 3.5221-5.736 2.3145-2.5158 5.4341-3.9246 3.1196-1.4088 6.8429-1.4088 3.7234 0 6.8429 1.4088 3.1699 1.4088 5.4341 3.9246 2.3145 2.4655 3.5724 5.736 1.2579 3.2705 1.2579 7.0442zm-6.541 0q0-3.3712-1.3585-6.0882-1.3585-2.7674-3.7234-4.3775-2.3648-1.6101-5.4844-1.6101-3.1196 0-5.4844 1.6101-2.3648 1.6101-3.7234 4.3272-1.3082 2.717-1.3082 6.1385 0 3.3712 1.3082 6.1385 1.3585 2.717 3.7234 4.3272 2.3648 1.6101 5.4844 1.6101 3.1196 0 5.4844-1.6101 2.3648-1.6101 3.7234-4.3272 1.3585-2.7674 1.3585-6.1385z" fill="#f6e794" style="white-space:pre"/>
<path d="m160.04 62.119q0.70442-0.0029 1.4608 0.39662 0.80647 0.34895 1.2114 0.9511l12.303 18.768-2.5162-0.09045 12.453-18.768q0.95049-1.3624 2.46-1.3685 1.2076-0.0049 2.167 0.8466 0.95945 0.85149 0.96496 2.21l0.11793 29.133q5e-3 1.3082-0.8464 2.2173-0.8519 0.85882-2.2607 0.86453-1.4088 0.0057-2.318-0.84599-0.85903-0.90221-0.86432-2.2104l-0.096-23.699 1.9641 0.44489-10.201 15.69q-0.45059 0.5553-1.1534 0.96068-0.65247 0.40517-1.3571 0.35771-0.6539 0.05296-1.3599-0.34671-0.65573-0.39987-1.1108-0.95151l-9.6717-15.156 1.2974-2.672 0.10306 25.46q5e-3 1.3082-0.79608 2.2171-0.80159 0.85862-2.1098 0.86392-1.2579 0.0051-2.0664-0.84701-0.80872-0.90242-0.81401-2.2106l-0.1179-29.133q-5e-3 -1.2579 0.89692-2.1672 0.95232-0.90955 2.2605-0.91484z" fill="#f6e794" style="white-space:pre"/>
<path d="m138.41 75.792q0.91941 0.08116 1.6041 0.48907 0.68466 0.40791 1.1147 1.0764 0.44389 0.6569 0.61436 1.4956 0.18437 0.82703 0.10321 1.7464-0.10935 1.2386-0.64647 2.2207-0.53599 0.96934-1.4445 1.494-0.89577 0.52576-2.1344 0.41642l-3.0519-0.26943q-0.33201-0.02932-0.5427-0.26668-0.19679-0.24902-0.16747-0.58102l0.65158-7.3808q0.0293-0.33201 0.26556-0.52992 0.25015-0.20956 0.58215-0.18025zm-0.78718 7.4589q0.80449 0.07102 1.3513-0.29251 0.54799-0.3763 0.83758-1.0328 0.3035-0.66814 0.37452-1.4726 0.053-0.60017-0.0401-1.1489-0.0792-0.56036-0.32408-0.99379-0.24373-0.4462-0.65648-0.72714-0.41274-0.28095-1.0129-0.33393l-2.2347-0.19728 0.13785-0.10365-0.55239 6.2571-0.0642-0.14723z" fill="#fff4c9" style="white-space:pre"/>
<path d="m145.37 75.754q1.2227-0.13958 1.8867 0.36522 0.66405 0.5048 0.792 1.6256 0.0683 0.59861-0.17227 1.0906-0.24204 0.47922-0.7861 0.79937-0.54551 0.30742-1.3861 0.40338l-0.0145-0.57896q0.39483-0.04507 0.91737 0.0114 0.52109 0.04374 1.0243 0.27014 0.51452 0.21221 0.87689 0.67404 0.37367 0.44764 0.46091 1.2118 0.096 0.84061-0.12318 1.4075-0.2064 0.56546-0.61873 0.90929-0.41234 0.34383-0.90871 0.51662-0.49783 0.16005-0.96908 0.21384l-3.1714 0.36204q-0.33114 0.03782-0.58512-0.15255-0.24268-0.20454-0.28049-0.53569l-0.84039-7.3617q-0.0378-0.33115 0.154-0.57239 0.20309-0.25543 0.53424-0.29323zm-0.0577 1.5291-2.2671 0.2588 0.14231-0.22268 0.26317 2.3053-0.16592-0.09718 2.2926-0.26171q0.36935-0.04216 0.63467-0.3176 0.26531-0.27543 0.21297-0.73395-0.0625-0.54767-0.37035-0.75767-0.29654-0.2242-0.74232-0.17331zm0.50028 3.4782-2.318 0.26462 0.10299-0.11498 0.30679 2.6874-0.1419-0.11283 2.4199-0.27625q0.58589-0.06688 0.89487-0.41181 0.30753-0.35767 0.2363-0.98175-0.0654-0.57314-0.32378-0.8017-0.25833-0.22856-0.58401-0.25589-0.32568-0.02733-0.59314 0.0032z" fill="#fff4c9" style="white-space:pre"/>
</g>
</g>
</svg>
