<?xml version="1.0" encoding="UTF-8" standalone="no"?>
<svg
  width="200"
  height="200"
  viewBox="0 0 200 200"
  version="1.1"
  xmlns="http://www.w3.org/2000/svg"
  xmlns:svg="http://www.w3.org/2000/svg"
>
  <path
    transform="translate(16 8)"
    d="M -2.8994584e-6,0 H 199.99987 v 119.35418 h -0.003 C 199.70816,91.988105 177.43388,69.8923 149.99934,69.8923 c -27.43453,0 -49.70881,22.095805 -49.99665,49.46188 h -0.0059 c 0.002,0.17896 0.0029,0.35885 0.0029,0.53781 0,27.61443 -22.385817,50.00044 -49.999964,50.00044 -27.614242,0 -49.9999183731,-22.38601 -49.9999183731,-50.00044 0,-0.17896 9.4508661e-4,-0.35885 0.002830563,-0.53781 H -2.8994584e-6 Z"
    fill="#2E74A7"
  />
  <path
    d="M -2.8994584e-6,0 H 199.99987 v 119.35418 h -0.003 C 199.70816,91.988105 177.43388,69.8923 149.99934,69.8923 c -27.43453,0 -49.70881,22.095805 -49.99665,49.46188 h -0.0059 c 0.002,0.17896 0.0029,0.35885 0.0029,0.53781 0,27.61443 -22.385817,50.00044 -49.999964,50.00044 -27.614242,0 -49.9999183731,-22.38601 -49.9999183731,-50.00044 0,-0.17896 9.4508661e-4,-0.35885 0.002830563,-0.53781 H -2.8994584e-6 Z"
    fill="#d26284"
  />
</svg>
