<?xml version="1.0" encoding="UTF-8"?>
<svg width="320" height="280" version="1.1" viewBox="0 0 84.667 74.083" xmlns="http://www.w3.org/2000/svg">
<path d="m8.2097 45.705a34.721 34.721 0 0 1 25.395-41.847 34.721 34.721 0 0 1 42.004 25.133 34.721 34.721 0 0 1-24.87 42.16 34.721 34.721 0 0 1-42.315-24.607" fill="#a1d6ff" fill-opacity=".33333"/>
<path d="m32.565 27.215s-5.9619 3.5985-4.6105 5.4544c1.3514 1.8559 6.5129-3.8408 6.5129-3.8408s0.63472-0.681-0.09383-1.6131c-0.72847-0.93205-1.8086-4.8e-4 -1.8086-4.8e-4z" fill="#ebd5ce"/>
<path d="m49.313 28.161s6.1901 3.1901 4.9664 5.1325c-1.2237 1.9424-6.7561-3.3949-6.7561-3.3949s-0.67898-0.63687-0.01448-1.6157c0.66423-0.97888 1.8045-0.12181 1.8045-0.12181z" fill="#ebd5ce"/>
<path d="m50.831 22.808s1.1068 6.736-0.39057 9.6615-5.2642 4.1213-9.9122 4.1028c-4.6479-0.0186-8.7693-2.6743-9.3111-4.8288-0.54184-2.1545 0.74817-11.083 0.74817-11.083z" fill="#ebd5ce" stroke-linecap="round" stroke-linejoin="round" stroke-width="60.801"/>
<path d="m50.792 26.997s0.76362 1.1988 0.26421 1.524c-0.49941 0.32524-1.0074 0.0356-5.2842-0.9929-4.2768-1.0285-14.5 1.4282-14.388 0.13112 0.0821-0.94849 2.8107-3.03 10.685-2.4519 7.8745 0.57807 8.5499 2.0459 8.5499 2.0459z" fill="#e5b8aa" stroke-linecap="round" stroke-linejoin="round" stroke-width="58.046"/>
<path d="m57.862 25.837c-4.071 5.1909-8.6969 0.82026-14.736 0.93434-6.0388 0.11415-15.268 3.0315-16.395-2.0354-1.1278-5.067 1.8655-16.271 15.048-16.233 13.182 0.0376 19.822 10.154 16.083 17.334z" fill="#a0cc58" stroke-linecap="round" stroke-linejoin="round" stroke-width="54.142"/>
<path d="m37.721 31.43c-0.07817 0.78818-1.6336 0.68539-1.5222 0.0186 0.11147-0.66667 1.6003-0.80688 1.5222-0.0186z" fill="#f1ab9c" stroke-linecap="round" stroke-linejoin="round" stroke-width="33.364"/>
<path d="m46.273 31.009c-0.07817 0.78818-1.6336 0.6854-1.5222 0.0186 0.11147-0.66665 1.6003-0.80688 1.5222-0.0186z" fill="#f1ab9c" stroke-linecap="round" stroke-linejoin="round" stroke-width="33.364"/>
<path transform="matrix(.0094562 .99996 .99996 -.0094562 0 0)" d="m34.905 44.657a1.9927 1.3351 0 0 1 1.4575-1.6091 1.9927 1.3351 0 0 1 2.4108 0.96642 1.9927 1.3351 0 0 1-1.4274 1.6212 1.9927 1.3351 0 0 1-2.4286-0.94618" fill="#ebd5ce"/>
<path transform="matrix(.022542 .99975 .99975 -.022542 0 0)" d="m35.71 36.969a1.9927 1.3351 0 0 1 1.4575-1.6091 1.9927 1.3351 0 0 1 2.4108 0.96642 1.9927 1.3351 0 0 1-1.4274 1.6212 1.9927 1.3351 0 0 1-2.4286-0.94618" fill="#ebd5ce"/>
<path d="m41.465 31.748c0.93351-0.025 1.2589-1.1504 1.0321-1.405s-0.7627 0.17746-1.1692 0.20387c-0.40651 0.0264-0.89673-0.34667-1.1078-0.0184-0.21105 0.32829 0.31134 1.2445 1.2449 1.2195z" fill="#c4714c"/>
<path d="m42.801 29.247s0.4395-0.49012 0.90986-0.44074c0.47038 0.0494 0.77612 0.53242 0.77612 0.53242" fill="none" stroke="#601f1f" stroke-linecap="round" stroke-linejoin="round" stroke-width=".40426"/>
<path d="m19.528 50.132s-5.9619 3.5985-4.6105 5.4544c1.3514 1.8559 6.5129-3.8408 6.5129-3.8408s0.63472-0.681-0.09383-1.6131c-0.72847-0.93205-1.8086-4.8e-4 -1.8086-4.8e-4z" fill="#ebd5ce"/>
<path d="m36.276 51.078s6.1901 3.1901 4.9664 5.1325c-1.2237 1.9424-6.7561-3.3949-6.7561-3.3949s-0.67898-0.63687-0.01448-1.6157c0.66423-0.97888 1.8045-0.12181 1.8045-0.12181z" fill="#ebd5ce"/>
<path d="m37.49 45.726s1.1068 6.736-0.39057 9.6615-5.2642 4.1213-9.9122 4.1028c-4.6479-0.0186-8.7693-2.6743-9.3111-4.8288-0.54184-2.1545 0.74817-11.083 0.74817-11.083z" fill="#ebd5ce" stroke-linecap="round" stroke-linejoin="round" stroke-width="60.801"/>
<g transform="translate(-17.944 -155.67)" stroke-linecap="round" stroke-linejoin="round">
<path d="m55.699 205.59s0.76362 1.1988 0.26421 1.524c-0.49941 0.32524-1.0074 0.0356-5.2842-0.9929-4.2768-1.0285-14.5 1.4282-14.388 0.13112 0.0821-0.94849 2.8107-3.03 10.685-2.4519 7.8745 0.57807 8.5499 2.0459 8.5499 2.0459z" fill="#e5b8aa" stroke-width="58.046"/>
<path d="m62.769 204.43c-4.071 5.1909-8.6969 0.82026-14.736 0.93434-6.0388 0.11415-15.268 3.0315-16.395-2.0354-1.1278-5.067 1.8655-16.271 15.048-16.233 13.182 0.0376 19.822 10.154 16.083 17.334z" fill="#e69aa6" stroke-width="54.142"/>
<path d="m40.671 188.01c0.51281 0.24086 0.99474 0.57476 1.4292 1.0154 4.5048 4.5686-4.8425 9.9604-9.6435 6.8537 1.2771-3.227 3.8347-6.3663 8.2143-7.8691z" fill="#fee6f3" stroke-width="60.35"/>
<path d="m48.574 199.41c3.4157-0.2066 7.8647 1.8621 7.9971 5.7916 0.02109 0.62393-0.05997 1.1645-0.22399 1.6273-2.4756-0.4027-5.2077-1.5288-8.3143-1.4701-0.74385 0.0145-1.5365 0.0705-2.3561 0.14952-0.4888-0.70325-0.82694-1.4912-0.94914-2.3457-0.34396-2.4049 1.5093-3.6113 3.8464-3.7527z" fill="#fee6f3" stroke-width="60.35"/>
<path d="m53.984 188.29c2.3296 0.82371 4.2845 2.0246 5.8216 3.4522 0.0041 0.0596 0.01034 0.11974 0.01241 0.18075 0.14269 4.2557-7.1082 2.498-7.6541-1.3085-0.18798-1.3103 0.64392-2.068 1.8211-2.3244z" fill="#fee6f3" stroke-width="38.906"/>
</g>
<g transform="translate(-21.648 -154.61)">
<path d="m46.862 208.96c-0.07817 0.78817-1.6336 0.68538-1.5222 0.0186 0.11147-0.66667 1.6003-0.80688 1.5222-0.0186z" fill="#f1ab9c" stroke-linecap="round" stroke-linejoin="round" stroke-width="33.364"/>
<path d="m51.132 208.35s-0.41373 0.51206-0.88601 0.48692c-0.4723-0.0252-0.80246-0.49184-0.80246-0.49184" fill="none" stroke="#601f1f" stroke-linecap="round" stroke-linejoin="round" stroke-width=".40426"/>
<path d="m52.885 207.43c-0.72313 0.11106-0.7406-1.3662-0.06576-1.5524 0.67476-0.18613 0.78902 1.4413 0.06576 1.5524z" fill="#9e588b"/>
<path d="m55.413 208.54c-0.07817 0.78817-1.6336 0.68539-1.5222 0.0186 0.11147-0.66665 1.6003-0.80688 1.5222-0.0186z" fill="#f1ab9c" stroke-linecap="round" stroke-linejoin="round" stroke-width="33.364"/>
<path transform="scale(-1,1)" d="m-53.028 206.25a0.14785 0.1445 0 0 1 0.10814-0.17416 0.14785 0.1445 0 0 1 0.17887 0.1046 0.14785 0.1445 0 0 1-0.10591 0.17547 0.14785 0.1445 0 0 1-0.18019-0.10241" fill="#fff"/>
<path d="m47.987 207.34c-0.72315 0.11106-0.7406-1.3662-0.06576-1.5523 0.67474-0.18613 0.789 1.4413 0.06576 1.5523z" fill="#9e588b"/>
<path transform="scale(-1,1)" d="m-48.13 206.16a0.14785 0.1445 0 0 1 0.10814-0.17416 0.14785 0.1445 0 0 1 0.17887 0.1046 0.14785 0.1445 0 0 1-0.10591 0.17547 0.14785 0.1445 0 0 1-0.18019-0.10241" fill="#fff"/>
</g>
<path transform="matrix(.0094562 .99996 .99996 -.0094562 0 0)" d="m57.699 31.404a1.9927 1.3351 0 0 1 1.4575-1.6091 1.9927 1.3351 0 0 1 2.4107 0.96642 1.9927 1.3351 0 0 1-1.4274 1.6211 1.9927 1.3351 0 0 1-2.4286-0.94618" fill="#ebd5ce"/>
<path transform="matrix(.022542 .99975 .99975 -.022542 0 0)" d="m58.328 23.419a1.9927 1.3351 0 0 1 1.4575-1.6091 1.9927 1.3351 0 0 1 2.4108 0.96642 1.9927 1.3351 0 0 1-1.4274 1.6211 1.9927 1.3351 0 0 1-2.4286-0.94618" fill="#ebd5ce"/>
<path d="m44.177 50.457s-5.9619 3.5985-4.6105 5.4544c1.3514 1.8559 6.5129-3.8408 6.5129-3.8408s0.63472-0.681-0.09383-1.6131c-0.72847-0.93205-1.8086-4.8e-4 -1.8086-4.8e-4z" fill="#ebd5ce"/>
<path d="m60.925 51.403s6.1901 3.1901 4.9664 5.1325c-1.2237 1.9424-6.7561-3.3949-6.7561-3.3949s-0.67898-0.63687-0.01448-1.6157c0.66423-0.97888 1.8045-0.12181 1.8045-0.12181z" fill="#ebd5ce"/>
<path d="m62.442 46.051s1.1068 6.736-0.39057 9.6615-5.2642 4.1213-9.9122 4.1028c-4.6479-0.0186-8.7693-2.6743-9.3111-4.8288-0.54184-2.1545 0.74817-11.083 0.74817-11.083z" fill="#ebd5ce" stroke-linecap="round" stroke-linejoin="round" stroke-width="60.801"/>
<path d="m62.404 50.239s0.76362 1.1988 0.26421 1.524c-0.49941 0.32524-1.0074 0.0356-5.2842-0.9929-4.2768-1.0285-14.5 1.4282-14.388 0.13112 0.0821-0.94849 2.8107-3.03 10.685-2.4519 7.8745 0.57807 8.5499 2.0459 8.5499 2.0459z" fill="#e5b8aa" stroke-linecap="round" stroke-linejoin="round" stroke-width="58.046"/>
<path d="m69.474 49.08c-4.071 5.1909-8.6969 0.82026-14.736 0.93434-6.0388 0.11415-15.268 3.0315-16.395-2.0354-1.1278-5.067 1.8655-16.271 15.048-16.233 13.182 0.0376 19.822 10.154 16.083 17.334z" fill="#efbe78" stroke-linecap="round" stroke-linejoin="round" stroke-width="54.142"/>
<path d="m49.333 54.672c-0.07817 0.78817-1.6336 0.68538-1.5222 0.0186 0.11147-0.66667 1.6003-0.80688 1.5222-0.0186z" fill="#f1ab9c" stroke-linecap="round" stroke-linejoin="round" stroke-width="33.364"/>
<path d="m55.357 53.14c-0.72313 0.11106-0.7406-1.3662-0.06576-1.5524 0.67476-0.18613 0.78902 1.4413 0.06576 1.5524z" fill="#9e8058"/>
<path d="m57.885 54.251c-0.07817 0.78817-1.6336 0.68539-1.5222 0.0186 0.11147-0.66665 1.6003-0.80688 1.5222-0.0186z" fill="#f1ab9c" stroke-linecap="round" stroke-linejoin="round" stroke-width="33.364"/>
<path transform="scale(-1,1)" d="m-55.499 51.962a0.14785 0.1445 0 0 1 0.10814-0.17416 0.14785 0.1445 0 0 1 0.17887 0.1046 0.14785 0.1445 0 0 1-0.1059 0.17546 0.14785 0.1445 0 0 1-0.18019-0.10241" fill="#fff"/>
<path d="m50.459 53.048c-0.72315 0.11106-0.7406-1.3662-0.06576-1.5523 0.67474-0.18613 0.789 1.4413 0.06576 1.5523z" fill="#9e8058"/>
<path transform="scale(-1,1)" d="m-50.601 51.87a0.14785 0.1445 0 0 1 0.10814-0.17416 0.14785 0.1445 0 0 1 0.17887 0.1046 0.14785 0.1445 0 0 1-0.10591 0.17546 0.14785 0.1445 0 0 1-0.18019-0.10241" fill="#fff"/>
<path transform="matrix(.0094562 .99996 .99996 -.0094562 0 0)" d="m58.257 56.049a1.9927 1.3351 0 0 1 1.4575-1.6091 1.9927 1.3351 0 0 1 2.4108 0.96642 1.9927 1.3351 0 0 1-1.4274 1.6212 1.9927 1.3351 0 0 1-2.4286-0.94618" fill="#ebd5ce"/>
<path transform="matrix(.022542 .99975 .99975 -.022542 0 0)" d="m59.209 48.054a1.9927 1.3351 0 0 1 1.4575-1.6091 1.9927 1.3351 0 0 1 2.4108 0.96642 1.9927 1.3351 0 0 1-1.4274 1.6211 1.9927 1.3351 0 0 1-2.4286-0.94618" fill="#ebd5ce"/>
<path d="m53.077 54.991c0.93351-0.025 1.2589-1.1504 1.0321-1.405s-0.7627 0.17746-1.1692 0.20387c-0.40651 0.0264-0.89673-0.34667-1.1078-0.0184-0.21105 0.32829 0.31134 1.2445 1.2449 1.2195z" fill="#c4714c"/>
<path d="m38.179 29.399s0.4395-0.49012 0.90986-0.44074c0.47038 0.0494 0.77612 0.53242 0.77612 0.53242" fill="none" stroke="#601f1f" stroke-linecap="round" stroke-linejoin="round" stroke-width=".40426"/>
<path d="m53.391 31.746c-2.8708-8e-3 -5.2579 0.5172-7.2249 1.3958a6.673 4.9932 0 0 0 0.08113 2.0417l0.04134 0.12093a6.673 4.9932 0 0 0 8.1323 3.5388 6.673 4.9932 0 0 0 4.7801-6.0632 6.673 4.9932 0 0 0-0.12867-0.32918c-1.7247-0.44775-3.623-0.69899-5.6813-0.70486z" fill="#d67539"/>
<path d="m67.564 37.484a6.673 4.9932 0 0 0-0.25993 0.0413 6.673 4.9932 0 0 0-4.8808 6.0177l0.04082 0.12092a6.673 4.9932 0 0 0 7.7174 3.6086c0.89268-3.2618-0.0817-6.871-2.6174-9.7886z" fill="#d67539"/>
<path d="m44.257 19.687a6.1364 5.5562 0 0 0-1.357 0.16226 6.1364 5.5562 0 0 0-4.4881 6.6962l0.03772 0.13436a6.1364 5.5562 0 0 0 0.17105 0.48059c1.5781-0.19007 3.126-0.36304 4.5057-0.38912 2.4237-0.0458 4.6195 0.63044 6.6435 1.1214a6.1364 5.5562 0 0 0 0.55346-4.0215 6.1364 5.5562 0 0 0-6.0663-4.1842z" fill="#f0f6ea"/>
<path d="m51.925 10.993a5.6992 4.5884 0 0 0-3.3032 5.2948l0.03514 0.1111a5.6992 4.5884 0 0 0 6.9458 3.2515 5.6992 4.5884 0 0 0 2.7389-1.3208c-0.96498-2.8396-3.1678-5.5012-6.4167-7.3365z" fill="#f0f6ea"/>
<path d="m33.339 10.515c-4.601 2.6314-6.5079 7.3463-6.7882 11.09a6.747 6.4569 0 0 0 5.6425 1.0067 6.747 6.4569 0 0 0 4.8328-7.8404 6.747 6.4569 0 0 0-3.6871-4.2566z" fill="#f0f6ea"/>
<path d="m49.328 45.207a6.3495 5.6844 0 0 0-1.404 0.16588 6.3495 5.6844 0 0 0-4.8199 5.5568c3.4581 0.17992 8.0935-0.84879 11.634-0.91571 0.33484-6e-3 0.66486 1e-3 0.99115 0.0202a6.3495 5.6844 0 0 0-0.12402-0.54673 6.3495 5.6844 0 0 0-6.2771-4.2804z" fill="#d67539"/>
</svg>
